<?xml version="1.0" encoding="utf-8" standalone="no"?>
<!DOCTYPE svg PUBLIC "-//W3C//DTD SVG 1.1//EN"
  "http://www.w3.org/Graphics/SVG/1.1/DTD/svg11.dtd">
<!-- Created with matplotlib (https://matplotlib.org/) -->
<svg height="288pt" version="1.1" viewBox="0 0 432 288" width="432pt" xmlns="http://www.w3.org/2000/svg" xmlns:xlink="http://www.w3.org/1999/xlink">
 <metadata>
  <rdf:RDF xmlns:cc="http://creativecommons.org/ns#" xmlns:dc="http://purl.org/dc/elements/1.1/" xmlns:rdf="http://www.w3.org/1999/02/22-rdf-syntax-ns#">
   <cc:Work>
    <dc:type rdf:resource="http://purl.org/dc/dcmitype/StillImage"/>
    <dc:date>2021-08-06T16:49:03.937961</dc:date>
    <dc:format>image/svg+xml</dc:format>
    <dc:creator>
     <cc:Agent>
      <dc:title>Matplotlib v3.3.4, https://matplotlib.org/</dc:title>
     </cc:Agent>
    </dc:creator>
   </cc:Work>
  </rdf:RDF>
 </metadata>
 <defs>
  <style type="text/css">*{stroke-linecap:butt;stroke-linejoin:round;}</style>
 </defs>
 <g id="figure_1">
  <g id="patch_1">
   <path d="M 0 288 
L 432 288 
L 432 0 
L 0 0 
z
" style="fill:#ffffff;"/>
  </g>
  <g id="axes_1">
   <g id="patch_2">
    <path d="M 54 252 
L 388.8 252 
L 388.8 34.56 
L 54 34.56 
z
" style="fill:#ffffff;"/>
   </g>
   <g id="matplotlib.axis_1">
    <g id="xtick_1">
     <g id="line2d_1">
      <defs>
       <path d="M 0 0 
L 0 3.5 
" id="md99670ef6e" style="stroke:#000000;stroke-width:0.8;"/>
      </defs>
      <g>
       <use style="stroke:#000000;stroke-width:0.8;" x="66.876923" xlink:href="#md99670ef6e" y="252"/>
      </g>
     </g>
     <g id="text_1">
      <!-- 200 -->
      <g transform="translate(57.333173 266.598437)scale(0.1 -0.1)">
       <defs>
        <path d="M 19.1875 8.296875 
L 53.609375 8.296875 
L 53.609375 0 
L 7.328125 0 
L 7.328125 8.296875 
Q 12.9375 14.109375 22.625 23.890625 
Q 32.328125 33.6875 34.8125 36.53125 
Q 39.546875 41.84375 41.421875 45.53125 
Q 43.3125 49.21875 43.3125 52.78125 
Q 43.3125 58.59375 39.234375 62.25 
Q 35.15625 65.921875 28.609375 65.921875 
Q 23.96875 65.921875 18.8125 64.3125 
Q 13.671875 62.703125 7.8125 59.421875 
L 7.8125 69.390625 
Q 13.765625 71.78125 18.9375 73 
Q 24.125 74.21875 28.421875 74.21875 
Q 39.75 74.21875 46.484375 68.546875 
Q 53.21875 62.890625 53.21875 53.421875 
Q 53.21875 48.921875 51.53125 44.890625 
Q 49.859375 40.875 45.40625 35.40625 
Q 44.1875 33.984375 37.640625 27.21875 
Q 31.109375 20.453125 19.1875 8.296875 
z
" id="DejaVuSans-50"/>
        <path d="M 31.78125 66.40625 
Q 24.171875 66.40625 20.328125 58.90625 
Q 16.5 51.421875 16.5 36.375 
Q 16.5 21.390625 20.328125 13.890625 
Q 24.171875 6.390625 31.78125 6.390625 
Q 39.453125 6.390625 43.28125 13.890625 
Q 47.125 21.390625 47.125 36.375 
Q 47.125 51.421875 43.28125 58.90625 
Q 39.453125 66.40625 31.78125 66.40625 
z
M 31.78125 74.21875 
Q 44.046875 74.21875 50.515625 64.515625 
Q 56.984375 54.828125 56.984375 36.375 
Q 56.984375 17.96875 50.515625 8.265625 
Q 44.046875 -1.421875 31.78125 -1.421875 
Q 19.53125 -1.421875 13.0625 8.265625 
Q 6.59375 17.96875 6.59375 36.375 
Q 6.59375 54.828125 13.0625 64.515625 
Q 19.53125 74.21875 31.78125 74.21875 
z
" id="DejaVuSans-48"/>
       </defs>
       <use xlink:href="#DejaVuSans-50"/>
       <use x="63.623047" xlink:href="#DejaVuSans-48"/>
       <use x="127.246094" xlink:href="#DejaVuSans-48"/>
      </g>
     </g>
    </g>
    <g id="xtick_2">
     <g id="line2d_2">
      <g>
       <use style="stroke:#000000;stroke-width:0.8;" x="131.261538" xlink:href="#md99670ef6e" y="252"/>
      </g>
     </g>
     <g id="text_2">
      <!-- 250 -->
      <g transform="translate(121.717788 266.598437)scale(0.1 -0.1)">
       <defs>
        <path d="M 10.796875 72.90625 
L 49.515625 72.90625 
L 49.515625 64.59375 
L 19.828125 64.59375 
L 19.828125 46.734375 
Q 21.96875 47.46875 24.109375 47.828125 
Q 26.265625 48.1875 28.421875 48.1875 
Q 40.625 48.1875 47.75 41.5 
Q 54.890625 34.8125 54.890625 23.390625 
Q 54.890625 11.625 47.5625 5.09375 
Q 40.234375 -1.421875 26.90625 -1.421875 
Q 22.3125 -1.421875 17.546875 -0.640625 
Q 12.796875 0.140625 7.71875 1.703125 
L 7.71875 11.625 
Q 12.109375 9.234375 16.796875 8.0625 
Q 21.484375 6.890625 26.703125 6.890625 
Q 35.15625 6.890625 40.078125 11.328125 
Q 45.015625 15.765625 45.015625 23.390625 
Q 45.015625 31 40.078125 35.4375 
Q 35.15625 39.890625 26.703125 39.890625 
Q 22.75 39.890625 18.8125 39.015625 
Q 14.890625 38.140625 10.796875 36.28125 
z
" id="DejaVuSans-53"/>
       </defs>
       <use xlink:href="#DejaVuSans-50"/>
       <use x="63.623047" xlink:href="#DejaVuSans-53"/>
       <use x="127.246094" xlink:href="#DejaVuSans-48"/>
      </g>
     </g>
    </g>
    <g id="xtick_3">
     <g id="line2d_3">
      <g>
       <use style="stroke:#000000;stroke-width:0.8;" x="195.646154" xlink:href="#md99670ef6e" y="252"/>
      </g>
     </g>
     <g id="text_3">
      <!-- 300 -->
      <g transform="translate(186.102404 266.598437)scale(0.1 -0.1)">
       <defs>
        <path d="M 40.578125 39.3125 
Q 47.65625 37.796875 51.625 33 
Q 55.609375 28.21875 55.609375 21.1875 
Q 55.609375 10.40625 48.1875 4.484375 
Q 40.765625 -1.421875 27.09375 -1.421875 
Q 22.515625 -1.421875 17.65625 -0.515625 
Q 12.796875 0.390625 7.625 2.203125 
L 7.625 11.71875 
Q 11.71875 9.328125 16.59375 8.109375 
Q 21.484375 6.890625 26.8125 6.890625 
Q 36.078125 6.890625 40.9375 10.546875 
Q 45.796875 14.203125 45.796875 21.1875 
Q 45.796875 27.640625 41.28125 31.265625 
Q 36.765625 34.90625 28.71875 34.90625 
L 20.21875 34.90625 
L 20.21875 43.015625 
L 29.109375 43.015625 
Q 36.375 43.015625 40.234375 45.921875 
Q 44.09375 48.828125 44.09375 54.296875 
Q 44.09375 59.90625 40.109375 62.90625 
Q 36.140625 65.921875 28.71875 65.921875 
Q 24.65625 65.921875 20.015625 65.03125 
Q 15.375 64.15625 9.8125 62.3125 
L 9.8125 71.09375 
Q 15.4375 72.65625 20.34375 73.4375 
Q 25.25 74.21875 29.59375 74.21875 
Q 40.828125 74.21875 47.359375 69.109375 
Q 53.90625 64.015625 53.90625 55.328125 
Q 53.90625 49.265625 50.4375 45.09375 
Q 46.96875 40.921875 40.578125 39.3125 
z
" id="DejaVuSans-51"/>
       </defs>
       <use xlink:href="#DejaVuSans-51"/>
       <use x="63.623047" xlink:href="#DejaVuSans-48"/>
       <use x="127.246094" xlink:href="#DejaVuSans-48"/>
      </g>
     </g>
    </g>
    <g id="xtick_4">
     <g id="line2d_4">
      <g>
       <use style="stroke:#000000;stroke-width:0.8;" x="260.030769" xlink:href="#md99670ef6e" y="252"/>
      </g>
     </g>
     <g id="text_4">
      <!-- 350 -->
      <g transform="translate(250.487019 266.598437)scale(0.1 -0.1)">
       <use xlink:href="#DejaVuSans-51"/>
       <use x="63.623047" xlink:href="#DejaVuSans-53"/>
       <use x="127.246094" xlink:href="#DejaVuSans-48"/>
      </g>
     </g>
    </g>
    <g id="xtick_5">
     <g id="line2d_5">
      <g>
       <use style="stroke:#000000;stroke-width:0.8;" x="324.415385" xlink:href="#md99670ef6e" y="252"/>
      </g>
     </g>
     <g id="text_5">
      <!-- 400 -->
      <g transform="translate(314.871635 266.598437)scale(0.1 -0.1)">
       <defs>
        <path d="M 37.796875 64.3125 
L 12.890625 25.390625 
L 37.796875 25.390625 
z
M 35.203125 72.90625 
L 47.609375 72.90625 
L 47.609375 25.390625 
L 58.015625 25.390625 
L 58.015625 17.1875 
L 47.609375 17.1875 
L 47.609375 0 
L 37.796875 0 
L 37.796875 17.1875 
L 4.890625 17.1875 
L 4.890625 26.703125 
z
" id="DejaVuSans-52"/>
       </defs>
       <use xlink:href="#DejaVuSans-52"/>
       <use x="63.623047" xlink:href="#DejaVuSans-48"/>
       <use x="127.246094" xlink:href="#DejaVuSans-48"/>
      </g>
     </g>
    </g>
    <g id="xtick_6">
     <g id="line2d_6">
      <g>
       <use style="stroke:#000000;stroke-width:0.8;" x="388.8" xlink:href="#md99670ef6e" y="252"/>
      </g>
     </g>
     <g id="text_6">
      <!-- 450 -->
      <g transform="translate(379.25625 266.598437)scale(0.1 -0.1)">
       <use xlink:href="#DejaVuSans-52"/>
       <use x="63.623047" xlink:href="#DejaVuSans-53"/>
       <use x="127.246094" xlink:href="#DejaVuSans-48"/>
      </g>
     </g>
    </g>
    <g id="text_7">
     <!-- Wavelength (nm) -->
     <g transform="translate(178.207812 280.276563)scale(0.1 -0.1)">
      <defs>
       <path d="M 3.328125 72.90625 
L 13.28125 72.90625 
L 28.609375 11.28125 
L 43.890625 72.90625 
L 54.984375 72.90625 
L 70.3125 11.28125 
L 85.59375 72.90625 
L 95.609375 72.90625 
L 77.296875 0 
L 64.890625 0 
L 49.515625 63.28125 
L 33.984375 0 
L 21.578125 0 
z
" id="DejaVuSans-87"/>
       <path d="M 34.28125 27.484375 
Q 23.390625 27.484375 19.1875 25 
Q 14.984375 22.515625 14.984375 16.5 
Q 14.984375 11.71875 18.140625 8.90625 
Q 21.296875 6.109375 26.703125 6.109375 
Q 34.1875 6.109375 38.703125 11.40625 
Q 43.21875 16.703125 43.21875 25.484375 
L 43.21875 27.484375 
z
M 52.203125 31.203125 
L 52.203125 0 
L 43.21875 0 
L 43.21875 8.296875 
Q 40.140625 3.328125 35.546875 0.953125 
Q 30.953125 -1.421875 24.3125 -1.421875 
Q 15.921875 -1.421875 10.953125 3.296875 
Q 6 8.015625 6 15.921875 
Q 6 25.140625 12.171875 29.828125 
Q 18.359375 34.515625 30.609375 34.515625 
L 43.21875 34.515625 
L 43.21875 35.40625 
Q 43.21875 41.609375 39.140625 45 
Q 35.0625 48.390625 27.6875 48.390625 
Q 23 48.390625 18.546875 47.265625 
Q 14.109375 46.140625 10.015625 43.890625 
L 10.015625 52.203125 
Q 14.9375 54.109375 19.578125 55.046875 
Q 24.21875 56 28.609375 56 
Q 40.484375 56 46.34375 49.84375 
Q 52.203125 43.703125 52.203125 31.203125 
z
" id="DejaVuSans-97"/>
       <path d="M 2.984375 54.6875 
L 12.5 54.6875 
L 29.59375 8.796875 
L 46.6875 54.6875 
L 56.203125 54.6875 
L 35.6875 0 
L 23.484375 0 
z
" id="DejaVuSans-118"/>
       <path d="M 56.203125 29.59375 
L 56.203125 25.203125 
L 14.890625 25.203125 
Q 15.484375 15.921875 20.484375 11.0625 
Q 25.484375 6.203125 34.421875 6.203125 
Q 39.59375 6.203125 44.453125 7.46875 
Q 49.3125 8.734375 54.109375 11.28125 
L 54.109375 2.78125 
Q 49.265625 0.734375 44.1875 -0.34375 
Q 39.109375 -1.421875 33.890625 -1.421875 
Q 20.796875 -1.421875 13.15625 6.1875 
Q 5.515625 13.8125 5.515625 26.8125 
Q 5.515625 40.234375 12.765625 48.109375 
Q 20.015625 56 32.328125 56 
Q 43.359375 56 49.78125 48.890625 
Q 56.203125 41.796875 56.203125 29.59375 
z
M 47.21875 32.234375 
Q 47.125 39.59375 43.09375 43.984375 
Q 39.0625 48.390625 32.421875 48.390625 
Q 24.90625 48.390625 20.390625 44.140625 
Q 15.875 39.890625 15.1875 32.171875 
z
" id="DejaVuSans-101"/>
       <path d="M 9.421875 75.984375 
L 18.40625 75.984375 
L 18.40625 0 
L 9.421875 0 
z
" id="DejaVuSans-108"/>
       <path d="M 54.890625 33.015625 
L 54.890625 0 
L 45.90625 0 
L 45.90625 32.71875 
Q 45.90625 40.484375 42.875 44.328125 
Q 39.84375 48.1875 33.796875 48.1875 
Q 26.515625 48.1875 22.3125 43.546875 
Q 18.109375 38.921875 18.109375 30.90625 
L 18.109375 0 
L 9.078125 0 
L 9.078125 54.6875 
L 18.109375 54.6875 
L 18.109375 46.1875 
Q 21.34375 51.125 25.703125 53.5625 
Q 30.078125 56 35.796875 56 
Q 45.21875 56 50.046875 50.171875 
Q 54.890625 44.34375 54.890625 33.015625 
z
" id="DejaVuSans-110"/>
       <path d="M 45.40625 27.984375 
Q 45.40625 37.75 41.375 43.109375 
Q 37.359375 48.484375 30.078125 48.484375 
Q 22.859375 48.484375 18.828125 43.109375 
Q 14.796875 37.75 14.796875 27.984375 
Q 14.796875 18.265625 18.828125 12.890625 
Q 22.859375 7.515625 30.078125 7.515625 
Q 37.359375 7.515625 41.375 12.890625 
Q 45.40625 18.265625 45.40625 27.984375 
z
M 54.390625 6.78125 
Q 54.390625 -7.171875 48.1875 -13.984375 
Q 42 -20.796875 29.203125 -20.796875 
Q 24.46875 -20.796875 20.265625 -20.09375 
Q 16.0625 -19.390625 12.109375 -17.921875 
L 12.109375 -9.1875 
Q 16.0625 -11.328125 19.921875 -12.34375 
Q 23.78125 -13.375 27.78125 -13.375 
Q 36.625 -13.375 41.015625 -8.765625 
Q 45.40625 -4.15625 45.40625 5.171875 
L 45.40625 9.625 
Q 42.625 4.78125 38.28125 2.390625 
Q 33.9375 0 27.875 0 
Q 17.828125 0 11.671875 7.65625 
Q 5.515625 15.328125 5.515625 27.984375 
Q 5.515625 40.671875 11.671875 48.328125 
Q 17.828125 56 27.875 56 
Q 33.9375 56 38.28125 53.609375 
Q 42.625 51.21875 45.40625 46.390625 
L 45.40625 54.6875 
L 54.390625 54.6875 
z
" id="DejaVuSans-103"/>
       <path d="M 18.3125 70.21875 
L 18.3125 54.6875 
L 36.8125 54.6875 
L 36.8125 47.703125 
L 18.3125 47.703125 
L 18.3125 18.015625 
Q 18.3125 11.328125 20.140625 9.421875 
Q 21.96875 7.515625 27.59375 7.515625 
L 36.8125 7.515625 
L 36.8125 0 
L 27.59375 0 
Q 17.1875 0 13.234375 3.875 
Q 9.28125 7.765625 9.28125 18.015625 
L 9.28125 47.703125 
L 2.6875 47.703125 
L 2.6875 54.6875 
L 9.28125 54.6875 
L 9.28125 70.21875 
z
" id="DejaVuSans-116"/>
       <path d="M 54.890625 33.015625 
L 54.890625 0 
L 45.90625 0 
L 45.90625 32.71875 
Q 45.90625 40.484375 42.875 44.328125 
Q 39.84375 48.1875 33.796875 48.1875 
Q 26.515625 48.1875 22.3125 43.546875 
Q 18.109375 38.921875 18.109375 30.90625 
L 18.109375 0 
L 9.078125 0 
L 9.078125 75.984375 
L 18.109375 75.984375 
L 18.109375 46.1875 
Q 21.34375 51.125 25.703125 53.5625 
Q 30.078125 56 35.796875 56 
Q 45.21875 56 50.046875 50.171875 
Q 54.890625 44.34375 54.890625 33.015625 
z
" id="DejaVuSans-104"/>
       <path id="DejaVuSans-32"/>
       <path d="M 31 75.875 
Q 24.46875 64.65625 21.28125 53.65625 
Q 18.109375 42.671875 18.109375 31.390625 
Q 18.109375 20.125 21.3125 9.0625 
Q 24.515625 -2 31 -13.1875 
L 23.1875 -13.1875 
Q 15.875 -1.703125 12.234375 9.375 
Q 8.59375 20.453125 8.59375 31.390625 
Q 8.59375 42.28125 12.203125 53.3125 
Q 15.828125 64.359375 23.1875 75.875 
z
" id="DejaVuSans-40"/>
       <path d="M 52 44.1875 
Q 55.375 50.25 60.0625 53.125 
Q 64.75 56 71.09375 56 
Q 79.640625 56 84.28125 50.015625 
Q 88.921875 44.046875 88.921875 33.015625 
L 88.921875 0 
L 79.890625 0 
L 79.890625 32.71875 
Q 79.890625 40.578125 77.09375 44.375 
Q 74.3125 48.1875 68.609375 48.1875 
Q 61.625 48.1875 57.5625 43.546875 
Q 53.515625 38.921875 53.515625 30.90625 
L 53.515625 0 
L 44.484375 0 
L 44.484375 32.71875 
Q 44.484375 40.625 41.703125 44.40625 
Q 38.921875 48.1875 33.109375 48.1875 
Q 26.21875 48.1875 22.15625 43.53125 
Q 18.109375 38.875 18.109375 30.90625 
L 18.109375 0 
L 9.078125 0 
L 9.078125 54.6875 
L 18.109375 54.6875 
L 18.109375 46.1875 
Q 21.1875 51.21875 25.484375 53.609375 
Q 29.78125 56 35.6875 56 
Q 41.65625 56 45.828125 52.96875 
Q 50 49.953125 52 44.1875 
z
" id="DejaVuSans-109"/>
       <path d="M 8.015625 75.875 
L 15.828125 75.875 
Q 23.140625 64.359375 26.78125 53.3125 
Q 30.421875 42.28125 30.421875 31.390625 
Q 30.421875 20.453125 26.78125 9.375 
Q 23.140625 -1.703125 15.828125 -13.1875 
L 8.015625 -13.1875 
Q 14.5 -2 17.703125 9.0625 
Q 20.90625 20.125 20.90625 31.390625 
Q 20.90625 42.671875 17.703125 53.65625 
Q 14.5 64.65625 8.015625 75.875 
z
" id="DejaVuSans-41"/>
      </defs>
      <use xlink:href="#DejaVuSans-87"/>
      <use x="92.501953" xlink:href="#DejaVuSans-97"/>
      <use x="153.78125" xlink:href="#DejaVuSans-118"/>
      <use x="212.960938" xlink:href="#DejaVuSans-101"/>
      <use x="274.484375" xlink:href="#DejaVuSans-108"/>
      <use x="302.267578" xlink:href="#DejaVuSans-101"/>
      <use x="363.791016" xlink:href="#DejaVuSans-110"/>
      <use x="427.169922" xlink:href="#DejaVuSans-103"/>
      <use x="490.646484" xlink:href="#DejaVuSans-116"/>
      <use x="529.855469" xlink:href="#DejaVuSans-104"/>
      <use x="593.234375" xlink:href="#DejaVuSans-32"/>
      <use x="625.021484" xlink:href="#DejaVuSans-40"/>
      <use x="664.035156" xlink:href="#DejaVuSans-110"/>
      <use x="727.414062" xlink:href="#DejaVuSans-109"/>
      <use x="824.826172" xlink:href="#DejaVuSans-41"/>
     </g>
    </g>
   </g>
   <g id="matplotlib.axis_2">
    <g id="ytick_1">
     <g id="line2d_7">
      <defs>
       <path d="M 0 0 
L -3.5 0 
" id="m0f9ed16c28" style="stroke:#000000;stroke-width:0.8;"/>
      </defs>
      <g>
       <use style="stroke:#000000;stroke-width:0.8;" x="54" xlink:href="#m0f9ed16c28" y="235.73367"/>
      </g>
     </g>
     <g id="text_8">
      <!-- −3 -->
      <g transform="translate(32.257812 239.532889)scale(0.1 -0.1)">
       <defs>
        <path d="M 10.59375 35.5 
L 73.1875 35.5 
L 73.1875 27.203125 
L 10.59375 27.203125 
z
" id="DejaVuSans-8722"/>
       </defs>
       <use xlink:href="#DejaVuSans-8722"/>
       <use x="83.789062" xlink:href="#DejaVuSans-51"/>
      </g>
     </g>
    </g>
    <g id="ytick_2">
     <g id="line2d_8">
      <g>
       <use style="stroke:#000000;stroke-width:0.8;" x="54" xlink:href="#m0f9ed16c28" y="204.91578"/>
      </g>
     </g>
     <g id="text_9">
      <!-- −2 -->
      <g transform="translate(32.257812 208.714999)scale(0.1 -0.1)">
       <use xlink:href="#DejaVuSans-8722"/>
       <use x="83.789062" xlink:href="#DejaVuSans-50"/>
      </g>
     </g>
    </g>
    <g id="ytick_3">
     <g id="line2d_9">
      <g>
       <use style="stroke:#000000;stroke-width:0.8;" x="54" xlink:href="#m0f9ed16c28" y="174.09789"/>
      </g>
     </g>
     <g id="text_10">
      <!-- −1 -->
      <g transform="translate(32.257812 177.897109)scale(0.1 -0.1)">
       <defs>
        <path d="M 12.40625 8.296875 
L 28.515625 8.296875 
L 28.515625 63.921875 
L 10.984375 60.40625 
L 10.984375 69.390625 
L 28.421875 72.90625 
L 38.28125 72.90625 
L 38.28125 8.296875 
L 54.390625 8.296875 
L 54.390625 0 
L 12.40625 0 
z
" id="DejaVuSans-49"/>
       </defs>
       <use xlink:href="#DejaVuSans-8722"/>
       <use x="83.789062" xlink:href="#DejaVuSans-49"/>
      </g>
     </g>
    </g>
    <g id="ytick_4">
     <g id="line2d_10">
      <g>
       <use style="stroke:#000000;stroke-width:0.8;" x="54" xlink:href="#m0f9ed16c28" y="143.28"/>
      </g>
     </g>
     <g id="text_11">
      <!-- 0 -->
      <g transform="translate(40.6375 147.079219)scale(0.1 -0.1)">
       <use xlink:href="#DejaVuSans-48"/>
      </g>
     </g>
    </g>
    <g id="ytick_5">
     <g id="line2d_11">
      <g>
       <use style="stroke:#000000;stroke-width:0.8;" x="54" xlink:href="#m0f9ed16c28" y="112.46211"/>
      </g>
     </g>
     <g id="text_12">
      <!-- 1 -->
      <g transform="translate(40.6375 116.261329)scale(0.1 -0.1)">
       <use xlink:href="#DejaVuSans-49"/>
      </g>
     </g>
    </g>
    <g id="ytick_6">
     <g id="line2d_12">
      <g>
       <use style="stroke:#000000;stroke-width:0.8;" x="54" xlink:href="#m0f9ed16c28" y="81.64422"/>
      </g>
     </g>
     <g id="text_13">
      <!-- 2 -->
      <g transform="translate(40.6375 85.443438)scale(0.1 -0.1)">
       <use xlink:href="#DejaVuSans-50"/>
      </g>
     </g>
    </g>
    <g id="ytick_7">
     <g id="line2d_13">
      <g>
       <use style="stroke:#000000;stroke-width:0.8;" x="54" xlink:href="#m0f9ed16c28" y="50.82633"/>
      </g>
     </g>
     <g id="text_14">
      <!-- 3 -->
      <g transform="translate(40.6375 54.625548)scale(0.1 -0.1)">
       <use xlink:href="#DejaVuSans-51"/>
      </g>
     </g>
    </g>
    <g id="text_15">
     <!-- CD (mDeg) -->
     <g transform="translate(26.178125 171.083125)rotate(-90)scale(0.1 -0.1)">
      <defs>
       <path d="M 64.40625 67.28125 
L 64.40625 56.890625 
Q 59.421875 61.53125 53.78125 63.8125 
Q 48.140625 66.109375 41.796875 66.109375 
Q 29.296875 66.109375 22.65625 58.46875 
Q 16.015625 50.828125 16.015625 36.375 
Q 16.015625 21.96875 22.65625 14.328125 
Q 29.296875 6.6875 41.796875 6.6875 
Q 48.140625 6.6875 53.78125 8.984375 
Q 59.421875 11.28125 64.40625 15.921875 
L 64.40625 5.609375 
Q 59.234375 2.09375 53.4375 0.328125 
Q 47.65625 -1.421875 41.21875 -1.421875 
Q 24.65625 -1.421875 15.125 8.703125 
Q 5.609375 18.84375 5.609375 36.375 
Q 5.609375 53.953125 15.125 64.078125 
Q 24.65625 74.21875 41.21875 74.21875 
Q 47.75 74.21875 53.53125 72.484375 
Q 59.328125 70.75 64.40625 67.28125 
z
" id="DejaVuSans-67"/>
       <path d="M 19.671875 64.796875 
L 19.671875 8.109375 
L 31.59375 8.109375 
Q 46.6875 8.109375 53.6875 14.9375 
Q 60.6875 21.78125 60.6875 36.53125 
Q 60.6875 51.171875 53.6875 57.984375 
Q 46.6875 64.796875 31.59375 64.796875 
z
M 9.8125 72.90625 
L 30.078125 72.90625 
Q 51.265625 72.90625 61.171875 64.09375 
Q 71.09375 55.28125 71.09375 36.53125 
Q 71.09375 17.671875 61.125 8.828125 
Q 51.171875 0 30.078125 0 
L 9.8125 0 
z
" id="DejaVuSans-68"/>
      </defs>
      <use xlink:href="#DejaVuSans-67"/>
      <use x="69.824219" xlink:href="#DejaVuSans-68"/>
      <use x="146.826172" xlink:href="#DejaVuSans-32"/>
      <use x="178.613281" xlink:href="#DejaVuSans-40"/>
      <use x="217.626953" xlink:href="#DejaVuSans-109"/>
      <use x="315.039062" xlink:href="#DejaVuSans-68"/>
      <use x="392.041016" xlink:href="#DejaVuSans-101"/>
      <use x="453.564453" xlink:href="#DejaVuSans-103"/>
      <use x="517.041016" xlink:href="#DejaVuSans-41"/>
     </g>
    </g>
   </g>
   <g id="line2d_14">
    <path clip-path="url(#pab12e1757c)" d="M 54 143.28 
L 388.8 143.28 
" style="fill:none;stroke:#d1d1d1;stroke-linecap:square;stroke-width:1.5;"/>
   </g>
   <g id="line2d_15">
    <path clip-path="url(#pab12e1757c)" d="M 388.8 138.438263 
L 388.156154 139.478213 
L 387.512308 136.508385 
L 386.868462 135.916928 
L 386.224615 138.52933 
L 385.580769 138.491516 
L 384.936923 140.320083 
L 384.293077 139.989358 
L 383.649231 139.121002 
L 383.005385 139.071848 
L 382.361538 140.660553 
L 381.717692 140.944691 
L 381.073846 138.992615 
L 380.43 135.871841 
L 379.786154 136.770645 
L 379.142308 136.190344 
L 378.498462 141.004006 
L 377.854615 141.344507 
L 377.210769 143.584498 
L 376.566923 144.665369 
L 374.635385 139.992964 
L 373.991538 141.857357 
L 373.347692 142.049294 
L 372.703846 141.226666 
L 372.06 141.599131 
L 371.416154 141.839298 
L 370.772308 141.172133 
L 369.484615 135.767924 
L 368.840769 134.174669 
L 368.196923 137.087638 
L 366.909231 139.206954 
L 366.265385 139.539663 
L 364.977692 143.045631 
L 364.333846 141.632784 
L 363.69 138.982661 
L 363.046154 135.018032 
L 362.402308 133.943073 
L 361.758462 134.687633 
L 361.114615 139.089537 
L 360.470769 141.296998 
L 359.826923 142.91683 
L 359.183077 142.03782 
L 358.539231 142.725614 
L 357.895385 143.086996 
L 357.251538 140.31049 
L 356.607692 141.957456 
L 355.963846 142.670783 
L 355.32 141.562843 
L 354.676154 141.711299 
L 354.032308 139.833081 
L 353.388462 139.976661 
L 352.744615 139.603364 
L 352.100769 139.539818 
L 351.456923 140.379318 
L 350.813077 140.4473 
L 350.169231 141.224564 
L 349.525385 145.132744 
L 348.881538 146.472456 
L 348.237692 145.315762 
L 346.95 137.944252 
L 346.306154 137.202928 
L 345.662308 137.379483 
L 343.730769 141.298345 
L 343.086923 139.447641 
L 342.443077 139.533192 
L 341.799231 136.402125 
L 341.155385 136.532392 
L 340.511538 137.646058 
L 339.867692 137.899689 
L 339.223846 139.662072 
L 338.58 139.961283 
L 337.936154 137.05078 
L 337.292308 141.404417 
L 336.648462 142.199081 
L 336.004615 141.980277 
L 335.360769 138.735686 
L 334.716923 136.267975 
L 334.073077 135.116248 
L 333.429231 134.560479 
L 332.785385 133.613414 
L 332.141538 134.664828 
L 331.497692 135.212431 
L 330.853846 137.120706 
L 330.21 137.618661 
L 329.566154 136.754158 
L 328.922308 136.170683 
L 328.278462 137.13482 
L 327.634615 137.171401 
L 326.990769 136.398735 
L 326.346923 138.046321 
L 325.703077 139.370504 
L 325.059231 142.218863 
L 324.415385 139.167692 
L 323.127692 134.927735 
L 322.483846 135.415398 
L 321.84 138.195973 
L 321.196154 137.873864 
L 320.552308 137.843663 
L 319.908462 138.239919 
L 319.264615 138.086353 
L 318.620769 140.922465 
L 317.333077 140.268402 
L 316.689231 136.674185 
L 316.045385 134.080983 
L 315.401538 130.571349 
L 314.757692 130.576527 
L 314.113846 131.502728 
L 313.47 131.736605 
L 312.826154 134.069704 
L 312.182308 133.403174 
L 311.538462 133.421264 
L 310.894615 132.529056 
L 310.250769 132.733039 
L 309.606923 134.580017 
L 308.963077 135.881487 
L 308.319231 134.302872 
L 307.675385 133.157494 
L 307.031538 131.366975 
L 306.387692 130.059156 
L 305.743846 130.102609 
L 305.1 130.581365 
L 304.456154 131.89581 
L 303.168462 128.305865 
L 302.524615 129.012796 
L 301.880769 130.200271 
L 301.236923 130.576927 
L 300.593077 129.164389 
L 299.949231 129.019545 
L 299.305385 130.923444 
L 298.661538 131.269929 
L 298.017692 130.409617 
L 296.73 124.124678 
L 296.086154 123.707003 
L 295.442308 122.288055 
L 294.798462 124.354826 
L 294.154615 124.656626 
L 293.510769 123.604965 
L 292.866923 122.806443 
L 292.223077 122.405964 
L 291.579231 121.672036 
L 290.935385 121.412118 
L 290.291538 119.523999 
L 289.647692 121.918056 
L 289.003846 121.174574 
L 288.36 123.625428 
L 287.716154 124.64547 
L 287.072308 123.338483 
L 285.784615 122.315113 
L 284.496923 123.923838 
L 283.853077 121.968227 
L 283.209231 120.393001 
L 282.565385 119.310739 
L 281.921538 117.567802 
L 281.277692 117.045285 
L 280.633846 117.595107 
L 279.99 118.524205 
L 278.702308 124.87004 
L 278.058462 122.936679 
L 276.770769 116.791284 
L 276.126923 115.834173 
L 275.483077 116.428033 
L 274.839231 116.449822 
L 274.195385 112.546859 
L 273.551538 114.34684 
L 272.907692 114.474919 
L 271.62 120.788487 
L 270.976154 119.749 
L 270.332308 117.417041 
L 269.688462 118.086837 
L 269.044615 119.068325 
L 268.400769 119.520978 
L 267.756923 120.802694 
L 267.113077 118.341115 
L 266.469231 119.171195 
L 265.825385 118.336339 
L 265.181538 118.30022 
L 264.537692 117.01949 
L 263.893846 117.700473 
L 263.25 118.930384 
L 261.962308 118.535484 
L 261.318462 118.62575 
L 260.674615 120.778657 
L 260.030769 121.554867 
L 258.743077 118.820087 
L 258.099231 117.874625 
L 257.455385 118.873649 
L 256.811538 120.13749 
L 255.523846 124.041347 
L 254.88 122.878772 
L 254.236154 126.411088 
L 253.592308 124.014689 
L 252.948462 123.93296 
L 252.304615 121.026032 
L 251.660769 123.10664 
L 251.016923 123.7438 
L 250.373077 124.636871 
L 249.729231 124.603896 
L 249.085385 126.555408 
L 248.441538 125.153102 
L 247.797692 123.358145 
L 247.153846 120.694554 
L 246.51 122.206542 
L 245.222308 126.941803 
L 244.578462 126.677416 
L 243.934615 126.238261 
L 243.290769 126.788022 
L 242.646923 125.311537 
L 242.003077 126.055604 
L 241.359231 126.031689 
L 240.715385 127.129607 
L 240.071538 127.385642 
L 239.427692 128.476873 
L 238.783846 131.444482 
L 238.14 133.337902 
L 237.496154 134.055404 
L 236.852308 133.046765 
L 236.208462 132.520119 
L 235.564615 131.109029 
L 234.920769 130.909391 
L 234.276923 129.210647 
L 233.633077 128.633736 
L 232.989231 130.822238 
L 232.345385 130.832469 
L 231.057692 135.727521 
L 230.413846 135.814274 
L 229.77 135.219458 
L 229.126154 134.085421 
L 228.482308 133.303417 
L 227.838462 136.535012 
L 227.194615 138.929716 
L 226.550769 142.431648 
L 225.906923 141.412538 
L 224.619231 142.098075 
L 223.975385 141.42647 
L 223.331538 139.155919 
L 222.687692 134.960341 
L 222.043846 133.065318 
L 220.756154 138.454103 
L 220.112308 142.250763 
L 219.468462 141.58256 
L 218.180769 142.66906 
L 217.536923 145.05851 
L 216.893077 145.169346 
L 216.249231 143.860467 
L 215.605385 144.336058 
L 214.961538 145.068495 
L 214.317692 144.861398 
L 213.673846 143.174117 
L 213.03 143.104787 
L 212.386154 145.28545 
L 211.742308 144.944708 
L 211.098462 147.313261 
L 210.454615 147.078367 
L 209.810769 148.481628 
L 209.166923 150.578971 
L 208.523077 150.373569 
L 207.879231 148.185592 
L 207.235385 148.597966 
L 206.591538 148.541353 
L 205.947692 149.67012 
L 204.66 144.346764 
L 204.016154 140.846663 
L 203.372308 140.173526 
L 202.084615 142.084044 
L 201.440769 144.350182 
L 200.796923 143.936412 
L 200.153077 145.8014 
L 199.509231 142.772716 
L 198.865385 140.57533 
L 198.221538 139.173424 
L 197.577692 139.613411 
L 196.933846 140.555064 
L 196.29 140.585379 
L 195.646154 140.353361 
L 194.358462 137.299326 
L 193.714615 136.565737 
L 193.070769 139.390936 
L 192.426923 141.25336 
L 191.783077 141.775206 
L 190.495385 139.001059 
L 189.851538 136.904518 
L 189.207692 136.744974 
L 188.563846 136.723771 
L 187.92 136.180329 
L 187.276154 136.186769 
L 185.988462 133.010739 
L 185.344615 130.548975 
L 184.700769 130.299012 
L 184.056923 131.682796 
L 183.413077 133.756132 
L 182.769231 134.349222 
L 182.125385 133.137524 
L 180.837692 128.626802 
L 180.193846 125.620332 
L 179.55 125.063206 
L 178.906154 125.709704 
L 178.262308 124.013241 
L 177.618462 123.700192 
L 176.974615 119.972522 
L 176.330769 117.778751 
L 175.686923 118.274148 
L 175.043077 120.692767 
L 174.399231 124.841841 
L 173.755385 126.377281 
L 173.111538 128.378317 
L 172.467692 126.949631 
L 171.823846 125.10139 
L 171.18 127.110284 
L 170.536154 126.970001 
L 169.892308 132.979552 
L 169.248462 130.910408 
L 168.604615 135.257518 
L 167.960769 133.83783 
L 167.316923 137.370885 
L 166.673077 140.026617 
L 166.029231 140.910755 
L 165.385385 139.875301 
L 164.741538 140.485844 
L 164.097692 141.582452 
L 163.453846 145.270102 
L 162.166154 149.732218 
L 161.522308 151.658244 
L 160.878462 156.49656 
L 160.234615 159.250324 
L 159.590769 161.384339 
L 158.946923 160.238191 
L 158.303077 164.030487 
L 157.659231 165.786675 
L 157.015385 171.053298 
L 156.371538 171.566324 
L 155.727692 173.512997 
L 154.44 167.647305 
L 153.796154 166.70625 
L 153.152308 169.42747 
L 152.508462 173.040806 
L 151.864615 174.888369 
L 151.220769 178.123015 
L 149.933077 179.187773 
L 149.289231 178.485433 
L 148.645385 179.278069 
L 148.001538 178.573572 
L 147.357692 179.647576 
L 146.713846 179.797351 
L 146.07 179.155414 
L 145.426154 179.182226 
L 144.782308 177.505732 
L 144.138462 178.377262 
L 143.494615 180.300915 
L 142.850769 183.195023 
L 141.563077 176.561164 
L 140.919231 174.896073 
L 140.275385 175.637552 
L 139.631538 173.000157 
L 138.987692 172.457731 
L 138.343846 164.818562 
L 137.7 166.534718 
L 137.056154 168.727041 
L 136.412308 175.498871 
L 135.768462 175.587627 
L 135.124615 172.220094 
L 133.193077 149.132718 
L 132.549231 145.591986 
L 131.905385 147.080801 
L 131.261538 150.256123 
L 130.617692 151.069006 
L 129.973846 147.465747 
L 128.042308 131.279113 
L 127.398462 123.392014 
L 126.754615 118.985055 
L 126.110769 112.810814 
L 125.466923 109.458598 
L 124.823077 104.843927 
L 124.179231 108.869052 
L 123.535385 105.116974 
L 122.891538 105.312668 
L 121.603846 96.751458 
L 120.96 97.520672 
L 120.316154 93.788934 
L 119.672308 87.905182 
L 119.028462 85.452695 
L 118.384615 85.674892 
L 117.740769 88.383168 
L 117.096923 94.577256 
L 116.453077 97.875078 
L 115.809231 96.236183 
L 115.165385 92.530023 
L 114.521538 82.180143 
L 113.877692 75.500365 
L 113.233846 76.389461 
L 112.59 70.632371 
L 111.946154 73.873797 
L 111.302308 70.79848 
L 110.658462 73.75484 
L 110.014615 64.463554 
L 109.370769 69.468688 
L 108.726923 63.829938 
L 108.083077 70.565496 
L 107.439231 73.021066 
L 106.151538 57.8035 
L 105.507692 56.93875 
L 104.863846 54.155278 
L 104.22 47.777516 
L 103.576154 45.548458 
L 102.932308 45.125636 
L 102.288462 44.443636 
L 101.644615 47.646232 
L 101.000769 44.963842 
L 100.356923 58.816176 
L 99.713077 59.101549 
L 99.069231 66.353924 
L 98.425385 76.628608 
L 97.781538 80.75574 
L 97.137692 79.912562 
L 96.493846 77.398131 
L 95.85 75.796525 
L 95.206154 90.685881 
L 93.918462 106.690227 
L 92.630769 114.79903 
L 91.986923 110.469117 
L 91.343077 116.223803 
L 90.699231 126.887841 
L 90.055385 134.792168 
L 89.411538 139.623766 
L 88.123846 133.661736 
L 87.48 123.021552 
L 86.836154 127.503243 
L 86.192308 126.277 
L 85.548462 133.489495 
L 84.904615 135.695563 
L 84.260769 143.738848 
L 83.616923 145.988119 
L 82.973077 140.857665 
L 82.329231 145.002566 
L 81.685385 135.673867 
L 81.041538 146.008964 
L 80.397692 146.09281 
L 79.753846 153.920678 
L 79.11 153.684859 
L 78.466154 150.019472 
L 77.822308 148.033382 
L 77.178462 142.469129 
L 76.534615 143.982904 
L 75.890769 140.310582 
L 75.246923 135.780775 
L 74.603077 138.991629 
L 73.959231 144.752081 
L 73.315385 152.654771 
L 72.671538 153.977783 
L 71.383846 137.731855 
L 70.74 132.47648 
L 70.096154 133.418491 
L 69.452308 142.071458 
L 68.808462 145.002535 
L 68.164615 134.43052 
L 67.520769 135.107866 
L 66.876923 134.868997 
L 66.233077 133.74701 
L 65.589231 142.590576 
L 64.945385 144.86403 
L 64.301538 148.556423 
L 63.657692 149.652677 
L 63.013846 153.406574 
L 62.37 147.986477 
L 61.726154 157.807923 
L 61.082308 162.134632 
L 60.438462 158.375897 
L 59.794615 155.762293 
L 59.150769 143.150087 
L 58.506923 138.633987 
L 57.863077 128.436409 
L 57.219231 124.964527 
L 56.575385 124.379049 
L 55.931538 110.092522 
L 55.287692 110.082969 
L 54.643846 90.360135 
L 54 87.201302 
L 54 87.201302 
" style="fill:none;stroke:#800080;stroke-linecap:square;stroke-width:1.5;"/>
   </g>
   <g id="line2d_16">
    <path clip-path="url(#pab12e1757c)" d="M 104.22 47.777516 
" style="fill:none;stroke:#ff0000;stroke-linecap:square;stroke-width:1.5;"/>
    <defs>
     <path d="M 0 1.5 
C 0.397805 1.5 0.77937 1.341951 1.06066 1.06066 
C 1.341951 0.77937 1.5 0.397805 1.5 0 
C 1.5 -0.397805 1.341951 -0.77937 1.06066 -1.06066 
C 0.77937 -1.341951 0.397805 -1.5 0 -1.5 
C -0.397805 -1.5 -0.77937 -1.341951 -1.06066 -1.06066 
C -1.341951 -0.77937 -1.5 -0.397805 -1.5 0 
C -1.5 0.397805 -1.341951 0.77937 -1.06066 1.06066 
C -0.77937 1.341951 -0.397805 1.5 0 1.5 
z
" id="m9b7a71359c" style="stroke:#ff0000;"/>
    </defs>
    <g clip-path="url(#pab12e1757c)">
     <use style="fill:#ff0000;stroke:#ff0000;" x="104.22" xlink:href="#m9b7a71359c" y="47.777516"/>
    </g>
   </g>
   <g id="patch_3">
    <path d="M 54 252 
L 54 34.56 
" style="fill:none;stroke:#000000;stroke-linecap:square;stroke-linejoin:miter;stroke-width:0.8;"/>
   </g>
   <g id="patch_4">
    <path d="M 388.8 252 
L 388.8 34.56 
" style="fill:none;stroke:#000000;stroke-linecap:square;stroke-linejoin:miter;stroke-width:0.8;"/>
   </g>
   <g id="patch_5">
    <path d="M 54 252 
L 388.8 252 
" style="fill:none;stroke:#000000;stroke-linecap:square;stroke-linejoin:miter;stroke-width:0.8;"/>
   </g>
   <g id="patch_6">
    <path d="M 54 34.56 
L 388.8 34.56 
" style="fill:none;stroke:#000000;stroke-linecap:square;stroke-linejoin:miter;stroke-width:0.8;"/>
   </g>
   <g id="text_16">
    <!-- 229 nm, 3.1 mDeg -->
    <g transform="translate(111.592038 45.389954)scale(0.1 -0.1)">
     <defs>
      <path d="M 10.984375 1.515625 
L 10.984375 10.5 
Q 14.703125 8.734375 18.5 7.8125 
Q 22.3125 6.890625 25.984375 6.890625 
Q 35.75 6.890625 40.890625 13.453125 
Q 46.046875 20.015625 46.78125 33.40625 
Q 43.953125 29.203125 39.59375 26.953125 
Q 35.25 24.703125 29.984375 24.703125 
Q 19.046875 24.703125 12.671875 31.3125 
Q 6.296875 37.9375 6.296875 49.421875 
Q 6.296875 60.640625 12.9375 67.421875 
Q 19.578125 74.21875 30.609375 74.21875 
Q 43.265625 74.21875 49.921875 64.515625 
Q 56.59375 54.828125 56.59375 36.375 
Q 56.59375 19.140625 48.40625 8.859375 
Q 40.234375 -1.421875 26.421875 -1.421875 
Q 22.703125 -1.421875 18.890625 -0.6875 
Q 15.09375 0.046875 10.984375 1.515625 
z
M 30.609375 32.421875 
Q 37.25 32.421875 41.125 36.953125 
Q 45.015625 41.5 45.015625 49.421875 
Q 45.015625 57.28125 41.125 61.84375 
Q 37.25 66.40625 30.609375 66.40625 
Q 23.96875 66.40625 20.09375 61.84375 
Q 16.21875 57.28125 16.21875 49.421875 
Q 16.21875 41.5 20.09375 36.953125 
Q 23.96875 32.421875 30.609375 32.421875 
z
" id="DejaVuSans-57"/>
      <path d="M 11.71875 12.40625 
L 22.015625 12.40625 
L 22.015625 4 
L 14.015625 -11.625 
L 7.71875 -11.625 
L 11.71875 4 
z
" id="DejaVuSans-44"/>
      <path d="M 10.6875 12.40625 
L 21 12.40625 
L 21 0 
L 10.6875 0 
z
" id="DejaVuSans-46"/>
     </defs>
     <use xlink:href="#DejaVuSans-50"/>
     <use x="63.623047" xlink:href="#DejaVuSans-50"/>
     <use x="127.246094" xlink:href="#DejaVuSans-57"/>
     <use x="190.869141" xlink:href="#DejaVuSans-32"/>
     <use x="222.65625" xlink:href="#DejaVuSans-110"/>
     <use x="286.035156" xlink:href="#DejaVuSans-109"/>
     <use x="383.447266" xlink:href="#DejaVuSans-44"/>
     <use x="415.234375" xlink:href="#DejaVuSans-32"/>
     <use x="447.021484" xlink:href="#DejaVuSans-51"/>
     <use x="510.644531" xlink:href="#DejaVuSans-46"/>
     <use x="542.431641" xlink:href="#DejaVuSans-49"/>
     <use x="606.054688" xlink:href="#DejaVuSans-32"/>
     <use x="637.841797" xlink:href="#DejaVuSans-109"/>
     <use x="735.253906" xlink:href="#DejaVuSans-68"/>
     <use x="812.255859" xlink:href="#DejaVuSans-101"/>
     <use x="873.779297" xlink:href="#DejaVuSans-103"/>
    </g>
   </g>
   <g id="text_17">
    <!-- R-4ClMBA -->
    <g transform="translate(192.234375 28.56)scale(0.12 -0.12)">
     <defs>
      <path d="M 44.390625 34.1875 
Q 47.5625 33.109375 50.5625 29.59375 
Q 53.5625 26.078125 56.59375 19.921875 
L 66.609375 0 
L 56 0 
L 46.6875 18.703125 
Q 43.0625 26.03125 39.671875 28.421875 
Q 36.28125 30.8125 30.421875 30.8125 
L 19.671875 30.8125 
L 19.671875 0 
L 9.8125 0 
L 9.8125 72.90625 
L 32.078125 72.90625 
Q 44.578125 72.90625 50.734375 67.671875 
Q 56.890625 62.453125 56.890625 51.90625 
Q 56.890625 45.015625 53.6875 40.46875 
Q 50.484375 35.9375 44.390625 34.1875 
z
M 19.671875 64.796875 
L 19.671875 38.921875 
L 32.078125 38.921875 
Q 39.203125 38.921875 42.84375 42.21875 
Q 46.484375 45.515625 46.484375 51.90625 
Q 46.484375 58.296875 42.84375 61.546875 
Q 39.203125 64.796875 32.078125 64.796875 
z
" id="DejaVuSans-82"/>
      <path d="M 4.890625 31.390625 
L 31.203125 31.390625 
L 31.203125 23.390625 
L 4.890625 23.390625 
z
" id="DejaVuSans-45"/>
      <path d="M 9.8125 72.90625 
L 24.515625 72.90625 
L 43.109375 23.296875 
L 61.8125 72.90625 
L 76.515625 72.90625 
L 76.515625 0 
L 66.890625 0 
L 66.890625 64.015625 
L 48.09375 14.015625 
L 38.1875 14.015625 
L 19.390625 64.015625 
L 19.390625 0 
L 9.8125 0 
z
" id="DejaVuSans-77"/>
      <path d="M 19.671875 34.8125 
L 19.671875 8.109375 
L 35.5 8.109375 
Q 43.453125 8.109375 47.28125 11.40625 
Q 51.125 14.703125 51.125 21.484375 
Q 51.125 28.328125 47.28125 31.5625 
Q 43.453125 34.8125 35.5 34.8125 
z
M 19.671875 64.796875 
L 19.671875 42.828125 
L 34.28125 42.828125 
Q 41.5 42.828125 45.03125 45.53125 
Q 48.578125 48.25 48.578125 53.8125 
Q 48.578125 59.328125 45.03125 62.0625 
Q 41.5 64.796875 34.28125 64.796875 
z
M 9.8125 72.90625 
L 35.015625 72.90625 
Q 46.296875 72.90625 52.390625 68.21875 
Q 58.5 63.53125 58.5 54.890625 
Q 58.5 48.1875 55.375 44.234375 
Q 52.25 40.28125 46.1875 39.3125 
Q 53.46875 37.75 57.5 32.78125 
Q 61.53125 27.828125 61.53125 20.40625 
Q 61.53125 10.640625 54.890625 5.3125 
Q 48.25 0 35.984375 0 
L 9.8125 0 
z
" id="DejaVuSans-66"/>
      <path d="M 34.1875 63.1875 
L 20.796875 26.90625 
L 47.609375 26.90625 
z
M 28.609375 72.90625 
L 39.796875 72.90625 
L 67.578125 0 
L 57.328125 0 
L 50.6875 18.703125 
L 17.828125 18.703125 
L 11.1875 0 
L 0.78125 0 
z
" id="DejaVuSans-65"/>
     </defs>
     <use xlink:href="#DejaVuSans-82"/>
     <use x="65.482422" xlink:href="#DejaVuSans-45"/>
     <use x="101.566406" xlink:href="#DejaVuSans-52"/>
     <use x="165.189453" xlink:href="#DejaVuSans-67"/>
     <use x="235.013672" xlink:href="#DejaVuSans-108"/>
     <use x="262.796875" xlink:href="#DejaVuSans-77"/>
     <use x="349.076172" xlink:href="#DejaVuSans-66"/>
     <use x="417.679688" xlink:href="#DejaVuSans-65"/>
    </g>
   </g>
  </g>
 </g>
 <defs>
  <clipPath id="pab12e1757c">
   <rect height="217.44" width="334.8" x="54" y="34.56"/>
  </clipPath>
 </defs>
</svg>
