<?xml version="1.0" encoding="utf-8" standalone="no"?>
<!DOCTYPE svg PUBLIC "-//W3C//DTD SVG 1.1//EN"
  "http://www.w3.org/Graphics/SVG/1.1/DTD/svg11.dtd">
<!-- Created with matplotlib (https://matplotlib.org/) -->
<svg height="288pt" version="1.1" viewBox="0 0 432 288" width="432pt" xmlns="http://www.w3.org/2000/svg" xmlns:xlink="http://www.w3.org/1999/xlink">
 <metadata>
  <rdf:RDF xmlns:cc="http://creativecommons.org/ns#" xmlns:dc="http://purl.org/dc/elements/1.1/" xmlns:rdf="http://www.w3.org/1999/02/22-rdf-syntax-ns#">
   <cc:Work>
    <dc:type rdf:resource="http://purl.org/dc/dcmitype/StillImage"/>
    <dc:date>2021-08-06T16:49:05.747764</dc:date>
    <dc:format>image/svg+xml</dc:format>
    <dc:creator>
     <cc:Agent>
      <dc:title>Matplotlib v3.3.4, https://matplotlib.org/</dc:title>
     </cc:Agent>
    </dc:creator>
   </cc:Work>
  </rdf:RDF>
 </metadata>
 <defs>
  <style type="text/css">*{stroke-linecap:butt;stroke-linejoin:round;}</style>
 </defs>
 <g id="figure_1">
  <g id="patch_1">
   <path d="M 0 288 
L 432 288 
L 432 0 
L 0 0 
z
" style="fill:#ffffff;"/>
  </g>
  <g id="axes_1">
   <g id="patch_2">
    <path d="M 54 252 
L 388.8 252 
L 388.8 34.56 
L 54 34.56 
z
" style="fill:#ffffff;"/>
   </g>
   <g id="matplotlib.axis_1">
    <g id="xtick_1">
     <g id="line2d_1">
      <defs>
       <path d="M 0 0 
L 0 3.5 
" id="md01c88203f" style="stroke:#000000;stroke-width:0.8;"/>
      </defs>
      <g>
       <use style="stroke:#000000;stroke-width:0.8;" x="66.876923" xlink:href="#md01c88203f" y="252"/>
      </g>
     </g>
     <g id="text_1">
      <!-- 200 -->
      <g transform="translate(57.333173 266.598437)scale(0.1 -0.1)">
       <defs>
        <path d="M 19.1875 8.296875 
L 53.609375 8.296875 
L 53.609375 0 
L 7.328125 0 
L 7.328125 8.296875 
Q 12.9375 14.109375 22.625 23.890625 
Q 32.328125 33.6875 34.8125 36.53125 
Q 39.546875 41.84375 41.421875 45.53125 
Q 43.3125 49.21875 43.3125 52.78125 
Q 43.3125 58.59375 39.234375 62.25 
Q 35.15625 65.921875 28.609375 65.921875 
Q 23.96875 65.921875 18.8125 64.3125 
Q 13.671875 62.703125 7.8125 59.421875 
L 7.8125 69.390625 
Q 13.765625 71.78125 18.9375 73 
Q 24.125 74.21875 28.421875 74.21875 
Q 39.75 74.21875 46.484375 68.546875 
Q 53.21875 62.890625 53.21875 53.421875 
Q 53.21875 48.921875 51.53125 44.890625 
Q 49.859375 40.875 45.40625 35.40625 
Q 44.1875 33.984375 37.640625 27.21875 
Q 31.109375 20.453125 19.1875 8.296875 
z
" id="DejaVuSans-50"/>
        <path d="M 31.78125 66.40625 
Q 24.171875 66.40625 20.328125 58.90625 
Q 16.5 51.421875 16.5 36.375 
Q 16.5 21.390625 20.328125 13.890625 
Q 24.171875 6.390625 31.78125 6.390625 
Q 39.453125 6.390625 43.28125 13.890625 
Q 47.125 21.390625 47.125 36.375 
Q 47.125 51.421875 43.28125 58.90625 
Q 39.453125 66.40625 31.78125 66.40625 
z
M 31.78125 74.21875 
Q 44.046875 74.21875 50.515625 64.515625 
Q 56.984375 54.828125 56.984375 36.375 
Q 56.984375 17.96875 50.515625 8.265625 
Q 44.046875 -1.421875 31.78125 -1.421875 
Q 19.53125 -1.421875 13.0625 8.265625 
Q 6.59375 17.96875 6.59375 36.375 
Q 6.59375 54.828125 13.0625 64.515625 
Q 19.53125 74.21875 31.78125 74.21875 
z
" id="DejaVuSans-48"/>
       </defs>
       <use xlink:href="#DejaVuSans-50"/>
       <use x="63.623047" xlink:href="#DejaVuSans-48"/>
       <use x="127.246094" xlink:href="#DejaVuSans-48"/>
      </g>
     </g>
    </g>
    <g id="xtick_2">
     <g id="line2d_2">
      <g>
       <use style="stroke:#000000;stroke-width:0.8;" x="131.261538" xlink:href="#md01c88203f" y="252"/>
      </g>
     </g>
     <g id="text_2">
      <!-- 250 -->
      <g transform="translate(121.717788 266.598437)scale(0.1 -0.1)">
       <defs>
        <path d="M 10.796875 72.90625 
L 49.515625 72.90625 
L 49.515625 64.59375 
L 19.828125 64.59375 
L 19.828125 46.734375 
Q 21.96875 47.46875 24.109375 47.828125 
Q 26.265625 48.1875 28.421875 48.1875 
Q 40.625 48.1875 47.75 41.5 
Q 54.890625 34.8125 54.890625 23.390625 
Q 54.890625 11.625 47.5625 5.09375 
Q 40.234375 -1.421875 26.90625 -1.421875 
Q 22.3125 -1.421875 17.546875 -0.640625 
Q 12.796875 0.140625 7.71875 1.703125 
L 7.71875 11.625 
Q 12.109375 9.234375 16.796875 8.0625 
Q 21.484375 6.890625 26.703125 6.890625 
Q 35.15625 6.890625 40.078125 11.328125 
Q 45.015625 15.765625 45.015625 23.390625 
Q 45.015625 31 40.078125 35.4375 
Q 35.15625 39.890625 26.703125 39.890625 
Q 22.75 39.890625 18.8125 39.015625 
Q 14.890625 38.140625 10.796875 36.28125 
z
" id="DejaVuSans-53"/>
       </defs>
       <use xlink:href="#DejaVuSans-50"/>
       <use x="63.623047" xlink:href="#DejaVuSans-53"/>
       <use x="127.246094" xlink:href="#DejaVuSans-48"/>
      </g>
     </g>
    </g>
    <g id="xtick_3">
     <g id="line2d_3">
      <g>
       <use style="stroke:#000000;stroke-width:0.8;" x="195.646154" xlink:href="#md01c88203f" y="252"/>
      </g>
     </g>
     <g id="text_3">
      <!-- 300 -->
      <g transform="translate(186.102404 266.598437)scale(0.1 -0.1)">
       <defs>
        <path d="M 40.578125 39.3125 
Q 47.65625 37.796875 51.625 33 
Q 55.609375 28.21875 55.609375 21.1875 
Q 55.609375 10.40625 48.1875 4.484375 
Q 40.765625 -1.421875 27.09375 -1.421875 
Q 22.515625 -1.421875 17.65625 -0.515625 
Q 12.796875 0.390625 7.625 2.203125 
L 7.625 11.71875 
Q 11.71875 9.328125 16.59375 8.109375 
Q 21.484375 6.890625 26.8125 6.890625 
Q 36.078125 6.890625 40.9375 10.546875 
Q 45.796875 14.203125 45.796875 21.1875 
Q 45.796875 27.640625 41.28125 31.265625 
Q 36.765625 34.90625 28.71875 34.90625 
L 20.21875 34.90625 
L 20.21875 43.015625 
L 29.109375 43.015625 
Q 36.375 43.015625 40.234375 45.921875 
Q 44.09375 48.828125 44.09375 54.296875 
Q 44.09375 59.90625 40.109375 62.90625 
Q 36.140625 65.921875 28.71875 65.921875 
Q 24.65625 65.921875 20.015625 65.03125 
Q 15.375 64.15625 9.8125 62.3125 
L 9.8125 71.09375 
Q 15.4375 72.65625 20.34375 73.4375 
Q 25.25 74.21875 29.59375 74.21875 
Q 40.828125 74.21875 47.359375 69.109375 
Q 53.90625 64.015625 53.90625 55.328125 
Q 53.90625 49.265625 50.4375 45.09375 
Q 46.96875 40.921875 40.578125 39.3125 
z
" id="DejaVuSans-51"/>
       </defs>
       <use xlink:href="#DejaVuSans-51"/>
       <use x="63.623047" xlink:href="#DejaVuSans-48"/>
       <use x="127.246094" xlink:href="#DejaVuSans-48"/>
      </g>
     </g>
    </g>
    <g id="xtick_4">
     <g id="line2d_4">
      <g>
       <use style="stroke:#000000;stroke-width:0.8;" x="260.030769" xlink:href="#md01c88203f" y="252"/>
      </g>
     </g>
     <g id="text_4">
      <!-- 350 -->
      <g transform="translate(250.487019 266.598437)scale(0.1 -0.1)">
       <use xlink:href="#DejaVuSans-51"/>
       <use x="63.623047" xlink:href="#DejaVuSans-53"/>
       <use x="127.246094" xlink:href="#DejaVuSans-48"/>
      </g>
     </g>
    </g>
    <g id="xtick_5">
     <g id="line2d_5">
      <g>
       <use style="stroke:#000000;stroke-width:0.8;" x="324.415385" xlink:href="#md01c88203f" y="252"/>
      </g>
     </g>
     <g id="text_5">
      <!-- 400 -->
      <g transform="translate(314.871635 266.598437)scale(0.1 -0.1)">
       <defs>
        <path d="M 37.796875 64.3125 
L 12.890625 25.390625 
L 37.796875 25.390625 
z
M 35.203125 72.90625 
L 47.609375 72.90625 
L 47.609375 25.390625 
L 58.015625 25.390625 
L 58.015625 17.1875 
L 47.609375 17.1875 
L 47.609375 0 
L 37.796875 0 
L 37.796875 17.1875 
L 4.890625 17.1875 
L 4.890625 26.703125 
z
" id="DejaVuSans-52"/>
       </defs>
       <use xlink:href="#DejaVuSans-52"/>
       <use x="63.623047" xlink:href="#DejaVuSans-48"/>
       <use x="127.246094" xlink:href="#DejaVuSans-48"/>
      </g>
     </g>
    </g>
    <g id="xtick_6">
     <g id="line2d_6">
      <g>
       <use style="stroke:#000000;stroke-width:0.8;" x="388.8" xlink:href="#md01c88203f" y="252"/>
      </g>
     </g>
     <g id="text_6">
      <!-- 450 -->
      <g transform="translate(379.25625 266.598437)scale(0.1 -0.1)">
       <use xlink:href="#DejaVuSans-52"/>
       <use x="63.623047" xlink:href="#DejaVuSans-53"/>
       <use x="127.246094" xlink:href="#DejaVuSans-48"/>
      </g>
     </g>
    </g>
    <g id="text_7">
     <!-- Wavelength (nm) -->
     <g transform="translate(178.207812 280.276563)scale(0.1 -0.1)">
      <defs>
       <path d="M 3.328125 72.90625 
L 13.28125 72.90625 
L 28.609375 11.28125 
L 43.890625 72.90625 
L 54.984375 72.90625 
L 70.3125 11.28125 
L 85.59375 72.90625 
L 95.609375 72.90625 
L 77.296875 0 
L 64.890625 0 
L 49.515625 63.28125 
L 33.984375 0 
L 21.578125 0 
z
" id="DejaVuSans-87"/>
       <path d="M 34.28125 27.484375 
Q 23.390625 27.484375 19.1875 25 
Q 14.984375 22.515625 14.984375 16.5 
Q 14.984375 11.71875 18.140625 8.90625 
Q 21.296875 6.109375 26.703125 6.109375 
Q 34.1875 6.109375 38.703125 11.40625 
Q 43.21875 16.703125 43.21875 25.484375 
L 43.21875 27.484375 
z
M 52.203125 31.203125 
L 52.203125 0 
L 43.21875 0 
L 43.21875 8.296875 
Q 40.140625 3.328125 35.546875 0.953125 
Q 30.953125 -1.421875 24.3125 -1.421875 
Q 15.921875 -1.421875 10.953125 3.296875 
Q 6 8.015625 6 15.921875 
Q 6 25.140625 12.171875 29.828125 
Q 18.359375 34.515625 30.609375 34.515625 
L 43.21875 34.515625 
L 43.21875 35.40625 
Q 43.21875 41.609375 39.140625 45 
Q 35.0625 48.390625 27.6875 48.390625 
Q 23 48.390625 18.546875 47.265625 
Q 14.109375 46.140625 10.015625 43.890625 
L 10.015625 52.203125 
Q 14.9375 54.109375 19.578125 55.046875 
Q 24.21875 56 28.609375 56 
Q 40.484375 56 46.34375 49.84375 
Q 52.203125 43.703125 52.203125 31.203125 
z
" id="DejaVuSans-97"/>
       <path d="M 2.984375 54.6875 
L 12.5 54.6875 
L 29.59375 8.796875 
L 46.6875 54.6875 
L 56.203125 54.6875 
L 35.6875 0 
L 23.484375 0 
z
" id="DejaVuSans-118"/>
       <path d="M 56.203125 29.59375 
L 56.203125 25.203125 
L 14.890625 25.203125 
Q 15.484375 15.921875 20.484375 11.0625 
Q 25.484375 6.203125 34.421875 6.203125 
Q 39.59375 6.203125 44.453125 7.46875 
Q 49.3125 8.734375 54.109375 11.28125 
L 54.109375 2.78125 
Q 49.265625 0.734375 44.1875 -0.34375 
Q 39.109375 -1.421875 33.890625 -1.421875 
Q 20.796875 -1.421875 13.15625 6.1875 
Q 5.515625 13.8125 5.515625 26.8125 
Q 5.515625 40.234375 12.765625 48.109375 
Q 20.015625 56 32.328125 56 
Q 43.359375 56 49.78125 48.890625 
Q 56.203125 41.796875 56.203125 29.59375 
z
M 47.21875 32.234375 
Q 47.125 39.59375 43.09375 43.984375 
Q 39.0625 48.390625 32.421875 48.390625 
Q 24.90625 48.390625 20.390625 44.140625 
Q 15.875 39.890625 15.1875 32.171875 
z
" id="DejaVuSans-101"/>
       <path d="M 9.421875 75.984375 
L 18.40625 75.984375 
L 18.40625 0 
L 9.421875 0 
z
" id="DejaVuSans-108"/>
       <path d="M 54.890625 33.015625 
L 54.890625 0 
L 45.90625 0 
L 45.90625 32.71875 
Q 45.90625 40.484375 42.875 44.328125 
Q 39.84375 48.1875 33.796875 48.1875 
Q 26.515625 48.1875 22.3125 43.546875 
Q 18.109375 38.921875 18.109375 30.90625 
L 18.109375 0 
L 9.078125 0 
L 9.078125 54.6875 
L 18.109375 54.6875 
L 18.109375 46.1875 
Q 21.34375 51.125 25.703125 53.5625 
Q 30.078125 56 35.796875 56 
Q 45.21875 56 50.046875 50.171875 
Q 54.890625 44.34375 54.890625 33.015625 
z
" id="DejaVuSans-110"/>
       <path d="M 45.40625 27.984375 
Q 45.40625 37.75 41.375 43.109375 
Q 37.359375 48.484375 30.078125 48.484375 
Q 22.859375 48.484375 18.828125 43.109375 
Q 14.796875 37.75 14.796875 27.984375 
Q 14.796875 18.265625 18.828125 12.890625 
Q 22.859375 7.515625 30.078125 7.515625 
Q 37.359375 7.515625 41.375 12.890625 
Q 45.40625 18.265625 45.40625 27.984375 
z
M 54.390625 6.78125 
Q 54.390625 -7.171875 48.1875 -13.984375 
Q 42 -20.796875 29.203125 -20.796875 
Q 24.46875 -20.796875 20.265625 -20.09375 
Q 16.0625 -19.390625 12.109375 -17.921875 
L 12.109375 -9.1875 
Q 16.0625 -11.328125 19.921875 -12.34375 
Q 23.78125 -13.375 27.78125 -13.375 
Q 36.625 -13.375 41.015625 -8.765625 
Q 45.40625 -4.15625 45.40625 5.171875 
L 45.40625 9.625 
Q 42.625 4.78125 38.28125 2.390625 
Q 33.9375 0 27.875 0 
Q 17.828125 0 11.671875 7.65625 
Q 5.515625 15.328125 5.515625 27.984375 
Q 5.515625 40.671875 11.671875 48.328125 
Q 17.828125 56 27.875 56 
Q 33.9375 56 38.28125 53.609375 
Q 42.625 51.21875 45.40625 46.390625 
L 45.40625 54.6875 
L 54.390625 54.6875 
z
" id="DejaVuSans-103"/>
       <path d="M 18.3125 70.21875 
L 18.3125 54.6875 
L 36.8125 54.6875 
L 36.8125 47.703125 
L 18.3125 47.703125 
L 18.3125 18.015625 
Q 18.3125 11.328125 20.140625 9.421875 
Q 21.96875 7.515625 27.59375 7.515625 
L 36.8125 7.515625 
L 36.8125 0 
L 27.59375 0 
Q 17.1875 0 13.234375 3.875 
Q 9.28125 7.765625 9.28125 18.015625 
L 9.28125 47.703125 
L 2.6875 47.703125 
L 2.6875 54.6875 
L 9.28125 54.6875 
L 9.28125 70.21875 
z
" id="DejaVuSans-116"/>
       <path d="M 54.890625 33.015625 
L 54.890625 0 
L 45.90625 0 
L 45.90625 32.71875 
Q 45.90625 40.484375 42.875 44.328125 
Q 39.84375 48.1875 33.796875 48.1875 
Q 26.515625 48.1875 22.3125 43.546875 
Q 18.109375 38.921875 18.109375 30.90625 
L 18.109375 0 
L 9.078125 0 
L 9.078125 75.984375 
L 18.109375 75.984375 
L 18.109375 46.1875 
Q 21.34375 51.125 25.703125 53.5625 
Q 30.078125 56 35.796875 56 
Q 45.21875 56 50.046875 50.171875 
Q 54.890625 44.34375 54.890625 33.015625 
z
" id="DejaVuSans-104"/>
       <path id="DejaVuSans-32"/>
       <path d="M 31 75.875 
Q 24.46875 64.65625 21.28125 53.65625 
Q 18.109375 42.671875 18.109375 31.390625 
Q 18.109375 20.125 21.3125 9.0625 
Q 24.515625 -2 31 -13.1875 
L 23.1875 -13.1875 
Q 15.875 -1.703125 12.234375 9.375 
Q 8.59375 20.453125 8.59375 31.390625 
Q 8.59375 42.28125 12.203125 53.3125 
Q 15.828125 64.359375 23.1875 75.875 
z
" id="DejaVuSans-40"/>
       <path d="M 52 44.1875 
Q 55.375 50.25 60.0625 53.125 
Q 64.75 56 71.09375 56 
Q 79.640625 56 84.28125 50.015625 
Q 88.921875 44.046875 88.921875 33.015625 
L 88.921875 0 
L 79.890625 0 
L 79.890625 32.71875 
Q 79.890625 40.578125 77.09375 44.375 
Q 74.3125 48.1875 68.609375 48.1875 
Q 61.625 48.1875 57.5625 43.546875 
Q 53.515625 38.921875 53.515625 30.90625 
L 53.515625 0 
L 44.484375 0 
L 44.484375 32.71875 
Q 44.484375 40.625 41.703125 44.40625 
Q 38.921875 48.1875 33.109375 48.1875 
Q 26.21875 48.1875 22.15625 43.53125 
Q 18.109375 38.875 18.109375 30.90625 
L 18.109375 0 
L 9.078125 0 
L 9.078125 54.6875 
L 18.109375 54.6875 
L 18.109375 46.1875 
Q 21.1875 51.21875 25.484375 53.609375 
Q 29.78125 56 35.6875 56 
Q 41.65625 56 45.828125 52.96875 
Q 50 49.953125 52 44.1875 
z
" id="DejaVuSans-109"/>
       <path d="M 8.015625 75.875 
L 15.828125 75.875 
Q 23.140625 64.359375 26.78125 53.3125 
Q 30.421875 42.28125 30.421875 31.390625 
Q 30.421875 20.453125 26.78125 9.375 
Q 23.140625 -1.703125 15.828125 -13.1875 
L 8.015625 -13.1875 
Q 14.5 -2 17.703125 9.0625 
Q 20.90625 20.125 20.90625 31.390625 
Q 20.90625 42.671875 17.703125 53.65625 
Q 14.5 64.65625 8.015625 75.875 
z
" id="DejaVuSans-41"/>
      </defs>
      <use xlink:href="#DejaVuSans-87"/>
      <use x="92.501953" xlink:href="#DejaVuSans-97"/>
      <use x="153.78125" xlink:href="#DejaVuSans-118"/>
      <use x="212.960938" xlink:href="#DejaVuSans-101"/>
      <use x="274.484375" xlink:href="#DejaVuSans-108"/>
      <use x="302.267578" xlink:href="#DejaVuSans-101"/>
      <use x="363.791016" xlink:href="#DejaVuSans-110"/>
      <use x="427.169922" xlink:href="#DejaVuSans-103"/>
      <use x="490.646484" xlink:href="#DejaVuSans-116"/>
      <use x="529.855469" xlink:href="#DejaVuSans-104"/>
      <use x="593.234375" xlink:href="#DejaVuSans-32"/>
      <use x="625.021484" xlink:href="#DejaVuSans-40"/>
      <use x="664.035156" xlink:href="#DejaVuSans-110"/>
      <use x="727.414062" xlink:href="#DejaVuSans-109"/>
      <use x="824.826172" xlink:href="#DejaVuSans-41"/>
     </g>
    </g>
   </g>
   <g id="matplotlib.axis_2">
    <g id="ytick_1">
     <g id="line2d_7">
      <defs>
       <path d="M 0 0 
L -3.5 0 
" id="m081bb0ea12" style="stroke:#000000;stroke-width:0.8;"/>
      </defs>
      <g>
       <use style="stroke:#000000;stroke-width:0.8;" x="54" xlink:href="#m081bb0ea12" y="235.662809"/>
      </g>
     </g>
     <g id="text_8">
      <!-- −3 -->
      <g transform="translate(32.257812 239.462027)scale(0.1 -0.1)">
       <defs>
        <path d="M 10.59375 35.5 
L 73.1875 35.5 
L 73.1875 27.203125 
L 10.59375 27.203125 
z
" id="DejaVuSans-8722"/>
       </defs>
       <use xlink:href="#DejaVuSans-8722"/>
       <use x="83.789062" xlink:href="#DejaVuSans-51"/>
      </g>
     </g>
    </g>
    <g id="ytick_2">
     <g id="line2d_8">
      <g>
       <use style="stroke:#000000;stroke-width:0.8;" x="54" xlink:href="#m081bb0ea12" y="204.868539"/>
      </g>
     </g>
     <g id="text_9">
      <!-- −2 -->
      <g transform="translate(32.257812 208.667758)scale(0.1 -0.1)">
       <use xlink:href="#DejaVuSans-8722"/>
       <use x="83.789062" xlink:href="#DejaVuSans-50"/>
      </g>
     </g>
    </g>
    <g id="ytick_3">
     <g id="line2d_9">
      <g>
       <use style="stroke:#000000;stroke-width:0.8;" x="54" xlink:href="#m081bb0ea12" y="174.07427"/>
      </g>
     </g>
     <g id="text_10">
      <!-- −1 -->
      <g transform="translate(32.257812 177.873488)scale(0.1 -0.1)">
       <defs>
        <path d="M 12.40625 8.296875 
L 28.515625 8.296875 
L 28.515625 63.921875 
L 10.984375 60.40625 
L 10.984375 69.390625 
L 28.421875 72.90625 
L 38.28125 72.90625 
L 38.28125 8.296875 
L 54.390625 8.296875 
L 54.390625 0 
L 12.40625 0 
z
" id="DejaVuSans-49"/>
       </defs>
       <use xlink:href="#DejaVuSans-8722"/>
       <use x="83.789062" xlink:href="#DejaVuSans-49"/>
      </g>
     </g>
    </g>
    <g id="ytick_4">
     <g id="line2d_10">
      <g>
       <use style="stroke:#000000;stroke-width:0.8;" x="54" xlink:href="#m081bb0ea12" y="143.28"/>
      </g>
     </g>
     <g id="text_11">
      <!-- 0 -->
      <g transform="translate(40.6375 147.079219)scale(0.1 -0.1)">
       <use xlink:href="#DejaVuSans-48"/>
      </g>
     </g>
    </g>
    <g id="ytick_5">
     <g id="line2d_11">
      <g>
       <use style="stroke:#000000;stroke-width:0.8;" x="54" xlink:href="#m081bb0ea12" y="112.48573"/>
      </g>
     </g>
     <g id="text_12">
      <!-- 1 -->
      <g transform="translate(40.6375 116.284949)scale(0.1 -0.1)">
       <use xlink:href="#DejaVuSans-49"/>
      </g>
     </g>
    </g>
    <g id="ytick_6">
     <g id="line2d_12">
      <g>
       <use style="stroke:#000000;stroke-width:0.8;" x="54" xlink:href="#m081bb0ea12" y="81.691461"/>
      </g>
     </g>
     <g id="text_13">
      <!-- 2 -->
      <g transform="translate(40.6375 85.49068)scale(0.1 -0.1)">
       <use xlink:href="#DejaVuSans-50"/>
      </g>
     </g>
    </g>
    <g id="ytick_7">
     <g id="line2d_13">
      <g>
       <use style="stroke:#000000;stroke-width:0.8;" x="54" xlink:href="#m081bb0ea12" y="50.897191"/>
      </g>
     </g>
     <g id="text_14">
      <!-- 3 -->
      <g transform="translate(40.6375 54.69641)scale(0.1 -0.1)">
       <use xlink:href="#DejaVuSans-51"/>
      </g>
     </g>
    </g>
    <g id="text_15">
     <!-- CD (mDeg) -->
     <g transform="translate(26.178125 171.083125)rotate(-90)scale(0.1 -0.1)">
      <defs>
       <path d="M 64.40625 67.28125 
L 64.40625 56.890625 
Q 59.421875 61.53125 53.78125 63.8125 
Q 48.140625 66.109375 41.796875 66.109375 
Q 29.296875 66.109375 22.65625 58.46875 
Q 16.015625 50.828125 16.015625 36.375 
Q 16.015625 21.96875 22.65625 14.328125 
Q 29.296875 6.6875 41.796875 6.6875 
Q 48.140625 6.6875 53.78125 8.984375 
Q 59.421875 11.28125 64.40625 15.921875 
L 64.40625 5.609375 
Q 59.234375 2.09375 53.4375 0.328125 
Q 47.65625 -1.421875 41.21875 -1.421875 
Q 24.65625 -1.421875 15.125 8.703125 
Q 5.609375 18.84375 5.609375 36.375 
Q 5.609375 53.953125 15.125 64.078125 
Q 24.65625 74.21875 41.21875 74.21875 
Q 47.75 74.21875 53.53125 72.484375 
Q 59.328125 70.75 64.40625 67.28125 
z
" id="DejaVuSans-67"/>
       <path d="M 19.671875 64.796875 
L 19.671875 8.109375 
L 31.59375 8.109375 
Q 46.6875 8.109375 53.6875 14.9375 
Q 60.6875 21.78125 60.6875 36.53125 
Q 60.6875 51.171875 53.6875 57.984375 
Q 46.6875 64.796875 31.59375 64.796875 
z
M 9.8125 72.90625 
L 30.078125 72.90625 
Q 51.265625 72.90625 61.171875 64.09375 
Q 71.09375 55.28125 71.09375 36.53125 
Q 71.09375 17.671875 61.125 8.828125 
Q 51.171875 0 30.078125 0 
L 9.8125 0 
z
" id="DejaVuSans-68"/>
      </defs>
      <use xlink:href="#DejaVuSans-67"/>
      <use x="69.824219" xlink:href="#DejaVuSans-68"/>
      <use x="146.826172" xlink:href="#DejaVuSans-32"/>
      <use x="178.613281" xlink:href="#DejaVuSans-40"/>
      <use x="217.626953" xlink:href="#DejaVuSans-109"/>
      <use x="315.039062" xlink:href="#DejaVuSans-68"/>
      <use x="392.041016" xlink:href="#DejaVuSans-101"/>
      <use x="453.564453" xlink:href="#DejaVuSans-103"/>
      <use x="517.041016" xlink:href="#DejaVuSans-41"/>
     </g>
    </g>
   </g>
   <g id="line2d_14">
    <path clip-path="url(#pb3750929b4)" d="M 54 143.28 
L 388.8 143.28 
" style="fill:none;stroke:#d1d1d1;stroke-linecap:square;stroke-width:1.5;"/>
   </g>
   <g id="line2d_15">
    <path clip-path="url(#pb3750929b4)" d="M 388.8 150.208803 
L 388.156154 150.49325 
L 386.868462 147.51104 
L 386.224615 152.511814 
L 385.580769 151.35124 
L 384.936923 154.065785 
L 383.649231 151.691116 
L 383.005385 148.049755 
L 382.361538 148.779179 
L 381.717692 148.786231 
L 381.073846 147.784001 
L 380.43 147.936863 
L 379.786154 149.124106 
L 379.142308 148.244252 
L 378.498462 150.743299 
L 377.854615 149.522922 
L 377.210769 149.764996 
L 376.566923 151.085577 
L 375.923077 150.073616 
L 375.279231 148.70013 
L 374.635385 144.398463 
L 373.991538 145.906523 
L 373.347692 148.592812 
L 372.703846 149.612349 
L 372.06 149.186156 
L 371.416154 146.369312 
L 370.772308 148.343871 
L 370.128462 149.856455 
L 369.484615 151.999551 
L 368.840769 151.05854 
L 368.196923 147.758688 
L 367.553077 146.950061 
L 366.909231 146.882375 
L 366.265385 150.62625 
L 365.621538 150.617443 
L 364.977692 150.931514 
L 364.333846 149.825999 
L 363.69 145.067312 
L 363.046154 144.429288 
L 361.758462 151.267849 
L 361.114615 152.727805 
L 359.826923 147.715822 
L 359.183077 148.475024 
L 358.539231 146.085078 
L 357.895385 148.206498 
L 357.251538 146.507517 
L 356.607692 145.535252 
L 355.963846 146.238399 
L 355.32 147.163589 
L 354.676154 150.979522 
L 354.032308 152.738953 
L 353.388462 151.660784 
L 352.744615 149.66008 
L 352.100769 149.0316 
L 351.456923 148.130806 
L 350.813077 148.810312 
L 349.525385 149.601109 
L 348.881538 150.068196 
L 348.237692 148.421534 
L 347.593846 147.233738 
L 346.95 146.818077 
L 345.662308 146.433395 
L 345.018462 145.053919 
L 344.374615 144.488102 
L 343.730769 146.173229 
L 343.086923 149.773341 
L 342.443077 149.167372 
L 341.799231 148.916121 
L 341.155385 147.422353 
L 340.511538 148.898568 
L 339.867692 148.244591 
L 339.223846 149.307301 
L 338.58 149.862367 
L 337.936154 147.366307 
L 337.292308 146.935773 
L 336.648462 144.773085 
L 336.004615 145.347737 
L 335.360769 146.363954 
L 334.716923 147.143911 
L 334.073077 145.955828 
L 333.429231 143.805252 
L 332.785385 143.540112 
L 332.141538 142.689043 
L 331.497692 142.437657 
L 330.853846 143.390892 
L 330.21 142.281936 
L 329.566154 143.663943 
L 328.922308 143.438899 
L 328.278462 144.83771 
L 327.634615 148.266054 
L 326.990769 145.099575 
L 326.346923 143.905509 
L 325.703077 142.999542 
L 325.059231 142.554829 
L 324.415385 144.618541 
L 323.771538 141.259517 
L 323.127692 142.449106 
L 322.483846 145.93733 
L 321.84 147.202944 
L 321.196154 147.602099 
L 320.552308 145.430469 
L 319.908462 145.234072 
L 319.264615 147.364891 
L 318.620769 150.342296 
L 317.976923 150.14355 
L 316.045385 145.83355 
L 315.401538 146.882098 
L 314.757692 146.244383 
L 314.113846 144.425778 
L 313.47 144.625996 
L 312.826154 141.640969 
L 312.182308 141.897291 
L 311.538462 141.065282 
L 310.250769 145.314282 
L 309.606923 146.387049 
L 308.963077 144.01048 
L 308.319231 142.656952 
L 307.675385 140.511934 
L 306.387692 137.223722 
L 305.743846 131.63176 
L 305.1 131.644354 
L 303.812308 139.781648 
L 303.168462 145.183231 
L 302.524615 145.237564 
L 301.880769 144.320683 
L 301.236923 141.557753 
L 300.593077 140.567958 
L 299.949231 140.796479 
L 299.305385 140.560912 
L 298.661538 139.368327 
L 298.017692 139.13155 
L 297.373846 138.286771 
L 296.73 139.213771 
L 296.086154 139.286353 
L 294.154615 134.096348 
L 293.510769 134.540309 
L 292.866923 133.629538 
L 292.223077 131.273561 
L 290.935385 136.075681 
L 290.291538 135.613489 
L 289.647692 134.961636 
L 289.003846 134.492978 
L 288.36 132.973528 
L 287.716154 133.996606 
L 287.072308 133.611462 
L 286.428462 134.412297 
L 285.784615 134.052743 
L 285.140769 133.938866 
L 284.496923 132.712608 
L 283.853077 131.804054 
L 283.209231 129.617907 
L 282.565385 130.394754 
L 281.921538 130.820608 
L 281.277692 128.664701 
L 280.633846 127.783184 
L 279.99 125.822144 
L 279.346154 127.950767 
L 278.702308 129.243141 
L 278.058462 131.385991 
L 277.414615 129.155716 
L 276.770769 129.121288 
L 276.126923 132.038644 
L 275.483077 130.684466 
L 274.839231 128.907945 
L 274.195385 124.850122 
L 273.551538 124.248895 
L 272.263846 128.311275 
L 271.62 126.500664 
L 270.976154 128.498751 
L 270.332308 126.259391 
L 269.688462 125.523162 
L 269.044615 124.107426 
L 268.400769 124.210248 
L 267.756923 126.279377 
L 267.113077 125.007881 
L 266.469231 125.319058 
L 265.825385 127.477643 
L 265.181538 126.92929 
L 264.537692 128.035051 
L 263.893846 128.617894 
L 263.25 131.487581 
L 262.606154 131.146904 
L 261.962308 132.129395 
L 261.318462 130.402606 
L 260.674615 134.452392 
L 260.030769 136.020836 
L 259.386923 135.611241 
L 258.743077 136.794511 
L 258.099231 136.371983 
L 257.455385 138.726975 
L 256.811538 140.381933 
L 256.167692 137.997551 
L 255.523846 136.704222 
L 254.88 134.166128 
L 254.236154 135.311213 
L 253.592308 137.934915 
L 252.948462 139.885671 
L 252.304615 139.842836 
L 251.660769 140.603889 
L 251.016923 139.291372 
L 249.729231 140.083001 
L 249.085385 140.030496 
L 248.441538 142.963284 
L 247.153846 141.955917 
L 246.51 142.902669 
L 245.866154 141.989637 
L 245.222308 143.924241 
L 244.578462 141.394562 
L 243.934615 140.580944 
L 243.290769 140.874653 
L 242.646923 145.606359 
L 242.003077 149.06341 
L 241.359231 148.50628 
L 240.715385 147.440922 
L 240.071538 144.387796 
L 239.427692 142.737159 
L 238.783846 145.503346 
L 238.14 149.098208 
L 237.496154 151.923828 
L 236.852308 153.163298 
L 236.208462 151.948864 
L 235.564615 151.760927 
L 234.920769 150.527093 
L 234.276923 151.703618 
L 233.633077 150.488908 
L 232.989231 148.075684 
L 232.345385 148.980758 
L 231.057692 154.86853 
L 230.413846 155.082335 
L 229.77 156.338803 
L 229.126154 156.677478 
L 228.482308 158.793198 
L 227.838462 160.48636 
L 226.550769 155.147157 
L 225.906923 151.953914 
L 225.263077 153.175153 
L 224.619231 156.116037 
L 223.975385 158.511523 
L 223.331538 158.316441 
L 222.687692 160.149378 
L 222.043846 159.133783 
L 221.4 159.227921 
L 220.756154 162.09613 
L 220.112308 159.371915 
L 219.468462 161.29822 
L 218.824615 161.11909 
L 218.180769 163.818854 
L 217.536923 165.164995 
L 216.893077 165.493077 
L 216.249231 165.437124 
L 215.605385 168.670276 
L 214.961538 169.58545 
L 214.317692 171.140746 
L 213.673846 170.904923 
L 213.03 169.333738 
L 211.742308 174.320008 
L 211.098462 173.524992 
L 210.454615 172.527535 
L 209.810769 169.957722 
L 209.166923 168.208454 
L 208.523077 169.807077 
L 207.879231 170.17667 
L 206.591538 168.189053 
L 205.947692 167.997482 
L 205.303846 168.608379 
L 204.66 172.632205 
L 204.016154 172.27379 
L 203.372308 175.197337 
L 202.728462 173.62649 
L 202.084615 173.558373 
L 201.440769 170.59772 
L 200.153077 167.949998 
L 199.509231 169.005102 
L 198.221538 172.214819 
L 197.577692 175.336527 
L 196.933846 175.40489 
L 196.29 178.204705 
L 195.646154 179.915327 
L 195.002308 182.183325 
L 194.358462 183.728581 
L 193.714615 182.946099 
L 193.070769 179.365341 
L 192.426923 176.611409 
L 191.783077 176.680696 
L 191.139231 177.07086 
L 190.495385 176.006302 
L 189.851538 176.668687 
L 189.207692 177.150617 
L 188.563846 178.279535 
L 187.92 175.949641 
L 187.276154 177.340618 
L 186.632308 177.023437 
L 185.988462 179.047544 
L 185.344615 177.719695 
L 184.700769 174.719102 
L 184.056923 172.601626 
L 183.413077 171.060896 
L 182.769231 175.289411 
L 182.125385 175.732541 
L 181.481538 176.948607 
L 180.837692 174.008924 
L 180.193846 168.265331 
L 179.55 167.792331 
L 178.906154 164.49448 
L 178.262308 166.138155 
L 177.618462 163.125182 
L 176.974615 163.461302 
L 176.330769 161.168022 
L 175.686923 160.75467 
L 175.043077 158.401803 
L 174.399231 158.842408 
L 173.755385 157.258258 
L 173.111538 158.0481 
L 172.467692 156.986314 
L 171.823846 157.889972 
L 171.18 158.175989 
L 170.536154 159.610725 
L 169.892308 160.600791 
L 169.248462 158.504687 
L 168.604615 157.650885 
L 167.960769 154.209441 
L 167.316923 152.623135 
L 166.673077 152.054273 
L 165.385385 157.584031 
L 164.097692 164.669915 
L 163.453846 164.236825 
L 162.81 162.832606 
L 160.878462 152.051471 
L 160.234615 150.051875 
L 159.590769 149.866648 
L 158.946923 149.031353 
L 158.303077 151.672855 
L 157.659231 149.6 
L 157.015385 148.520661 
L 156.371538 149.773495 
L 155.727692 148.6342 
L 155.083846 152.019075 
L 154.44 152.031362 
L 153.796154 153.67673 
L 153.152308 149.408152 
L 152.508462 146.81974 
L 151.864615 145.037146 
L 151.220769 142.560483 
L 150.576923 144.237794 
L 149.933077 144.482759 
L 149.289231 146.894385 
L 148.645385 144.900441 
L 147.357692 139.880467 
L 146.07 148.510715 
L 144.138462 155.55746 
L 143.494615 155.015942 
L 142.850769 159.00186 
L 142.206923 154.26601 
L 141.563077 157.327391 
L 140.919231 155.236275 
L 140.275385 156.864522 
L 139.631538 156.209713 
L 138.987692 155.207544 
L 138.343846 153.997022 
L 137.7 153.291063 
L 137.056154 154.496382 
L 136.412308 156.526679 
L 135.768462 160.568888 
L 135.124615 162.437885 
L 134.480769 165.2563 
L 133.836923 162.823368 
L 133.193077 159.00882 
L 132.549231 153.956281 
L 131.905385 150.328747 
L 131.261538 145.697831 
L 130.617692 145.008655 
L 129.973846 144.010576 
L 129.33 141.019799 
L 128.686154 134.398871 
L 127.398462 124.197653 
L 126.754615 120.807112 
L 125.466923 104.8894 
L 123.535385 77.744867 
L 122.891538 71.869937 
L 122.247692 69.578843 
L 121.603846 64.898114 
L 120.96 64.2191 
L 120.316154 59.782878 
L 119.672308 61.209268 
L 119.028462 61.423905 
L 118.384615 61.831929 
L 117.740769 61.952334 
L 117.096923 57.246354 
L 116.453077 51.705541 
L 115.809231 53.64404 
L 115.165385 60.326397 
L 114.521538 57.261751 
L 113.877692 57.170908 
L 113.233846 44.443636 
L 112.59 46.985703 
L 111.302308 62.842904 
L 110.658462 63.844026 
L 110.014615 62.494929 
L 109.370769 62.705562 
L 108.726923 63.04122 
L 108.083077 61.843015 
L 107.439231 66.334051 
L 106.795385 66.117567 
L 106.151538 61.087323 
L 105.507692 62.420407 
L 104.863846 64.632359 
L 103.576154 80.590874 
L 102.932308 79.278422 
L 102.288462 70.369948 
L 101.644615 66.772253 
L 101.000769 71.754766 
L 100.356923 89.743239 
L 99.713077 95.80971 
L 99.069231 99.828054 
L 98.425385 91.28326 
L 97.781538 85.37076 
L 97.137692 86.953586 
L 96.493846 88.973998 
L 95.85 87.732373 
L 95.206154 85.269755 
L 94.562308 81.207991 
L 93.918462 84.27664 
L 93.274615 76.714799 
L 92.630769 75.716141 
L 91.986923 76.847214 
L 91.343077 78.469149 
L 90.699231 85.281149 
L 90.055385 89.28502 
L 89.411538 86.922176 
L 88.767692 89.173237 
L 88.123846 89.366317 
L 87.48 90.119237 
L 86.836154 96.2707 
L 86.192308 94.447987 
L 85.548462 91.423066 
L 84.904615 98.086638 
L 84.260769 95.343792 
L 83.616923 100.187115 
L 82.973077 98.098956 
L 82.329231 97.018385 
L 81.685385 101.011786 
L 81.041538 112.284028 
L 80.397692 114.023566 
L 79.753846 130.960352 
L 79.11 138.68066 
L 78.466154 134.589672 
L 77.822308 139.416335 
L 77.178462 135.03582 
L 76.534615 142.551445 
L 75.890769 146.656776 
L 75.246923 152.185888 
L 74.603077 151.798834 
L 73.959231 158.803299 
L 73.315385 163.800655 
L 72.671538 179.381354 
L 72.027692 182.982744 
L 71.383846 185.055814 
L 70.74 173.184469 
L 70.096154 168.109173 
L 69.452308 170.654258 
L 68.808462 175.523756 
L 68.164615 171.47046 
L 67.520769 165.46607 
L 66.876923 158.255992 
L 66.233077 157.909187 
L 65.589231 157.259798 
L 64.945385 161.902003 
L 64.301538 157.613316 
L 63.657692 160.563776 
L 63.013846 161.262591 
L 62.37 174.045354 
L 61.726154 172.876003 
L 61.082308 172.681506 
L 60.438462 160.353082 
L 59.794615 161.507621 
L 59.150769 158.435923 
L 58.506923 161.379517 
L 57.219231 152.004478 
L 56.575385 145.147254 
L 55.931538 149.606467 
L 55.287692 149.342529 
L 54.643846 143.426854 
L 54 138.793614 
L 54 138.793614 
" style="fill:none;stroke:#800080;stroke-linecap:square;stroke-width:1.5;"/>
   </g>
   <g id="line2d_16">
    <path clip-path="url(#pb3750929b4)" d="M 104.22 71.976485 
" style="fill:none;stroke:#ff0000;stroke-linecap:square;stroke-width:1.5;"/>
    <defs>
     <path d="M 0 1.5 
C 0.397805 1.5 0.77937 1.341951 1.06066 1.06066 
C 1.341951 0.77937 1.5 0.397805 1.5 0 
C 1.5 -0.397805 1.341951 -0.77937 1.06066 -1.06066 
C 0.77937 -1.341951 0.397805 -1.5 0 -1.5 
C -0.397805 -1.5 -0.77937 -1.341951 -1.06066 -1.06066 
C -1.341951 -0.77937 -1.5 -0.397805 -1.5 0 
C -1.5 0.397805 -1.341951 0.77937 -1.06066 1.06066 
C -0.77937 1.341951 -0.397805 1.5 0 1.5 
z
" id="medb0229ab2" style="stroke:#ff0000;"/>
    </defs>
    <g clip-path="url(#pb3750929b4)">
     <use style="fill:#ff0000;stroke:#ff0000;" x="104.22" xlink:href="#medb0229ab2" y="71.976485"/>
    </g>
   </g>
   <g id="patch_3">
    <path d="M 54 252 
L 54 34.56 
" style="fill:none;stroke:#000000;stroke-linecap:square;stroke-linejoin:miter;stroke-width:0.8;"/>
   </g>
   <g id="patch_4">
    <path d="M 388.8 252 
L 388.8 34.56 
" style="fill:none;stroke:#000000;stroke-linecap:square;stroke-linejoin:miter;stroke-width:0.8;"/>
   </g>
   <g id="patch_5">
    <path d="M 54 252 
L 388.8 252 
" style="fill:none;stroke:#000000;stroke-linecap:square;stroke-linejoin:miter;stroke-width:0.8;"/>
   </g>
   <g id="patch_6">
    <path d="M 54 34.56 
L 388.8 34.56 
" style="fill:none;stroke:#000000;stroke-linecap:square;stroke-linejoin:miter;stroke-width:0.8;"/>
   </g>
   <g id="text_16">
    <!-- 229 nm, 2.32 mDeg -->
    <g transform="translate(111.592038 70.193897)scale(0.1 -0.1)">
     <defs>
      <path d="M 10.984375 1.515625 
L 10.984375 10.5 
Q 14.703125 8.734375 18.5 7.8125 
Q 22.3125 6.890625 25.984375 6.890625 
Q 35.75 6.890625 40.890625 13.453125 
Q 46.046875 20.015625 46.78125 33.40625 
Q 43.953125 29.203125 39.59375 26.953125 
Q 35.25 24.703125 29.984375 24.703125 
Q 19.046875 24.703125 12.671875 31.3125 
Q 6.296875 37.9375 6.296875 49.421875 
Q 6.296875 60.640625 12.9375 67.421875 
Q 19.578125 74.21875 30.609375 74.21875 
Q 43.265625 74.21875 49.921875 64.515625 
Q 56.59375 54.828125 56.59375 36.375 
Q 56.59375 19.140625 48.40625 8.859375 
Q 40.234375 -1.421875 26.421875 -1.421875 
Q 22.703125 -1.421875 18.890625 -0.6875 
Q 15.09375 0.046875 10.984375 1.515625 
z
M 30.609375 32.421875 
Q 37.25 32.421875 41.125 36.953125 
Q 45.015625 41.5 45.015625 49.421875 
Q 45.015625 57.28125 41.125 61.84375 
Q 37.25 66.40625 30.609375 66.40625 
Q 23.96875 66.40625 20.09375 61.84375 
Q 16.21875 57.28125 16.21875 49.421875 
Q 16.21875 41.5 20.09375 36.953125 
Q 23.96875 32.421875 30.609375 32.421875 
z
" id="DejaVuSans-57"/>
      <path d="M 11.71875 12.40625 
L 22.015625 12.40625 
L 22.015625 4 
L 14.015625 -11.625 
L 7.71875 -11.625 
L 11.71875 4 
z
" id="DejaVuSans-44"/>
      <path d="M 10.6875 12.40625 
L 21 12.40625 
L 21 0 
L 10.6875 0 
z
" id="DejaVuSans-46"/>
     </defs>
     <use xlink:href="#DejaVuSans-50"/>
     <use x="63.623047" xlink:href="#DejaVuSans-50"/>
     <use x="127.246094" xlink:href="#DejaVuSans-57"/>
     <use x="190.869141" xlink:href="#DejaVuSans-32"/>
     <use x="222.65625" xlink:href="#DejaVuSans-110"/>
     <use x="286.035156" xlink:href="#DejaVuSans-109"/>
     <use x="383.447266" xlink:href="#DejaVuSans-44"/>
     <use x="415.234375" xlink:href="#DejaVuSans-32"/>
     <use x="447.021484" xlink:href="#DejaVuSans-50"/>
     <use x="510.644531" xlink:href="#DejaVuSans-46"/>
     <use x="542.431641" xlink:href="#DejaVuSans-51"/>
     <use x="606.054688" xlink:href="#DejaVuSans-50"/>
     <use x="669.677734" xlink:href="#DejaVuSans-32"/>
     <use x="701.464844" xlink:href="#DejaVuSans-109"/>
     <use x="798.876953" xlink:href="#DejaVuSans-68"/>
     <use x="875.878906" xlink:href="#DejaVuSans-101"/>
     <use x="937.402344" xlink:href="#DejaVuSans-103"/>
    </g>
   </g>
   <g id="text_17">
    <!-- R-IMA -->
    <g transform="translate(204.255 28.56)scale(0.12 -0.12)">
     <defs>
      <path d="M 44.390625 34.1875 
Q 47.5625 33.109375 50.5625 29.59375 
Q 53.5625 26.078125 56.59375 19.921875 
L 66.609375 0 
L 56 0 
L 46.6875 18.703125 
Q 43.0625 26.03125 39.671875 28.421875 
Q 36.28125 30.8125 30.421875 30.8125 
L 19.671875 30.8125 
L 19.671875 0 
L 9.8125 0 
L 9.8125 72.90625 
L 32.078125 72.90625 
Q 44.578125 72.90625 50.734375 67.671875 
Q 56.890625 62.453125 56.890625 51.90625 
Q 56.890625 45.015625 53.6875 40.46875 
Q 50.484375 35.9375 44.390625 34.1875 
z
M 19.671875 64.796875 
L 19.671875 38.921875 
L 32.078125 38.921875 
Q 39.203125 38.921875 42.84375 42.21875 
Q 46.484375 45.515625 46.484375 51.90625 
Q 46.484375 58.296875 42.84375 61.546875 
Q 39.203125 64.796875 32.078125 64.796875 
z
" id="DejaVuSans-82"/>
      <path d="M 4.890625 31.390625 
L 31.203125 31.390625 
L 31.203125 23.390625 
L 4.890625 23.390625 
z
" id="DejaVuSans-45"/>
      <path d="M 9.8125 72.90625 
L 19.671875 72.90625 
L 19.671875 0 
L 9.8125 0 
z
" id="DejaVuSans-73"/>
      <path d="M 9.8125 72.90625 
L 24.515625 72.90625 
L 43.109375 23.296875 
L 61.8125 72.90625 
L 76.515625 72.90625 
L 76.515625 0 
L 66.890625 0 
L 66.890625 64.015625 
L 48.09375 14.015625 
L 38.1875 14.015625 
L 19.390625 64.015625 
L 19.390625 0 
L 9.8125 0 
z
" id="DejaVuSans-77"/>
      <path d="M 34.1875 63.1875 
L 20.796875 26.90625 
L 47.609375 26.90625 
z
M 28.609375 72.90625 
L 39.796875 72.90625 
L 67.578125 0 
L 57.328125 0 
L 50.6875 18.703125 
L 17.828125 18.703125 
L 11.1875 0 
L 0.78125 0 
z
" id="DejaVuSans-65"/>
     </defs>
     <use xlink:href="#DejaVuSans-82"/>
     <use x="65.482422" xlink:href="#DejaVuSans-45"/>
     <use x="101.566406" xlink:href="#DejaVuSans-73"/>
     <use x="131.058594" xlink:href="#DejaVuSans-77"/>
     <use x="217.337891" xlink:href="#DejaVuSans-65"/>
    </g>
   </g>
  </g>
 </g>
 <defs>
  <clipPath id="pb3750929b4">
   <rect height="217.44" width="334.8" x="54" y="34.56"/>
  </clipPath>
 </defs>
</svg>
