<?xml version="1.0" encoding="utf-8" standalone="no"?>
<!DOCTYPE svg PUBLIC "-//W3C//DTD SVG 1.1//EN"
  "http://www.w3.org/Graphics/SVG/1.1/DTD/svg11.dtd">
<!-- Created with matplotlib (https://matplotlib.org/) -->
<svg height="288pt" version="1.1" viewBox="0 0 432 288" width="432pt" xmlns="http://www.w3.org/2000/svg" xmlns:xlink="http://www.w3.org/1999/xlink">
 <metadata>
  <rdf:RDF xmlns:cc="http://creativecommons.org/ns#" xmlns:dc="http://purl.org/dc/elements/1.1/" xmlns:rdf="http://www.w3.org/1999/02/22-rdf-syntax-ns#">
   <cc:Work>
    <dc:type rdf:resource="http://purl.org/dc/dcmitype/StillImage"/>
    <dc:date>2021-08-10T21:12:45.284909</dc:date>
    <dc:format>image/svg+xml</dc:format>
    <dc:creator>
     <cc:Agent>
      <dc:title>Matplotlib v3.3.4, https://matplotlib.org/</dc:title>
     </cc:Agent>
    </dc:creator>
   </cc:Work>
  </rdf:RDF>
 </metadata>
 <defs>
  <style type="text/css">*{stroke-linecap:butt;stroke-linejoin:round;}</style>
 </defs>
 <g id="figure_1">
  <g id="patch_1">
   <path d="M 0 288 
L 432 288 
L 432 0 
L 0 0 
z
" style="fill:#ffffff;"/>
  </g>
  <g id="axes_1">
   <g id="patch_2">
    <path d="M 54 252 
L 388.8 252 
L 388.8 34.56 
L 54 34.56 
z
" style="fill:#ffffff;"/>
   </g>
   <g id="matplotlib.axis_1">
    <g id="xtick_1">
     <g id="line2d_1">
      <defs>
       <path d="M 0 0 
L 0 3.5 
" id="m29d59aaa8e" style="stroke:#000000;stroke-width:0.8;"/>
      </defs>
      <g>
       <use style="stroke:#000000;stroke-width:0.8;" x="66.876923" xlink:href="#m29d59aaa8e" y="252"/>
      </g>
     </g>
     <g id="text_1">
      <!-- 200 -->
      <g transform="translate(57.333173 266.598437)scale(0.1 -0.1)">
       <defs>
        <path d="M 19.1875 8.296875 
L 53.609375 8.296875 
L 53.609375 0 
L 7.328125 0 
L 7.328125 8.296875 
Q 12.9375 14.109375 22.625 23.890625 
Q 32.328125 33.6875 34.8125 36.53125 
Q 39.546875 41.84375 41.421875 45.53125 
Q 43.3125 49.21875 43.3125 52.78125 
Q 43.3125 58.59375 39.234375 62.25 
Q 35.15625 65.921875 28.609375 65.921875 
Q 23.96875 65.921875 18.8125 64.3125 
Q 13.671875 62.703125 7.8125 59.421875 
L 7.8125 69.390625 
Q 13.765625 71.78125 18.9375 73 
Q 24.125 74.21875 28.421875 74.21875 
Q 39.75 74.21875 46.484375 68.546875 
Q 53.21875 62.890625 53.21875 53.421875 
Q 53.21875 48.921875 51.53125 44.890625 
Q 49.859375 40.875 45.40625 35.40625 
Q 44.1875 33.984375 37.640625 27.21875 
Q 31.109375 20.453125 19.1875 8.296875 
z
" id="DejaVuSans-50"/>
        <path d="M 31.78125 66.40625 
Q 24.171875 66.40625 20.328125 58.90625 
Q 16.5 51.421875 16.5 36.375 
Q 16.5 21.390625 20.328125 13.890625 
Q 24.171875 6.390625 31.78125 6.390625 
Q 39.453125 6.390625 43.28125 13.890625 
Q 47.125 21.390625 47.125 36.375 
Q 47.125 51.421875 43.28125 58.90625 
Q 39.453125 66.40625 31.78125 66.40625 
z
M 31.78125 74.21875 
Q 44.046875 74.21875 50.515625 64.515625 
Q 56.984375 54.828125 56.984375 36.375 
Q 56.984375 17.96875 50.515625 8.265625 
Q 44.046875 -1.421875 31.78125 -1.421875 
Q 19.53125 -1.421875 13.0625 8.265625 
Q 6.59375 17.96875 6.59375 36.375 
Q 6.59375 54.828125 13.0625 64.515625 
Q 19.53125 74.21875 31.78125 74.21875 
z
" id="DejaVuSans-48"/>
       </defs>
       <use xlink:href="#DejaVuSans-50"/>
       <use x="63.623047" xlink:href="#DejaVuSans-48"/>
       <use x="127.246094" xlink:href="#DejaVuSans-48"/>
      </g>
     </g>
    </g>
    <g id="xtick_2">
     <g id="line2d_2">
      <g>
       <use style="stroke:#000000;stroke-width:0.8;" x="131.261538" xlink:href="#m29d59aaa8e" y="252"/>
      </g>
     </g>
     <g id="text_2">
      <!-- 250 -->
      <g transform="translate(121.717788 266.598437)scale(0.1 -0.1)">
       <defs>
        <path d="M 10.796875 72.90625 
L 49.515625 72.90625 
L 49.515625 64.59375 
L 19.828125 64.59375 
L 19.828125 46.734375 
Q 21.96875 47.46875 24.109375 47.828125 
Q 26.265625 48.1875 28.421875 48.1875 
Q 40.625 48.1875 47.75 41.5 
Q 54.890625 34.8125 54.890625 23.390625 
Q 54.890625 11.625 47.5625 5.09375 
Q 40.234375 -1.421875 26.90625 -1.421875 
Q 22.3125 -1.421875 17.546875 -0.640625 
Q 12.796875 0.140625 7.71875 1.703125 
L 7.71875 11.625 
Q 12.109375 9.234375 16.796875 8.0625 
Q 21.484375 6.890625 26.703125 6.890625 
Q 35.15625 6.890625 40.078125 11.328125 
Q 45.015625 15.765625 45.015625 23.390625 
Q 45.015625 31 40.078125 35.4375 
Q 35.15625 39.890625 26.703125 39.890625 
Q 22.75 39.890625 18.8125 39.015625 
Q 14.890625 38.140625 10.796875 36.28125 
z
" id="DejaVuSans-53"/>
       </defs>
       <use xlink:href="#DejaVuSans-50"/>
       <use x="63.623047" xlink:href="#DejaVuSans-53"/>
       <use x="127.246094" xlink:href="#DejaVuSans-48"/>
      </g>
     </g>
    </g>
    <g id="xtick_3">
     <g id="line2d_3">
      <g>
       <use style="stroke:#000000;stroke-width:0.8;" x="195.646154" xlink:href="#m29d59aaa8e" y="252"/>
      </g>
     </g>
     <g id="text_3">
      <!-- 300 -->
      <g transform="translate(186.102404 266.598437)scale(0.1 -0.1)">
       <defs>
        <path d="M 40.578125 39.3125 
Q 47.65625 37.796875 51.625 33 
Q 55.609375 28.21875 55.609375 21.1875 
Q 55.609375 10.40625 48.1875 4.484375 
Q 40.765625 -1.421875 27.09375 -1.421875 
Q 22.515625 -1.421875 17.65625 -0.515625 
Q 12.796875 0.390625 7.625 2.203125 
L 7.625 11.71875 
Q 11.71875 9.328125 16.59375 8.109375 
Q 21.484375 6.890625 26.8125 6.890625 
Q 36.078125 6.890625 40.9375 10.546875 
Q 45.796875 14.203125 45.796875 21.1875 
Q 45.796875 27.640625 41.28125 31.265625 
Q 36.765625 34.90625 28.71875 34.90625 
L 20.21875 34.90625 
L 20.21875 43.015625 
L 29.109375 43.015625 
Q 36.375 43.015625 40.234375 45.921875 
Q 44.09375 48.828125 44.09375 54.296875 
Q 44.09375 59.90625 40.109375 62.90625 
Q 36.140625 65.921875 28.71875 65.921875 
Q 24.65625 65.921875 20.015625 65.03125 
Q 15.375 64.15625 9.8125 62.3125 
L 9.8125 71.09375 
Q 15.4375 72.65625 20.34375 73.4375 
Q 25.25 74.21875 29.59375 74.21875 
Q 40.828125 74.21875 47.359375 69.109375 
Q 53.90625 64.015625 53.90625 55.328125 
Q 53.90625 49.265625 50.4375 45.09375 
Q 46.96875 40.921875 40.578125 39.3125 
z
" id="DejaVuSans-51"/>
       </defs>
       <use xlink:href="#DejaVuSans-51"/>
       <use x="63.623047" xlink:href="#DejaVuSans-48"/>
       <use x="127.246094" xlink:href="#DejaVuSans-48"/>
      </g>
     </g>
    </g>
    <g id="xtick_4">
     <g id="line2d_4">
      <g>
       <use style="stroke:#000000;stroke-width:0.8;" x="260.030769" xlink:href="#m29d59aaa8e" y="252"/>
      </g>
     </g>
     <g id="text_4">
      <!-- 350 -->
      <g transform="translate(250.487019 266.598437)scale(0.1 -0.1)">
       <use xlink:href="#DejaVuSans-51"/>
       <use x="63.623047" xlink:href="#DejaVuSans-53"/>
       <use x="127.246094" xlink:href="#DejaVuSans-48"/>
      </g>
     </g>
    </g>
    <g id="xtick_5">
     <g id="line2d_5">
      <g>
       <use style="stroke:#000000;stroke-width:0.8;" x="324.415385" xlink:href="#m29d59aaa8e" y="252"/>
      </g>
     </g>
     <g id="text_5">
      <!-- 400 -->
      <g transform="translate(314.871635 266.598437)scale(0.1 -0.1)">
       <defs>
        <path d="M 37.796875 64.3125 
L 12.890625 25.390625 
L 37.796875 25.390625 
z
M 35.203125 72.90625 
L 47.609375 72.90625 
L 47.609375 25.390625 
L 58.015625 25.390625 
L 58.015625 17.1875 
L 47.609375 17.1875 
L 47.609375 0 
L 37.796875 0 
L 37.796875 17.1875 
L 4.890625 17.1875 
L 4.890625 26.703125 
z
" id="DejaVuSans-52"/>
       </defs>
       <use xlink:href="#DejaVuSans-52"/>
       <use x="63.623047" xlink:href="#DejaVuSans-48"/>
       <use x="127.246094" xlink:href="#DejaVuSans-48"/>
      </g>
     </g>
    </g>
    <g id="xtick_6">
     <g id="line2d_6">
      <g>
       <use style="stroke:#000000;stroke-width:0.8;" x="388.8" xlink:href="#m29d59aaa8e" y="252"/>
      </g>
     </g>
     <g id="text_6">
      <!-- 450 -->
      <g transform="translate(379.25625 266.598437)scale(0.1 -0.1)">
       <use xlink:href="#DejaVuSans-52"/>
       <use x="63.623047" xlink:href="#DejaVuSans-53"/>
       <use x="127.246094" xlink:href="#DejaVuSans-48"/>
      </g>
     </g>
    </g>
    <g id="text_7">
     <!-- Wavelength (nm) -->
     <g transform="translate(178.207812 280.276563)scale(0.1 -0.1)">
      <defs>
       <path d="M 3.328125 72.90625 
L 13.28125 72.90625 
L 28.609375 11.28125 
L 43.890625 72.90625 
L 54.984375 72.90625 
L 70.3125 11.28125 
L 85.59375 72.90625 
L 95.609375 72.90625 
L 77.296875 0 
L 64.890625 0 
L 49.515625 63.28125 
L 33.984375 0 
L 21.578125 0 
z
" id="DejaVuSans-87"/>
       <path d="M 34.28125 27.484375 
Q 23.390625 27.484375 19.1875 25 
Q 14.984375 22.515625 14.984375 16.5 
Q 14.984375 11.71875 18.140625 8.90625 
Q 21.296875 6.109375 26.703125 6.109375 
Q 34.1875 6.109375 38.703125 11.40625 
Q 43.21875 16.703125 43.21875 25.484375 
L 43.21875 27.484375 
z
M 52.203125 31.203125 
L 52.203125 0 
L 43.21875 0 
L 43.21875 8.296875 
Q 40.140625 3.328125 35.546875 0.953125 
Q 30.953125 -1.421875 24.3125 -1.421875 
Q 15.921875 -1.421875 10.953125 3.296875 
Q 6 8.015625 6 15.921875 
Q 6 25.140625 12.171875 29.828125 
Q 18.359375 34.515625 30.609375 34.515625 
L 43.21875 34.515625 
L 43.21875 35.40625 
Q 43.21875 41.609375 39.140625 45 
Q 35.0625 48.390625 27.6875 48.390625 
Q 23 48.390625 18.546875 47.265625 
Q 14.109375 46.140625 10.015625 43.890625 
L 10.015625 52.203125 
Q 14.9375 54.109375 19.578125 55.046875 
Q 24.21875 56 28.609375 56 
Q 40.484375 56 46.34375 49.84375 
Q 52.203125 43.703125 52.203125 31.203125 
z
" id="DejaVuSans-97"/>
       <path d="M 2.984375 54.6875 
L 12.5 54.6875 
L 29.59375 8.796875 
L 46.6875 54.6875 
L 56.203125 54.6875 
L 35.6875 0 
L 23.484375 0 
z
" id="DejaVuSans-118"/>
       <path d="M 56.203125 29.59375 
L 56.203125 25.203125 
L 14.890625 25.203125 
Q 15.484375 15.921875 20.484375 11.0625 
Q 25.484375 6.203125 34.421875 6.203125 
Q 39.59375 6.203125 44.453125 7.46875 
Q 49.3125 8.734375 54.109375 11.28125 
L 54.109375 2.78125 
Q 49.265625 0.734375 44.1875 -0.34375 
Q 39.109375 -1.421875 33.890625 -1.421875 
Q 20.796875 -1.421875 13.15625 6.1875 
Q 5.515625 13.8125 5.515625 26.8125 
Q 5.515625 40.234375 12.765625 48.109375 
Q 20.015625 56 32.328125 56 
Q 43.359375 56 49.78125 48.890625 
Q 56.203125 41.796875 56.203125 29.59375 
z
M 47.21875 32.234375 
Q 47.125 39.59375 43.09375 43.984375 
Q 39.0625 48.390625 32.421875 48.390625 
Q 24.90625 48.390625 20.390625 44.140625 
Q 15.875 39.890625 15.1875 32.171875 
z
" id="DejaVuSans-101"/>
       <path d="M 9.421875 75.984375 
L 18.40625 75.984375 
L 18.40625 0 
L 9.421875 0 
z
" id="DejaVuSans-108"/>
       <path d="M 54.890625 33.015625 
L 54.890625 0 
L 45.90625 0 
L 45.90625 32.71875 
Q 45.90625 40.484375 42.875 44.328125 
Q 39.84375 48.1875 33.796875 48.1875 
Q 26.515625 48.1875 22.3125 43.546875 
Q 18.109375 38.921875 18.109375 30.90625 
L 18.109375 0 
L 9.078125 0 
L 9.078125 54.6875 
L 18.109375 54.6875 
L 18.109375 46.1875 
Q 21.34375 51.125 25.703125 53.5625 
Q 30.078125 56 35.796875 56 
Q 45.21875 56 50.046875 50.171875 
Q 54.890625 44.34375 54.890625 33.015625 
z
" id="DejaVuSans-110"/>
       <path d="M 45.40625 27.984375 
Q 45.40625 37.75 41.375 43.109375 
Q 37.359375 48.484375 30.078125 48.484375 
Q 22.859375 48.484375 18.828125 43.109375 
Q 14.796875 37.75 14.796875 27.984375 
Q 14.796875 18.265625 18.828125 12.890625 
Q 22.859375 7.515625 30.078125 7.515625 
Q 37.359375 7.515625 41.375 12.890625 
Q 45.40625 18.265625 45.40625 27.984375 
z
M 54.390625 6.78125 
Q 54.390625 -7.171875 48.1875 -13.984375 
Q 42 -20.796875 29.203125 -20.796875 
Q 24.46875 -20.796875 20.265625 -20.09375 
Q 16.0625 -19.390625 12.109375 -17.921875 
L 12.109375 -9.1875 
Q 16.0625 -11.328125 19.921875 -12.34375 
Q 23.78125 -13.375 27.78125 -13.375 
Q 36.625 -13.375 41.015625 -8.765625 
Q 45.40625 -4.15625 45.40625 5.171875 
L 45.40625 9.625 
Q 42.625 4.78125 38.28125 2.390625 
Q 33.9375 0 27.875 0 
Q 17.828125 0 11.671875 7.65625 
Q 5.515625 15.328125 5.515625 27.984375 
Q 5.515625 40.671875 11.671875 48.328125 
Q 17.828125 56 27.875 56 
Q 33.9375 56 38.28125 53.609375 
Q 42.625 51.21875 45.40625 46.390625 
L 45.40625 54.6875 
L 54.390625 54.6875 
z
" id="DejaVuSans-103"/>
       <path d="M 18.3125 70.21875 
L 18.3125 54.6875 
L 36.8125 54.6875 
L 36.8125 47.703125 
L 18.3125 47.703125 
L 18.3125 18.015625 
Q 18.3125 11.328125 20.140625 9.421875 
Q 21.96875 7.515625 27.59375 7.515625 
L 36.8125 7.515625 
L 36.8125 0 
L 27.59375 0 
Q 17.1875 0 13.234375 3.875 
Q 9.28125 7.765625 9.28125 18.015625 
L 9.28125 47.703125 
L 2.6875 47.703125 
L 2.6875 54.6875 
L 9.28125 54.6875 
L 9.28125 70.21875 
z
" id="DejaVuSans-116"/>
       <path d="M 54.890625 33.015625 
L 54.890625 0 
L 45.90625 0 
L 45.90625 32.71875 
Q 45.90625 40.484375 42.875 44.328125 
Q 39.84375 48.1875 33.796875 48.1875 
Q 26.515625 48.1875 22.3125 43.546875 
Q 18.109375 38.921875 18.109375 30.90625 
L 18.109375 0 
L 9.078125 0 
L 9.078125 75.984375 
L 18.109375 75.984375 
L 18.109375 46.1875 
Q 21.34375 51.125 25.703125 53.5625 
Q 30.078125 56 35.796875 56 
Q 45.21875 56 50.046875 50.171875 
Q 54.890625 44.34375 54.890625 33.015625 
z
" id="DejaVuSans-104"/>
       <path id="DejaVuSans-32"/>
       <path d="M 31 75.875 
Q 24.46875 64.65625 21.28125 53.65625 
Q 18.109375 42.671875 18.109375 31.390625 
Q 18.109375 20.125 21.3125 9.0625 
Q 24.515625 -2 31 -13.1875 
L 23.1875 -13.1875 
Q 15.875 -1.703125 12.234375 9.375 
Q 8.59375 20.453125 8.59375 31.390625 
Q 8.59375 42.28125 12.203125 53.3125 
Q 15.828125 64.359375 23.1875 75.875 
z
" id="DejaVuSans-40"/>
       <path d="M 52 44.1875 
Q 55.375 50.25 60.0625 53.125 
Q 64.75 56 71.09375 56 
Q 79.640625 56 84.28125 50.015625 
Q 88.921875 44.046875 88.921875 33.015625 
L 88.921875 0 
L 79.890625 0 
L 79.890625 32.71875 
Q 79.890625 40.578125 77.09375 44.375 
Q 74.3125 48.1875 68.609375 48.1875 
Q 61.625 48.1875 57.5625 43.546875 
Q 53.515625 38.921875 53.515625 30.90625 
L 53.515625 0 
L 44.484375 0 
L 44.484375 32.71875 
Q 44.484375 40.625 41.703125 44.40625 
Q 38.921875 48.1875 33.109375 48.1875 
Q 26.21875 48.1875 22.15625 43.53125 
Q 18.109375 38.875 18.109375 30.90625 
L 18.109375 0 
L 9.078125 0 
L 9.078125 54.6875 
L 18.109375 54.6875 
L 18.109375 46.1875 
Q 21.1875 51.21875 25.484375 53.609375 
Q 29.78125 56 35.6875 56 
Q 41.65625 56 45.828125 52.96875 
Q 50 49.953125 52 44.1875 
z
" id="DejaVuSans-109"/>
       <path d="M 8.015625 75.875 
L 15.828125 75.875 
Q 23.140625 64.359375 26.78125 53.3125 
Q 30.421875 42.28125 30.421875 31.390625 
Q 30.421875 20.453125 26.78125 9.375 
Q 23.140625 -1.703125 15.828125 -13.1875 
L 8.015625 -13.1875 
Q 14.5 -2 17.703125 9.0625 
Q 20.90625 20.125 20.90625 31.390625 
Q 20.90625 42.671875 17.703125 53.65625 
Q 14.5 64.65625 8.015625 75.875 
z
" id="DejaVuSans-41"/>
      </defs>
      <use xlink:href="#DejaVuSans-87"/>
      <use x="92.501953" xlink:href="#DejaVuSans-97"/>
      <use x="153.78125" xlink:href="#DejaVuSans-118"/>
      <use x="212.960938" xlink:href="#DejaVuSans-101"/>
      <use x="274.484375" xlink:href="#DejaVuSans-108"/>
      <use x="302.267578" xlink:href="#DejaVuSans-101"/>
      <use x="363.791016" xlink:href="#DejaVuSans-110"/>
      <use x="427.169922" xlink:href="#DejaVuSans-103"/>
      <use x="490.646484" xlink:href="#DejaVuSans-116"/>
      <use x="529.855469" xlink:href="#DejaVuSans-104"/>
      <use x="593.234375" xlink:href="#DejaVuSans-32"/>
      <use x="625.021484" xlink:href="#DejaVuSans-40"/>
      <use x="664.035156" xlink:href="#DejaVuSans-110"/>
      <use x="727.414062" xlink:href="#DejaVuSans-109"/>
      <use x="824.826172" xlink:href="#DejaVuSans-41"/>
     </g>
    </g>
   </g>
   <g id="matplotlib.axis_2">
    <g id="ytick_1">
     <g id="line2d_7">
      <defs>
       <path d="M 0 0 
L -3.5 0 
" id="meceae9cfe0" style="stroke:#000000;stroke-width:0.8;"/>
      </defs>
      <g>
       <use style="stroke:#000000;stroke-width:0.8;" x="54" xlink:href="#meceae9cfe0" y="239.92"/>
      </g>
     </g>
     <g id="text_8">
      <!-- −40 -->
      <g transform="translate(25.895312 243.719219)scale(0.1 -0.1)">
       <defs>
        <path d="M 10.59375 35.5 
L 73.1875 35.5 
L 73.1875 27.203125 
L 10.59375 27.203125 
z
" id="DejaVuSans-8722"/>
       </defs>
       <use xlink:href="#DejaVuSans-8722"/>
       <use x="83.789062" xlink:href="#DejaVuSans-52"/>
       <use x="147.412109" xlink:href="#DejaVuSans-48"/>
      </g>
     </g>
    </g>
    <g id="ytick_2">
     <g id="line2d_8">
      <g>
       <use style="stroke:#000000;stroke-width:0.8;" x="54" xlink:href="#meceae9cfe0" y="215.76"/>
      </g>
     </g>
     <g id="text_9">
      <!-- −30 -->
      <g transform="translate(25.895312 219.559219)scale(0.1 -0.1)">
       <use xlink:href="#DejaVuSans-8722"/>
       <use x="83.789062" xlink:href="#DejaVuSans-51"/>
       <use x="147.412109" xlink:href="#DejaVuSans-48"/>
      </g>
     </g>
    </g>
    <g id="ytick_3">
     <g id="line2d_9">
      <g>
       <use style="stroke:#000000;stroke-width:0.8;" x="54" xlink:href="#meceae9cfe0" y="191.6"/>
      </g>
     </g>
     <g id="text_10">
      <!-- −20 -->
      <g transform="translate(25.895312 195.399219)scale(0.1 -0.1)">
       <use xlink:href="#DejaVuSans-8722"/>
       <use x="83.789062" xlink:href="#DejaVuSans-50"/>
       <use x="147.412109" xlink:href="#DejaVuSans-48"/>
      </g>
     </g>
    </g>
    <g id="ytick_4">
     <g id="line2d_10">
      <g>
       <use style="stroke:#000000;stroke-width:0.8;" x="54" xlink:href="#meceae9cfe0" y="167.44"/>
      </g>
     </g>
     <g id="text_11">
      <!-- −10 -->
      <g transform="translate(25.895312 171.239219)scale(0.1 -0.1)">
       <defs>
        <path d="M 12.40625 8.296875 
L 28.515625 8.296875 
L 28.515625 63.921875 
L 10.984375 60.40625 
L 10.984375 69.390625 
L 28.421875 72.90625 
L 38.28125 72.90625 
L 38.28125 8.296875 
L 54.390625 8.296875 
L 54.390625 0 
L 12.40625 0 
z
" id="DejaVuSans-49"/>
       </defs>
       <use xlink:href="#DejaVuSans-8722"/>
       <use x="83.789062" xlink:href="#DejaVuSans-49"/>
       <use x="147.412109" xlink:href="#DejaVuSans-48"/>
      </g>
     </g>
    </g>
    <g id="ytick_5">
     <g id="line2d_11">
      <g>
       <use style="stroke:#000000;stroke-width:0.8;" x="54" xlink:href="#meceae9cfe0" y="143.28"/>
      </g>
     </g>
     <g id="text_12">
      <!-- 0 -->
      <g transform="translate(40.6375 147.079219)scale(0.1 -0.1)">
       <use xlink:href="#DejaVuSans-48"/>
      </g>
     </g>
    </g>
    <g id="ytick_6">
     <g id="line2d_12">
      <g>
       <use style="stroke:#000000;stroke-width:0.8;" x="54" xlink:href="#meceae9cfe0" y="119.12"/>
      </g>
     </g>
     <g id="text_13">
      <!-- 10 -->
      <g transform="translate(34.275 122.919219)scale(0.1 -0.1)">
       <use xlink:href="#DejaVuSans-49"/>
       <use x="63.623047" xlink:href="#DejaVuSans-48"/>
      </g>
     </g>
    </g>
    <g id="ytick_7">
     <g id="line2d_13">
      <g>
       <use style="stroke:#000000;stroke-width:0.8;" x="54" xlink:href="#meceae9cfe0" y="94.96"/>
      </g>
     </g>
     <g id="text_14">
      <!-- 20 -->
      <g transform="translate(34.275 98.759219)scale(0.1 -0.1)">
       <use xlink:href="#DejaVuSans-50"/>
       <use x="63.623047" xlink:href="#DejaVuSans-48"/>
      </g>
     </g>
    </g>
    <g id="ytick_8">
     <g id="line2d_14">
      <g>
       <use style="stroke:#000000;stroke-width:0.8;" x="54" xlink:href="#meceae9cfe0" y="70.8"/>
      </g>
     </g>
     <g id="text_15">
      <!-- 30 -->
      <g transform="translate(34.275 74.599219)scale(0.1 -0.1)">
       <use xlink:href="#DejaVuSans-51"/>
       <use x="63.623047" xlink:href="#DejaVuSans-48"/>
      </g>
     </g>
    </g>
    <g id="ytick_9">
     <g id="line2d_15">
      <g>
       <use style="stroke:#000000;stroke-width:0.8;" x="54" xlink:href="#meceae9cfe0" y="46.64"/>
      </g>
     </g>
     <g id="text_16">
      <!-- 40 -->
      <g transform="translate(34.275 50.439219)scale(0.1 -0.1)">
       <use xlink:href="#DejaVuSans-52"/>
       <use x="63.623047" xlink:href="#DejaVuSans-48"/>
      </g>
     </g>
    </g>
    <g id="text_17">
     <!-- CD (mDeg) -->
     <g transform="translate(19.815625 171.083125)rotate(-90)scale(0.1 -0.1)">
      <defs>
       <path d="M 64.40625 67.28125 
L 64.40625 56.890625 
Q 59.421875 61.53125 53.78125 63.8125 
Q 48.140625 66.109375 41.796875 66.109375 
Q 29.296875 66.109375 22.65625 58.46875 
Q 16.015625 50.828125 16.015625 36.375 
Q 16.015625 21.96875 22.65625 14.328125 
Q 29.296875 6.6875 41.796875 6.6875 
Q 48.140625 6.6875 53.78125 8.984375 
Q 59.421875 11.28125 64.40625 15.921875 
L 64.40625 5.609375 
Q 59.234375 2.09375 53.4375 0.328125 
Q 47.65625 -1.421875 41.21875 -1.421875 
Q 24.65625 -1.421875 15.125 8.703125 
Q 5.609375 18.84375 5.609375 36.375 
Q 5.609375 53.953125 15.125 64.078125 
Q 24.65625 74.21875 41.21875 74.21875 
Q 47.75 74.21875 53.53125 72.484375 
Q 59.328125 70.75 64.40625 67.28125 
z
" id="DejaVuSans-67"/>
       <path d="M 19.671875 64.796875 
L 19.671875 8.109375 
L 31.59375 8.109375 
Q 46.6875 8.109375 53.6875 14.9375 
Q 60.6875 21.78125 60.6875 36.53125 
Q 60.6875 51.171875 53.6875 57.984375 
Q 46.6875 64.796875 31.59375 64.796875 
z
M 9.8125 72.90625 
L 30.078125 72.90625 
Q 51.265625 72.90625 61.171875 64.09375 
Q 71.09375 55.28125 71.09375 36.53125 
Q 71.09375 17.671875 61.125 8.828125 
Q 51.171875 0 30.078125 0 
L 9.8125 0 
z
" id="DejaVuSans-68"/>
      </defs>
      <use xlink:href="#DejaVuSans-67"/>
      <use x="69.824219" xlink:href="#DejaVuSans-68"/>
      <use x="146.826172" xlink:href="#DejaVuSans-32"/>
      <use x="178.613281" xlink:href="#DejaVuSans-40"/>
      <use x="217.626953" xlink:href="#DejaVuSans-109"/>
      <use x="315.039062" xlink:href="#DejaVuSans-68"/>
      <use x="392.041016" xlink:href="#DejaVuSans-101"/>
      <use x="453.564453" xlink:href="#DejaVuSans-103"/>
      <use x="517.041016" xlink:href="#DejaVuSans-41"/>
     </g>
    </g>
   </g>
   <g id="line2d_16">
    <path clip-path="url(#pfc6d334c89)" d="M 54 143.28 
L 388.8 143.28 
" style="fill:none;stroke:#d1d1d1;stroke-linecap:square;stroke-width:1.5;"/>
   </g>
   <g id="line2d_17">
    <path clip-path="url(#pfc6d334c89)" d="M 388.8 143.823607 
L 388.156154 143.845924 
L 386.868462 143.611951 
L 386.224615 144.004293 
L 385.580769 143.913238 
L 384.936923 144.126211 
L 383.649231 143.939904 
L 383.005385 143.654217 
L 381.717692 143.711998 
L 380.43 143.64536 
L 379.786154 143.738506 
L 379.142308 143.669476 
L 378.498462 143.865542 
L 377.854615 143.769796 
L 375.923077 143.813001 
L 375.279231 143.705243 
L 374.635385 143.36775 
L 372.06 143.743374 
L 371.416154 143.522376 
L 369.484615 143.964102 
L 368.840769 143.890274 
L 368.196923 143.631381 
L 366.909231 143.562629 
L 366.265385 143.856359 
L 364.333846 143.793574 
L 363.69 143.420226 
L 363.046154 143.370169 
L 361.758462 143.906696 
L 361.114615 144.021238 
L 359.826923 143.628018 
L 359.183077 143.687582 
L 358.539231 143.500076 
L 357.895385 143.666514 
L 356.607692 143.456938 
L 355.32 143.584691 
L 354.676154 143.884075 
L 354.032308 144.022113 
L 351.456923 143.660576 
L 348.881538 143.812576 
L 347.593846 143.590195 
L 344.374615 143.374783 
L 343.730769 143.506992 
L 343.086923 143.789443 
L 341.155385 143.604993 
L 340.511538 143.720811 
L 339.867692 143.669503 
L 338.58 143.796427 
L 337.936154 143.600596 
L 337.292308 143.566818 
L 336.648462 143.397142 
L 334.073077 143.489935 
L 333.429231 143.321209 
L 330.21 143.201696 
L 329.566154 143.310123 
L 328.922308 143.292467 
L 328.278462 143.402212 
L 327.634615 143.671187 
L 326.990769 143.422757 
L 325.059231 143.223106 
L 324.415385 143.385017 
L 323.771538 143.121481 
L 323.127692 143.214811 
L 322.483846 143.488484 
L 321.196154 143.619095 
L 320.552308 143.448717 
L 319.908462 143.433309 
L 318.620769 143.834081 
L 317.333077 143.706417 
L 316.045385 143.480342 
L 315.401538 143.562607 
L 313.47 143.385602 
L 312.826154 143.151408 
L 310.894615 143.273764 
L 309.606923 143.523767 
L 307.675385 143.062828 
L 306.387692 142.804848 
L 305.743846 142.366124 
L 305.1 142.367112 
L 303.812308 143.005533 
L 303.168462 143.42932 
L 301.880769 143.361648 
L 301.236923 143.144879 
L 299.949231 143.085152 
L 298.017692 142.954529 
L 297.373846 142.88825 
L 296.086154 142.966674 
L 294.154615 142.559486 
L 292.866923 142.522862 
L 292.223077 142.338021 
L 290.935385 142.714777 
L 287.072308 142.521444 
L 285.784615 142.556065 
L 284.496923 142.450923 
L 282.565385 142.269073 
L 281.921538 142.302484 
L 280.633846 142.064179 
L 279.99 141.910324 
L 278.058462 142.346842 
L 277.414615 142.171863 
L 276.770769 142.169162 
L 276.126923 142.398046 
L 274.839231 142.152424 
L 274.195385 141.834063 
L 273.551538 141.786893 
L 272.263846 142.105611 
L 271.62 141.963558 
L 270.976154 142.12032 
L 270.332308 141.944628 
L 268.400769 141.783861 
L 267.756923 141.946196 
L 267.113077 141.84644 
L 266.469231 141.870854 
L 265.825385 142.040208 
L 265.181538 141.997186 
L 261.962308 142.405166 
L 261.318462 142.269689 
L 260.674615 142.58742 
L 260.030769 142.710474 
L 259.386923 142.678339 
L 258.743077 142.771173 
L 258.099231 142.738024 
L 256.811538 143.052629 
L 254.88 142.564961 
L 254.236154 142.6548 
L 252.948462 143.013694 
L 249.085385 143.025056 
L 248.441538 143.255152 
L 247.153846 143.176118 
L 246.51 143.250396 
L 245.866154 143.178763 
L 245.222308 143.330545 
L 244.578462 143.132076 
L 243.290769 143.091286 
L 242.003077 143.733744 
L 240.715385 143.60645 
L 239.427692 143.237411 
L 236.852308 144.055406 
L 234.920769 143.848579 
L 234.276923 143.940885 
L 232.345385 143.72726 
L 231.057692 144.189192 
L 229.126154 144.331115 
L 227.838462 144.629945 
L 225.906923 143.960522 
L 225.263077 144.056336 
L 223.975385 144.475007 
L 223.331538 144.459701 
L 222.687692 144.603507 
L 221.4 144.531213 
L 220.756154 144.756241 
L 220.112308 144.54251 
L 219.468462 144.69364 
L 218.824615 144.679586 
L 217.536923 144.997013 
L 216.249231 145.018363 
L 215.605385 145.272023 
L 213.673846 145.447345 
L 213.03 145.324076 
L 211.742308 145.71528 
L 210.454615 145.574649 
L 209.166923 145.235791 
L 207.879231 145.390209 
L 205.947692 145.219239 
L 205.303846 145.267167 
L 204.66 145.582861 
L 204.016154 145.554741 
L 203.372308 145.784112 
L 202.728462 145.660869 
L 202.084615 145.655525 
L 201.440769 145.423243 
L 200.153077 145.215513 
L 198.221538 145.550115 
L 197.577692 145.795032 
L 196.933846 145.800395 
L 195.646154 146.154267 
L 194.358462 146.45344 
L 193.714615 146.39205 
L 192.426923 145.895054 
L 186.632308 145.92738 
L 185.988462 146.086184 
L 185.344615 145.982006 
L 184.056923 145.580462 
L 183.413077 145.459582 
L 182.769231 145.791335 
L 181.481538 145.921509 
L 180.837692 145.690873 
L 180.193846 145.240253 
L 179.55 145.203143 
L 178.906154 144.944407 
L 178.262308 145.073363 
L 177.618462 144.836977 
L 176.974615 144.863347 
L 176.330769 144.683425 
L 175.686923 144.650995 
L 175.043077 144.466399 
L 174.399231 144.500967 
L 173.755385 144.37668 
L 173.111538 144.438648 
L 172.467692 144.355345 
L 169.892308 144.638923 
L 167.316923 144.013026 
L 166.673077 143.968396 
L 164.741538 144.694039 
L 164.097692 144.958171 
L 162.81 144.814022 
L 160.878462 143.968176 
L 160.234615 143.811295 
L 158.946923 143.731229 
L 158.303077 143.938471 
L 157.015385 143.691162 
L 156.371538 143.789455 
L 155.727692 143.70007 
L 155.083846 143.965634 
L 154.44 143.966598 
L 153.796154 144.095688 
L 153.152308 143.760791 
L 151.220769 143.223549 
L 149.289231 143.563571 
L 147.357692 143.013286 
L 146.07 143.690382 
L 144.138462 144.243242 
L 143.494615 144.200757 
L 142.850769 144.513477 
L 142.206923 144.14192 
L 141.563077 144.382104 
L 140.919231 144.218043 
L 140.275385 144.345789 
L 137.056154 144.159994 
L 136.412308 144.319283 
L 135.768462 144.63642 
L 134.480769 145.004176 
L 133.193077 144.514023 
L 131.905385 143.833018 
L 131.261538 143.469694 
L 129.973846 143.337318 
L 129.33 143.102673 
L 128.042308 142.159462 
L 126.110769 140.933192 
L 124.823077 139.531189 
L 124.179231 138.733305 
L 122.891538 137.677441 
L 122.247692 137.497691 
L 121.603846 137.130459 
L 120.96 137.077186 
L 120.316154 136.729137 
L 119.028462 136.857885 
L 117.740769 136.899344 
L 116.453077 136.09542 
L 115.809231 136.247507 
L 115.165385 136.771779 
L 114.521538 136.531339 
L 113.877692 136.524212 
L 113.233846 135.525679 
L 112.59 135.72512 
L 111.302308 136.969215 
L 110.658462 137.047759 
L 110.014615 136.941914 
L 108.083077 136.890767 
L 107.439231 137.243117 
L 106.795385 137.226132 
L 106.151538 136.831479 
L 104.863846 137.109608 
L 103.576154 138.361652 
L 102.932308 138.258682 
L 102.288462 137.559758 
L 101.644615 137.277496 
L 101.000769 137.668405 
L 100.356923 139.079712 
L 99.713077 139.555664 
L 99.069231 139.870927 
L 98.425385 139.200536 
L 97.781538 138.736664 
L 96.493846 139.01936 
L 95.206154 138.728739 
L 94.562308 138.410069 
L 93.918462 138.650823 
L 93.274615 138.05755 
L 92.630769 137.979199 
L 91.343077 138.19519 
L 90.699231 138.729633 
L 90.055385 139.043761 
L 89.411538 138.858382 
L 88.767692 139.034991 
L 87.48 139.109211 
L 86.836154 139.591831 
L 85.548462 139.211504 
L 84.904615 139.734303 
L 84.260769 139.519109 
L 83.616923 139.899098 
L 82.329231 139.650492 
L 81.685385 139.963798 
L 81.041538 140.848175 
L 80.397692 140.984653 
L 79.753846 142.313448 
L 79.11 142.919153 
L 78.466154 142.59819 
L 77.822308 142.976872 
L 77.178462 142.633193 
L 76.534615 143.22284 
L 75.246923 143.978722 
L 74.603077 143.948355 
L 73.959231 144.497898 
L 73.315385 144.889972 
L 72.671538 146.112373 
L 71.383846 146.55757 
L 70.74 145.62619 
L 70.096154 145.228001 
L 69.452308 145.427679 
L 68.808462 145.809721 
L 68.164615 145.491715 
L 66.876923 144.454959 
L 65.589231 144.376801 
L 64.945385 144.741011 
L 64.301538 144.404537 
L 63.657692 144.636019 
L 63.013846 144.690845 
L 62.37 145.693731 
L 61.082308 145.586729 
L 60.438462 144.619488 
L 59.794615 144.710069 
L 59.150769 144.469075 
L 58.506923 144.700018 
L 57.219231 143.964489 
L 56.575385 143.426498 
L 55.931538 143.77635 
L 55.287692 143.755643 
L 54 142.928015 
L 54 142.928015 
" style="fill:none;stroke:#800080;stroke-linecap:square;stroke-width:1.5;"/>
   </g>
   <g id="patch_3">
    <path d="M 54 252 
L 54 34.56 
" style="fill:none;stroke:#000000;stroke-linecap:square;stroke-linejoin:miter;stroke-width:0.8;"/>
   </g>
   <g id="patch_4">
    <path d="M 388.8 252 
L 388.8 34.56 
" style="fill:none;stroke:#000000;stroke-linecap:square;stroke-linejoin:miter;stroke-width:0.8;"/>
   </g>
   <g id="patch_5">
    <path d="M 54 252 
L 388.8 252 
" style="fill:none;stroke:#000000;stroke-linecap:square;stroke-linejoin:miter;stroke-width:0.8;"/>
   </g>
   <g id="patch_6">
    <path d="M 54 34.56 
L 388.8 34.56 
" style="fill:none;stroke:#000000;stroke-linecap:square;stroke-linejoin:miter;stroke-width:0.8;"/>
   </g>
   <g id="text_18">
    <!-- R-IMA -->
    <g transform="translate(204.255 28.56)scale(0.12 -0.12)">
     <defs>
      <path d="M 44.390625 34.1875 
Q 47.5625 33.109375 50.5625 29.59375 
Q 53.5625 26.078125 56.59375 19.921875 
L 66.609375 0 
L 56 0 
L 46.6875 18.703125 
Q 43.0625 26.03125 39.671875 28.421875 
Q 36.28125 30.8125 30.421875 30.8125 
L 19.671875 30.8125 
L 19.671875 0 
L 9.8125 0 
L 9.8125 72.90625 
L 32.078125 72.90625 
Q 44.578125 72.90625 50.734375 67.671875 
Q 56.890625 62.453125 56.890625 51.90625 
Q 56.890625 45.015625 53.6875 40.46875 
Q 50.484375 35.9375 44.390625 34.1875 
z
M 19.671875 64.796875 
L 19.671875 38.921875 
L 32.078125 38.921875 
Q 39.203125 38.921875 42.84375 42.21875 
Q 46.484375 45.515625 46.484375 51.90625 
Q 46.484375 58.296875 42.84375 61.546875 
Q 39.203125 64.796875 32.078125 64.796875 
z
" id="DejaVuSans-82"/>
      <path d="M 4.890625 31.390625 
L 31.203125 31.390625 
L 31.203125 23.390625 
L 4.890625 23.390625 
z
" id="DejaVuSans-45"/>
      <path d="M 9.8125 72.90625 
L 19.671875 72.90625 
L 19.671875 0 
L 9.8125 0 
z
" id="DejaVuSans-73"/>
      <path d="M 9.8125 72.90625 
L 24.515625 72.90625 
L 43.109375 23.296875 
L 61.8125 72.90625 
L 76.515625 72.90625 
L 76.515625 0 
L 66.890625 0 
L 66.890625 64.015625 
L 48.09375 14.015625 
L 38.1875 14.015625 
L 19.390625 64.015625 
L 19.390625 0 
L 9.8125 0 
z
" id="DejaVuSans-77"/>
      <path d="M 34.1875 63.1875 
L 20.796875 26.90625 
L 47.609375 26.90625 
z
M 28.609375 72.90625 
L 39.796875 72.90625 
L 67.578125 0 
L 57.328125 0 
L 50.6875 18.703125 
L 17.828125 18.703125 
L 11.1875 0 
L 0.78125 0 
z
" id="DejaVuSans-65"/>
     </defs>
     <use xlink:href="#DejaVuSans-82"/>
     <use x="65.482422" xlink:href="#DejaVuSans-45"/>
     <use x="101.566406" xlink:href="#DejaVuSans-73"/>
     <use x="131.058594" xlink:href="#DejaVuSans-77"/>
     <use x="217.337891" xlink:href="#DejaVuSans-65"/>
    </g>
   </g>
  </g>
 </g>
 <defs>
  <clipPath id="pfc6d334c89">
   <rect height="217.44" width="334.8" x="54" y="34.56"/>
  </clipPath>
 </defs>
</svg>
