<?xml version="1.0" encoding="utf-8" standalone="no"?>
<!DOCTYPE svg PUBLIC "-//W3C//DTD SVG 1.1//EN"
  "http://www.w3.org/Graphics/SVG/1.1/DTD/svg11.dtd">
<!-- Created with matplotlib (https://matplotlib.org/) -->
<svg height="288pt" version="1.1" viewBox="0 0 432 288" width="432pt" xmlns="http://www.w3.org/2000/svg" xmlns:xlink="http://www.w3.org/1999/xlink">
 <metadata>
  <rdf:RDF xmlns:cc="http://creativecommons.org/ns#" xmlns:dc="http://purl.org/dc/elements/1.1/" xmlns:rdf="http://www.w3.org/1999/02/22-rdf-syntax-ns#">
   <cc:Work>
    <dc:type rdf:resource="http://purl.org/dc/dcmitype/StillImage"/>
    <dc:date>2021-08-06T16:49:06.298598</dc:date>
    <dc:format>image/svg+xml</dc:format>
    <dc:creator>
     <cc:Agent>
      <dc:title>Matplotlib v3.3.4, https://matplotlib.org/</dc:title>
     </cc:Agent>
    </dc:creator>
   </cc:Work>
  </rdf:RDF>
 </metadata>
 <defs>
  <style type="text/css">*{stroke-linecap:butt;stroke-linejoin:round;}</style>
 </defs>
 <g id="figure_1">
  <g id="patch_1">
   <path d="M 0 288 
L 432 288 
L 432 0 
L 0 0 
z
" style="fill:#ffffff;"/>
  </g>
  <g id="axes_1">
   <g id="patch_2">
    <path d="M 54 252 
L 388.8 252 
L 388.8 34.56 
L 54 34.56 
z
" style="fill:#ffffff;"/>
   </g>
   <g id="matplotlib.axis_1">
    <g id="xtick_1">
     <g id="line2d_1">
      <defs>
       <path d="M 0 0 
L 0 3.5 
" id="m049b6df1b8" style="stroke:#000000;stroke-width:0.8;"/>
      </defs>
      <g>
       <use style="stroke:#000000;stroke-width:0.8;" x="66.876923" xlink:href="#m049b6df1b8" y="252"/>
      </g>
     </g>
     <g id="text_1">
      <!-- 200 -->
      <g transform="translate(57.333173 266.598437)scale(0.1 -0.1)">
       <defs>
        <path d="M 19.1875 8.296875 
L 53.609375 8.296875 
L 53.609375 0 
L 7.328125 0 
L 7.328125 8.296875 
Q 12.9375 14.109375 22.625 23.890625 
Q 32.328125 33.6875 34.8125 36.53125 
Q 39.546875 41.84375 41.421875 45.53125 
Q 43.3125 49.21875 43.3125 52.78125 
Q 43.3125 58.59375 39.234375 62.25 
Q 35.15625 65.921875 28.609375 65.921875 
Q 23.96875 65.921875 18.8125 64.3125 
Q 13.671875 62.703125 7.8125 59.421875 
L 7.8125 69.390625 
Q 13.765625 71.78125 18.9375 73 
Q 24.125 74.21875 28.421875 74.21875 
Q 39.75 74.21875 46.484375 68.546875 
Q 53.21875 62.890625 53.21875 53.421875 
Q 53.21875 48.921875 51.53125 44.890625 
Q 49.859375 40.875 45.40625 35.40625 
Q 44.1875 33.984375 37.640625 27.21875 
Q 31.109375 20.453125 19.1875 8.296875 
z
" id="DejaVuSans-50"/>
        <path d="M 31.78125 66.40625 
Q 24.171875 66.40625 20.328125 58.90625 
Q 16.5 51.421875 16.5 36.375 
Q 16.5 21.390625 20.328125 13.890625 
Q 24.171875 6.390625 31.78125 6.390625 
Q 39.453125 6.390625 43.28125 13.890625 
Q 47.125 21.390625 47.125 36.375 
Q 47.125 51.421875 43.28125 58.90625 
Q 39.453125 66.40625 31.78125 66.40625 
z
M 31.78125 74.21875 
Q 44.046875 74.21875 50.515625 64.515625 
Q 56.984375 54.828125 56.984375 36.375 
Q 56.984375 17.96875 50.515625 8.265625 
Q 44.046875 -1.421875 31.78125 -1.421875 
Q 19.53125 -1.421875 13.0625 8.265625 
Q 6.59375 17.96875 6.59375 36.375 
Q 6.59375 54.828125 13.0625 64.515625 
Q 19.53125 74.21875 31.78125 74.21875 
z
" id="DejaVuSans-48"/>
       </defs>
       <use xlink:href="#DejaVuSans-50"/>
       <use x="63.623047" xlink:href="#DejaVuSans-48"/>
       <use x="127.246094" xlink:href="#DejaVuSans-48"/>
      </g>
     </g>
    </g>
    <g id="xtick_2">
     <g id="line2d_2">
      <g>
       <use style="stroke:#000000;stroke-width:0.8;" x="131.261538" xlink:href="#m049b6df1b8" y="252"/>
      </g>
     </g>
     <g id="text_2">
      <!-- 250 -->
      <g transform="translate(121.717788 266.598437)scale(0.1 -0.1)">
       <defs>
        <path d="M 10.796875 72.90625 
L 49.515625 72.90625 
L 49.515625 64.59375 
L 19.828125 64.59375 
L 19.828125 46.734375 
Q 21.96875 47.46875 24.109375 47.828125 
Q 26.265625 48.1875 28.421875 48.1875 
Q 40.625 48.1875 47.75 41.5 
Q 54.890625 34.8125 54.890625 23.390625 
Q 54.890625 11.625 47.5625 5.09375 
Q 40.234375 -1.421875 26.90625 -1.421875 
Q 22.3125 -1.421875 17.546875 -0.640625 
Q 12.796875 0.140625 7.71875 1.703125 
L 7.71875 11.625 
Q 12.109375 9.234375 16.796875 8.0625 
Q 21.484375 6.890625 26.703125 6.890625 
Q 35.15625 6.890625 40.078125 11.328125 
Q 45.015625 15.765625 45.015625 23.390625 
Q 45.015625 31 40.078125 35.4375 
Q 35.15625 39.890625 26.703125 39.890625 
Q 22.75 39.890625 18.8125 39.015625 
Q 14.890625 38.140625 10.796875 36.28125 
z
" id="DejaVuSans-53"/>
       </defs>
       <use xlink:href="#DejaVuSans-50"/>
       <use x="63.623047" xlink:href="#DejaVuSans-53"/>
       <use x="127.246094" xlink:href="#DejaVuSans-48"/>
      </g>
     </g>
    </g>
    <g id="xtick_3">
     <g id="line2d_3">
      <g>
       <use style="stroke:#000000;stroke-width:0.8;" x="195.646154" xlink:href="#m049b6df1b8" y="252"/>
      </g>
     </g>
     <g id="text_3">
      <!-- 300 -->
      <g transform="translate(186.102404 266.598437)scale(0.1 -0.1)">
       <defs>
        <path d="M 40.578125 39.3125 
Q 47.65625 37.796875 51.625 33 
Q 55.609375 28.21875 55.609375 21.1875 
Q 55.609375 10.40625 48.1875 4.484375 
Q 40.765625 -1.421875 27.09375 -1.421875 
Q 22.515625 -1.421875 17.65625 -0.515625 
Q 12.796875 0.390625 7.625 2.203125 
L 7.625 11.71875 
Q 11.71875 9.328125 16.59375 8.109375 
Q 21.484375 6.890625 26.8125 6.890625 
Q 36.078125 6.890625 40.9375 10.546875 
Q 45.796875 14.203125 45.796875 21.1875 
Q 45.796875 27.640625 41.28125 31.265625 
Q 36.765625 34.90625 28.71875 34.90625 
L 20.21875 34.90625 
L 20.21875 43.015625 
L 29.109375 43.015625 
Q 36.375 43.015625 40.234375 45.921875 
Q 44.09375 48.828125 44.09375 54.296875 
Q 44.09375 59.90625 40.109375 62.90625 
Q 36.140625 65.921875 28.71875 65.921875 
Q 24.65625 65.921875 20.015625 65.03125 
Q 15.375 64.15625 9.8125 62.3125 
L 9.8125 71.09375 
Q 15.4375 72.65625 20.34375 73.4375 
Q 25.25 74.21875 29.59375 74.21875 
Q 40.828125 74.21875 47.359375 69.109375 
Q 53.90625 64.015625 53.90625 55.328125 
Q 53.90625 49.265625 50.4375 45.09375 
Q 46.96875 40.921875 40.578125 39.3125 
z
" id="DejaVuSans-51"/>
       </defs>
       <use xlink:href="#DejaVuSans-51"/>
       <use x="63.623047" xlink:href="#DejaVuSans-48"/>
       <use x="127.246094" xlink:href="#DejaVuSans-48"/>
      </g>
     </g>
    </g>
    <g id="xtick_4">
     <g id="line2d_4">
      <g>
       <use style="stroke:#000000;stroke-width:0.8;" x="260.030769" xlink:href="#m049b6df1b8" y="252"/>
      </g>
     </g>
     <g id="text_4">
      <!-- 350 -->
      <g transform="translate(250.487019 266.598437)scale(0.1 -0.1)">
       <use xlink:href="#DejaVuSans-51"/>
       <use x="63.623047" xlink:href="#DejaVuSans-53"/>
       <use x="127.246094" xlink:href="#DejaVuSans-48"/>
      </g>
     </g>
    </g>
    <g id="xtick_5">
     <g id="line2d_5">
      <g>
       <use style="stroke:#000000;stroke-width:0.8;" x="324.415385" xlink:href="#m049b6df1b8" y="252"/>
      </g>
     </g>
     <g id="text_5">
      <!-- 400 -->
      <g transform="translate(314.871635 266.598437)scale(0.1 -0.1)">
       <defs>
        <path d="M 37.796875 64.3125 
L 12.890625 25.390625 
L 37.796875 25.390625 
z
M 35.203125 72.90625 
L 47.609375 72.90625 
L 47.609375 25.390625 
L 58.015625 25.390625 
L 58.015625 17.1875 
L 47.609375 17.1875 
L 47.609375 0 
L 37.796875 0 
L 37.796875 17.1875 
L 4.890625 17.1875 
L 4.890625 26.703125 
z
" id="DejaVuSans-52"/>
       </defs>
       <use xlink:href="#DejaVuSans-52"/>
       <use x="63.623047" xlink:href="#DejaVuSans-48"/>
       <use x="127.246094" xlink:href="#DejaVuSans-48"/>
      </g>
     </g>
    </g>
    <g id="xtick_6">
     <g id="line2d_6">
      <g>
       <use style="stroke:#000000;stroke-width:0.8;" x="388.8" xlink:href="#m049b6df1b8" y="252"/>
      </g>
     </g>
     <g id="text_6">
      <!-- 450 -->
      <g transform="translate(379.25625 266.598437)scale(0.1 -0.1)">
       <use xlink:href="#DejaVuSans-52"/>
       <use x="63.623047" xlink:href="#DejaVuSans-53"/>
       <use x="127.246094" xlink:href="#DejaVuSans-48"/>
      </g>
     </g>
    </g>
    <g id="text_7">
     <!-- Wavelength (nm) -->
     <g transform="translate(178.207812 280.276563)scale(0.1 -0.1)">
      <defs>
       <path d="M 3.328125 72.90625 
L 13.28125 72.90625 
L 28.609375 11.28125 
L 43.890625 72.90625 
L 54.984375 72.90625 
L 70.3125 11.28125 
L 85.59375 72.90625 
L 95.609375 72.90625 
L 77.296875 0 
L 64.890625 0 
L 49.515625 63.28125 
L 33.984375 0 
L 21.578125 0 
z
" id="DejaVuSans-87"/>
       <path d="M 34.28125 27.484375 
Q 23.390625 27.484375 19.1875 25 
Q 14.984375 22.515625 14.984375 16.5 
Q 14.984375 11.71875 18.140625 8.90625 
Q 21.296875 6.109375 26.703125 6.109375 
Q 34.1875 6.109375 38.703125 11.40625 
Q 43.21875 16.703125 43.21875 25.484375 
L 43.21875 27.484375 
z
M 52.203125 31.203125 
L 52.203125 0 
L 43.21875 0 
L 43.21875 8.296875 
Q 40.140625 3.328125 35.546875 0.953125 
Q 30.953125 -1.421875 24.3125 -1.421875 
Q 15.921875 -1.421875 10.953125 3.296875 
Q 6 8.015625 6 15.921875 
Q 6 25.140625 12.171875 29.828125 
Q 18.359375 34.515625 30.609375 34.515625 
L 43.21875 34.515625 
L 43.21875 35.40625 
Q 43.21875 41.609375 39.140625 45 
Q 35.0625 48.390625 27.6875 48.390625 
Q 23 48.390625 18.546875 47.265625 
Q 14.109375 46.140625 10.015625 43.890625 
L 10.015625 52.203125 
Q 14.9375 54.109375 19.578125 55.046875 
Q 24.21875 56 28.609375 56 
Q 40.484375 56 46.34375 49.84375 
Q 52.203125 43.703125 52.203125 31.203125 
z
" id="DejaVuSans-97"/>
       <path d="M 2.984375 54.6875 
L 12.5 54.6875 
L 29.59375 8.796875 
L 46.6875 54.6875 
L 56.203125 54.6875 
L 35.6875 0 
L 23.484375 0 
z
" id="DejaVuSans-118"/>
       <path d="M 56.203125 29.59375 
L 56.203125 25.203125 
L 14.890625 25.203125 
Q 15.484375 15.921875 20.484375 11.0625 
Q 25.484375 6.203125 34.421875 6.203125 
Q 39.59375 6.203125 44.453125 7.46875 
Q 49.3125 8.734375 54.109375 11.28125 
L 54.109375 2.78125 
Q 49.265625 0.734375 44.1875 -0.34375 
Q 39.109375 -1.421875 33.890625 -1.421875 
Q 20.796875 -1.421875 13.15625 6.1875 
Q 5.515625 13.8125 5.515625 26.8125 
Q 5.515625 40.234375 12.765625 48.109375 
Q 20.015625 56 32.328125 56 
Q 43.359375 56 49.78125 48.890625 
Q 56.203125 41.796875 56.203125 29.59375 
z
M 47.21875 32.234375 
Q 47.125 39.59375 43.09375 43.984375 
Q 39.0625 48.390625 32.421875 48.390625 
Q 24.90625 48.390625 20.390625 44.140625 
Q 15.875 39.890625 15.1875 32.171875 
z
" id="DejaVuSans-101"/>
       <path d="M 9.421875 75.984375 
L 18.40625 75.984375 
L 18.40625 0 
L 9.421875 0 
z
" id="DejaVuSans-108"/>
       <path d="M 54.890625 33.015625 
L 54.890625 0 
L 45.90625 0 
L 45.90625 32.71875 
Q 45.90625 40.484375 42.875 44.328125 
Q 39.84375 48.1875 33.796875 48.1875 
Q 26.515625 48.1875 22.3125 43.546875 
Q 18.109375 38.921875 18.109375 30.90625 
L 18.109375 0 
L 9.078125 0 
L 9.078125 54.6875 
L 18.109375 54.6875 
L 18.109375 46.1875 
Q 21.34375 51.125 25.703125 53.5625 
Q 30.078125 56 35.796875 56 
Q 45.21875 56 50.046875 50.171875 
Q 54.890625 44.34375 54.890625 33.015625 
z
" id="DejaVuSans-110"/>
       <path d="M 45.40625 27.984375 
Q 45.40625 37.75 41.375 43.109375 
Q 37.359375 48.484375 30.078125 48.484375 
Q 22.859375 48.484375 18.828125 43.109375 
Q 14.796875 37.75 14.796875 27.984375 
Q 14.796875 18.265625 18.828125 12.890625 
Q 22.859375 7.515625 30.078125 7.515625 
Q 37.359375 7.515625 41.375 12.890625 
Q 45.40625 18.265625 45.40625 27.984375 
z
M 54.390625 6.78125 
Q 54.390625 -7.171875 48.1875 -13.984375 
Q 42 -20.796875 29.203125 -20.796875 
Q 24.46875 -20.796875 20.265625 -20.09375 
Q 16.0625 -19.390625 12.109375 -17.921875 
L 12.109375 -9.1875 
Q 16.0625 -11.328125 19.921875 -12.34375 
Q 23.78125 -13.375 27.78125 -13.375 
Q 36.625 -13.375 41.015625 -8.765625 
Q 45.40625 -4.15625 45.40625 5.171875 
L 45.40625 9.625 
Q 42.625 4.78125 38.28125 2.390625 
Q 33.9375 0 27.875 0 
Q 17.828125 0 11.671875 7.65625 
Q 5.515625 15.328125 5.515625 27.984375 
Q 5.515625 40.671875 11.671875 48.328125 
Q 17.828125 56 27.875 56 
Q 33.9375 56 38.28125 53.609375 
Q 42.625 51.21875 45.40625 46.390625 
L 45.40625 54.6875 
L 54.390625 54.6875 
z
" id="DejaVuSans-103"/>
       <path d="M 18.3125 70.21875 
L 18.3125 54.6875 
L 36.8125 54.6875 
L 36.8125 47.703125 
L 18.3125 47.703125 
L 18.3125 18.015625 
Q 18.3125 11.328125 20.140625 9.421875 
Q 21.96875 7.515625 27.59375 7.515625 
L 36.8125 7.515625 
L 36.8125 0 
L 27.59375 0 
Q 17.1875 0 13.234375 3.875 
Q 9.28125 7.765625 9.28125 18.015625 
L 9.28125 47.703125 
L 2.6875 47.703125 
L 2.6875 54.6875 
L 9.28125 54.6875 
L 9.28125 70.21875 
z
" id="DejaVuSans-116"/>
       <path d="M 54.890625 33.015625 
L 54.890625 0 
L 45.90625 0 
L 45.90625 32.71875 
Q 45.90625 40.484375 42.875 44.328125 
Q 39.84375 48.1875 33.796875 48.1875 
Q 26.515625 48.1875 22.3125 43.546875 
Q 18.109375 38.921875 18.109375 30.90625 
L 18.109375 0 
L 9.078125 0 
L 9.078125 75.984375 
L 18.109375 75.984375 
L 18.109375 46.1875 
Q 21.34375 51.125 25.703125 53.5625 
Q 30.078125 56 35.796875 56 
Q 45.21875 56 50.046875 50.171875 
Q 54.890625 44.34375 54.890625 33.015625 
z
" id="DejaVuSans-104"/>
       <path id="DejaVuSans-32"/>
       <path d="M 31 75.875 
Q 24.46875 64.65625 21.28125 53.65625 
Q 18.109375 42.671875 18.109375 31.390625 
Q 18.109375 20.125 21.3125 9.0625 
Q 24.515625 -2 31 -13.1875 
L 23.1875 -13.1875 
Q 15.875 -1.703125 12.234375 9.375 
Q 8.59375 20.453125 8.59375 31.390625 
Q 8.59375 42.28125 12.203125 53.3125 
Q 15.828125 64.359375 23.1875 75.875 
z
" id="DejaVuSans-40"/>
       <path d="M 52 44.1875 
Q 55.375 50.25 60.0625 53.125 
Q 64.75 56 71.09375 56 
Q 79.640625 56 84.28125 50.015625 
Q 88.921875 44.046875 88.921875 33.015625 
L 88.921875 0 
L 79.890625 0 
L 79.890625 32.71875 
Q 79.890625 40.578125 77.09375 44.375 
Q 74.3125 48.1875 68.609375 48.1875 
Q 61.625 48.1875 57.5625 43.546875 
Q 53.515625 38.921875 53.515625 30.90625 
L 53.515625 0 
L 44.484375 0 
L 44.484375 32.71875 
Q 44.484375 40.625 41.703125 44.40625 
Q 38.921875 48.1875 33.109375 48.1875 
Q 26.21875 48.1875 22.15625 43.53125 
Q 18.109375 38.875 18.109375 30.90625 
L 18.109375 0 
L 9.078125 0 
L 9.078125 54.6875 
L 18.109375 54.6875 
L 18.109375 46.1875 
Q 21.1875 51.21875 25.484375 53.609375 
Q 29.78125 56 35.6875 56 
Q 41.65625 56 45.828125 52.96875 
Q 50 49.953125 52 44.1875 
z
" id="DejaVuSans-109"/>
       <path d="M 8.015625 75.875 
L 15.828125 75.875 
Q 23.140625 64.359375 26.78125 53.3125 
Q 30.421875 42.28125 30.421875 31.390625 
Q 30.421875 20.453125 26.78125 9.375 
Q 23.140625 -1.703125 15.828125 -13.1875 
L 8.015625 -13.1875 
Q 14.5 -2 17.703125 9.0625 
Q 20.90625 20.125 20.90625 31.390625 
Q 20.90625 42.671875 17.703125 53.65625 
Q 14.5 64.65625 8.015625 75.875 
z
" id="DejaVuSans-41"/>
      </defs>
      <use xlink:href="#DejaVuSans-87"/>
      <use x="92.501953" xlink:href="#DejaVuSans-97"/>
      <use x="153.78125" xlink:href="#DejaVuSans-118"/>
      <use x="212.960938" xlink:href="#DejaVuSans-101"/>
      <use x="274.484375" xlink:href="#DejaVuSans-108"/>
      <use x="302.267578" xlink:href="#DejaVuSans-101"/>
      <use x="363.791016" xlink:href="#DejaVuSans-110"/>
      <use x="427.169922" xlink:href="#DejaVuSans-103"/>
      <use x="490.646484" xlink:href="#DejaVuSans-116"/>
      <use x="529.855469" xlink:href="#DejaVuSans-104"/>
      <use x="593.234375" xlink:href="#DejaVuSans-32"/>
      <use x="625.021484" xlink:href="#DejaVuSans-40"/>
      <use x="664.035156" xlink:href="#DejaVuSans-110"/>
      <use x="727.414062" xlink:href="#DejaVuSans-109"/>
      <use x="824.826172" xlink:href="#DejaVuSans-41"/>
     </g>
    </g>
   </g>
   <g id="matplotlib.axis_2">
    <g id="ytick_1">
     <g id="line2d_7">
      <defs>
       <path d="M 0 0 
L -3.5 0 
" id="mdf995015d8" style="stroke:#000000;stroke-width:0.8;"/>
      </defs>
      <g>
       <use style="stroke:#000000;stroke-width:0.8;" x="54" xlink:href="#mdf995015d8" y="237.623941"/>
      </g>
     </g>
     <g id="text_8">
      <!-- −4 -->
      <g transform="translate(32.257812 241.42316)scale(0.1 -0.1)">
       <defs>
        <path d="M 10.59375 35.5 
L 73.1875 35.5 
L 73.1875 27.203125 
L 10.59375 27.203125 
z
" id="DejaVuSans-8722"/>
       </defs>
       <use xlink:href="#DejaVuSans-8722"/>
       <use x="83.789062" xlink:href="#DejaVuSans-52"/>
      </g>
     </g>
    </g>
    <g id="ytick_2">
     <g id="line2d_8">
      <g>
       <use style="stroke:#000000;stroke-width:0.8;" x="54" xlink:href="#mdf995015d8" y="190.451971"/>
      </g>
     </g>
     <g id="text_9">
      <!-- −2 -->
      <g transform="translate(32.257812 194.251189)scale(0.1 -0.1)">
       <use xlink:href="#DejaVuSans-8722"/>
       <use x="83.789062" xlink:href="#DejaVuSans-50"/>
      </g>
     </g>
    </g>
    <g id="ytick_3">
     <g id="line2d_9">
      <g>
       <use style="stroke:#000000;stroke-width:0.8;" x="54" xlink:href="#mdf995015d8" y="143.28"/>
      </g>
     </g>
     <g id="text_10">
      <!-- 0 -->
      <g transform="translate(40.6375 147.079219)scale(0.1 -0.1)">
       <use xlink:href="#DejaVuSans-48"/>
      </g>
     </g>
    </g>
    <g id="ytick_4">
     <g id="line2d_10">
      <g>
       <use style="stroke:#000000;stroke-width:0.8;" x="54" xlink:href="#mdf995015d8" y="96.108029"/>
      </g>
     </g>
     <g id="text_11">
      <!-- 2 -->
      <g transform="translate(40.6375 99.907248)scale(0.1 -0.1)">
       <use xlink:href="#DejaVuSans-50"/>
      </g>
     </g>
    </g>
    <g id="ytick_5">
     <g id="line2d_11">
      <g>
       <use style="stroke:#000000;stroke-width:0.8;" x="54" xlink:href="#mdf995015d8" y="48.936059"/>
      </g>
     </g>
     <g id="text_12">
      <!-- 4 -->
      <g transform="translate(40.6375 52.735278)scale(0.1 -0.1)">
       <use xlink:href="#DejaVuSans-52"/>
      </g>
     </g>
    </g>
    <g id="text_13">
     <!-- CD (mDeg) -->
     <g transform="translate(26.178125 171.083125)rotate(-90)scale(0.1 -0.1)">
      <defs>
       <path d="M 64.40625 67.28125 
L 64.40625 56.890625 
Q 59.421875 61.53125 53.78125 63.8125 
Q 48.140625 66.109375 41.796875 66.109375 
Q 29.296875 66.109375 22.65625 58.46875 
Q 16.015625 50.828125 16.015625 36.375 
Q 16.015625 21.96875 22.65625 14.328125 
Q 29.296875 6.6875 41.796875 6.6875 
Q 48.140625 6.6875 53.78125 8.984375 
Q 59.421875 11.28125 64.40625 15.921875 
L 64.40625 5.609375 
Q 59.234375 2.09375 53.4375 0.328125 
Q 47.65625 -1.421875 41.21875 -1.421875 
Q 24.65625 -1.421875 15.125 8.703125 
Q 5.609375 18.84375 5.609375 36.375 
Q 5.609375 53.953125 15.125 64.078125 
Q 24.65625 74.21875 41.21875 74.21875 
Q 47.75 74.21875 53.53125 72.484375 
Q 59.328125 70.75 64.40625 67.28125 
z
" id="DejaVuSans-67"/>
       <path d="M 19.671875 64.796875 
L 19.671875 8.109375 
L 31.59375 8.109375 
Q 46.6875 8.109375 53.6875 14.9375 
Q 60.6875 21.78125 60.6875 36.53125 
Q 60.6875 51.171875 53.6875 57.984375 
Q 46.6875 64.796875 31.59375 64.796875 
z
M 9.8125 72.90625 
L 30.078125 72.90625 
Q 51.265625 72.90625 61.171875 64.09375 
Q 71.09375 55.28125 71.09375 36.53125 
Q 71.09375 17.671875 61.125 8.828125 
Q 51.171875 0 30.078125 0 
L 9.8125 0 
z
" id="DejaVuSans-68"/>
      </defs>
      <use xlink:href="#DejaVuSans-67"/>
      <use x="69.824219" xlink:href="#DejaVuSans-68"/>
      <use x="146.826172" xlink:href="#DejaVuSans-32"/>
      <use x="178.613281" xlink:href="#DejaVuSans-40"/>
      <use x="217.626953" xlink:href="#DejaVuSans-109"/>
      <use x="315.039062" xlink:href="#DejaVuSans-68"/>
      <use x="392.041016" xlink:href="#DejaVuSans-101"/>
      <use x="453.564453" xlink:href="#DejaVuSans-103"/>
      <use x="517.041016" xlink:href="#DejaVuSans-41"/>
     </g>
    </g>
   </g>
   <g id="line2d_12">
    <path clip-path="url(#p53670c936c)" d="M 54 143.28 
L 388.8 143.28 
" style="fill:none;stroke:#d1d1d1;stroke-linecap:square;stroke-width:1.5;"/>
   </g>
   <g id="line2d_13">
    <path clip-path="url(#p53670c936c)" d="M 388.8 142.710108 
L 388.156154 147.361696 
L 387.512308 146.50878 
L 386.868462 145.94116 
L 386.224615 144.720847 
L 385.580769 142.335794 
L 384.936923 144.467552 
L 384.293077 144.826222 
L 383.649231 144.068204 
L 383.005385 142.835784 
L 382.361538 142.415835 
L 381.717692 139.985109 
L 381.073846 138.7601 
L 380.43 136.316733 
L 379.142308 139.37475 
L 378.498462 143.130464 
L 377.854615 142.754639 
L 377.210769 143.782988 
L 376.566923 142.829413 
L 375.923077 141.649201 
L 375.279231 141.246949 
L 374.635385 142.417083 
L 373.991538 145.114317 
L 373.347692 145.093227 
L 372.703846 142.860016 
L 372.06 140.170707 
L 371.416154 140.952929 
L 370.772308 144.276798 
L 370.128462 142.937562 
L 369.484615 141.295246 
L 368.840769 136.723073 
L 368.196923 139.3268 
L 367.553077 139.201677 
L 366.909231 141.746578 
L 366.265385 142.339933 
L 365.621538 143.228331 
L 364.977692 144.844265 
L 364.333846 144.059217 
L 363.69 143.578688 
L 363.046154 142.70753 
L 362.402308 141.060009 
L 361.758462 140.440672 
L 361.114615 140.365975 
L 360.470769 141.859513 
L 359.826923 144.086617 
L 359.183077 143.926093 
L 358.539231 142.805481 
L 357.895385 142.166381 
L 357.251538 139.623111 
L 356.607692 141.24293 
L 355.963846 141.986351 
L 354.676154 145.196338 
L 354.032308 143.964314 
L 353.388462 143.366506 
L 352.744615 141.404391 
L 352.100769 142.738612 
L 351.456923 142.153328 
L 350.813077 143.685037 
L 350.169231 142.937706 
L 349.525385 144.698209 
L 348.881538 143.978841 
L 348.237692 144.240879 
L 347.593846 140.070513 
L 346.95 140.259838 
L 346.306154 139.127569 
L 345.662308 141.049355 
L 345.018462 143.527858 
L 344.374615 143.056386 
L 343.730769 143.534877 
L 343.086923 141.010512 
L 342.443077 139.982373 
L 341.799231 141.5534 
L 341.155385 142.478036 
L 339.867692 143.714463 
L 339.223846 143.494017 
L 338.58 144.83576 
L 337.936154 143.511628 
L 337.292308 146.236315 
L 336.648462 146.560292 
L 336.004615 147.554535 
L 335.360769 145.407055 
L 334.716923 144.291553 
L 334.073077 144.385772 
L 333.429231 143.912225 
L 332.785385 145.664661 
L 332.141538 143.226676 
L 331.497692 143.619343 
L 330.853846 143.520565 
L 330.21 144.238924 
L 329.566154 143.447794 
L 328.922308 145.031745 
L 328.278462 147.599608 
L 327.634615 147.801315 
L 326.990769 146.837309 
L 326.346923 148.117438 
L 325.703077 148.889313 
L 325.059231 150.099109 
L 324.415385 148.235864 
L 323.127692 146.553499 
L 322.483846 148.168785 
L 321.84 148.44927 
L 321.196154 148.243553 
L 319.908462 147.523001 
L 319.264615 147.601566 
L 318.620769 149.569675 
L 317.976923 150.463654 
L 317.333077 150.802726 
L 316.045385 147.580621 
L 315.401538 146.864857 
L 314.757692 147.402594 
L 314.113846 149.572293 
L 313.47 150.306595 
L 312.826154 152.394875 
L 312.182308 151.734656 
L 311.538462 152.231188 
L 310.894615 150.457192 
L 310.250769 149.531513 
L 309.606923 149.951626 
L 308.319231 154.041507 
L 307.675385 154.842888 
L 307.031538 154.699674 
L 306.387692 151.391951 
L 305.743846 150.569933 
L 305.1 150.409524 
L 304.456154 152.20713 
L 303.812308 152.819139 
L 303.168462 152.248453 
L 302.524615 152.150972 
L 301.880769 153.719817 
L 301.236923 154.635732 
L 300.593077 156.167807 
L 299.949231 155.655118 
L 299.305385 157.247078 
L 298.661538 157.316539 
L 298.017692 158.333614 
L 297.373846 156.652475 
L 296.73 153.489642 
L 296.086154 154.860271 
L 295.442308 153.799515 
L 294.798462 157.75229 
L 293.510769 159.455457 
L 291.579231 155.873053 
L 290.935385 155.71998 
L 290.291538 155.375011 
L 289.003846 156.371142 
L 288.36 158.357082 
L 286.428462 161.521826 
L 285.784615 161.100391 
L 285.140769 164.125765 
L 284.496923 164.834076 
L 283.853077 165.231925 
L 283.209231 164.875564 
L 282.565385 163.871343 
L 281.277692 160.619567 
L 280.633846 160.655489 
L 279.99 162.714451 
L 278.702308 165.396979 
L 277.414615 161.954746 
L 276.770769 161.977365 
L 276.126923 163.184071 
L 275.483077 165.306999 
L 274.839231 165.085432 
L 274.195385 161.756766 
L 273.551538 161.652987 
L 272.907692 163.319903 
L 271.62 170.166844 
L 270.976154 170.37275 
L 270.332308 168.713475 
L 269.688462 168.744373 
L 269.044615 167.773574 
L 268.400769 167.135337 
L 267.756923 168.174064 
L 267.113077 168.158733 
L 266.469231 168.770082 
L 265.825385 167.358932 
L 265.181538 166.28294 
L 264.537692 166.127131 
L 263.893846 167.128026 
L 263.25 168.370535 
L 261.962308 165.527834 
L 261.318462 164.588758 
L 260.674615 166.421201 
L 260.030769 166.695742 
L 259.386923 165.458444 
L 258.743077 164.579749 
L 258.099231 163.337357 
L 257.455385 164.020879 
L 256.167692 164.257187 
L 255.523846 165.245321 
L 254.88 164.076141 
L 254.236154 162.456444 
L 253.592308 161.732731 
L 252.948462 160.787783 
L 252.304615 160.754172 
L 251.660769 160.94312 
L 251.016923 161.267922 
L 250.373077 160.731341 
L 249.729231 160.43253 
L 249.085385 160.556522 
L 248.441538 160.494774 
L 247.797692 158.293305 
L 247.153846 157.868191 
L 246.51 156.474071 
L 245.222308 160.564919 
L 244.578462 160.668178 
L 243.934615 159.927578 
L 243.290769 157.7567 
L 242.646923 156.580986 
L 242.003077 156.171722 
L 241.359231 157.64679 
L 240.071538 152.755127 
L 239.427692 152.780576 
L 238.783846 154.642879 
L 238.14 156.953716 
L 237.496154 157.049805 
L 236.852308 155.106225 
L 236.208462 154.772318 
L 235.564615 153.528087 
L 234.920769 154.018086 
L 234.276923 153.28626 
L 233.633077 152.05118 
L 232.989231 151.858128 
L 232.345385 150.942686 
L 231.701538 151.437921 
L 231.057692 149.486157 
L 230.413846 148.412523 
L 229.77 148.63508 
L 229.126154 147.906249 
L 228.482308 149.115833 
L 227.838462 148.243057 
L 227.194615 149.273505 
L 226.550769 149.24098 
L 225.906923 147.983777 
L 225.263077 147.889621 
L 224.619231 148.322283 
L 223.975385 145.898587 
L 223.331538 144.020506 
L 222.687692 142.641872 
L 222.043846 142.464505 
L 221.4 143.435186 
L 220.756154 142.551611 
L 220.112308 143.790832 
L 219.468462 141.817093 
L 218.824615 143.104372 
L 218.180769 140.700165 
L 217.536923 139.717573 
L 216.893077 141.557704 
L 216.249231 141.736212 
L 215.605385 143.107119 
L 214.961538 141.680896 
L 214.317692 141.453421 
L 213.673846 140.602236 
L 213.03 140.36798 
L 212.386154 141.702609 
L 211.742308 141.461745 
L 211.098462 142.724276 
L 210.454615 143.054083 
L 209.166923 144.163456 
L 208.523077 142.856981 
L 207.879231 142.115168 
L 206.591538 141.02505 
L 205.947692 143.394374 
L 205.303846 142.16668 
L 204.66 141.976537 
L 204.016154 140.127096 
L 203.372308 142.36839 
L 202.728462 143.141249 
L 202.084615 142.658391 
L 201.440769 142.923826 
L 200.796923 140.748941 
L 200.153077 140.897792 
L 199.509231 141.307386 
L 198.865385 141.026994 
L 198.221538 140.19 
L 197.577692 140.926489 
L 196.933846 140.563484 
L 196.29 142.898801 
L 195.646154 141.715711 
L 195.002308 142.210505 
L 194.358462 140.917463 
L 193.714615 141.700439 
L 193.070769 141.825299 
L 192.426923 145.08687 
L 191.783077 143.977077 
L 191.139231 144.966365 
L 190.495385 144.830804 
L 189.207692 148.268153 
L 188.563846 148.28129 
L 187.92 146.752517 
L 187.276154 148.886978 
L 186.632308 148.754142 
L 185.988462 150.348979 
L 185.344615 148.736052 
L 184.700769 150.432544 
L 184.056923 151.19239 
L 183.413077 155.247623 
L 182.769231 155.257553 
L 182.125385 155.995511 
L 181.481538 153.800576 
L 180.837692 154.547921 
L 180.193846 155.06778 
L 179.55 157.377461 
L 178.906154 157.1558 
L 178.262308 158.575865 
L 177.618462 157.129691 
L 176.974615 158.483243 
L 176.330769 156.648985 
L 175.686923 158.830264 
L 174.399231 160.333799 
L 173.111538 160.954441 
L 172.467692 159.494091 
L 170.536154 150.182604 
L 169.892308 150.164395 
L 169.248462 147.929317 
L 168.604615 151.059837 
L 167.960769 149.5926 
L 167.316923 150.060145 
L 166.673077 149.962853 
L 166.029231 149.001606 
L 165.385385 149.909737 
L 164.741538 148.081187 
L 164.097692 147.510429 
L 163.453846 146.216738 
L 162.81 144.245356 
L 162.166154 144.34736 
L 161.522308 144.214823 
L 160.878462 143.591512 
L 160.234615 142.321784 
L 159.590769 138.86744 
L 158.946923 137.382254 
L 158.303077 134.870936 
L 157.659231 133.621846 
L 157.015385 135.586181 
L 156.371538 135.596512 
L 155.727692 136.585802 
L 155.083846 135.077431 
L 153.796154 133.159608 
L 153.152308 133.830369 
L 152.508462 133.605265 
L 151.864615 133.746403 
L 151.220769 133.647554 
L 150.576923 132.337164 
L 149.289231 123.601929 
L 148.645385 122.804204 
L 148.001538 120.715028 
L 147.357692 122.447702 
L 146.713846 121.620683 
L 146.07 121.598182 
L 145.426154 120.528558 
L 144.782308 118.942329 
L 144.138462 119.594482 
L 143.494615 119.777155 
L 142.850769 119.722011 
L 142.206923 118.94115 
L 141.563077 117.555473 
L 140.919231 120.51259 
L 139.631538 118.889969 
L 138.987692 117.511839 
L 138.343846 118.005022 
L 137.7 119.328904 
L 137.056154 124.261441 
L 136.412308 127.671786 
L 135.768462 129.689779 
L 135.124615 129.30153 
L 134.480769 128.777803 
L 133.836923 128.81922 
L 133.193077 132.74874 
L 131.905385 136.74463 
L 131.261538 138.49971 
L 130.617692 141.826294 
L 129.973846 143.147679 
L 129.33 147.414835 
L 128.686154 148.000806 
L 128.042308 156.793944 
L 127.398462 161.812428 
L 126.754615 169.139674 
L 126.110769 166.04491 
L 125.466923 166.991934 
L 124.823077 169.000989 
L 124.179231 172.941499 
L 123.535385 170.809798 
L 122.891538 169.511861 
L 122.247692 171.105094 
L 121.603846 176.872104 
L 120.96 175.183819 
L 120.316154 174.793235 
L 119.672308 174.921779 
L 119.028462 171.263592 
L 118.384615 177.920029 
L 117.740769 178.958048 
L 116.453077 188.418151 
L 115.809231 189.685898 
L 115.165385 191.718066 
L 114.521538 186.521838 
L 113.877692 186.406502 
L 113.233846 190.912133 
L 112.59 199.239401 
L 111.946154 201.133827 
L 111.302308 199.95783 
L 110.658462 199.688006 
L 110.014615 199.940377 
L 109.370769 204.736351 
L 108.726923 205.33001 
L 108.083077 208.226841 
L 107.439231 208.282268 
L 106.795385 207.457466 
L 105.507692 217.174656 
L 104.863846 223.50655 
L 104.22 219.487969 
L 103.576154 209.664407 
L 102.932308 216.776289 
L 102.288462 212.409343 
L 101.644615 216.635952 
L 101.000769 212.340237 
L 100.356923 214.974791 
L 99.713077 207.868334 
L 99.069231 203.197129 
L 98.425385 199.859005 
L 97.781538 191.324888 
L 97.137692 194.236106 
L 96.493846 184.647931 
L 95.85 183.49953 
L 94.562308 175.345147 
L 93.918462 175.95626 
L 93.274615 176.268302 
L 92.630769 178.922669 
L 91.986923 173.480203 
L 91.343077 163.020856 
L 90.699231 164.659516 
L 90.055385 159.540273 
L 89.411538 158.891257 
L 88.767692 160.098411 
L 88.123846 154.652289 
L 87.48 153.132927 
L 86.192308 138.616909 
L 85.548462 138.720829 
L 84.904615 147.178197 
L 84.260769 150.734233 
L 83.616923 150.766711 
L 82.329231 136.619624 
L 81.685385 120.815292 
L 81.041538 121.935273 
L 80.397692 115.674019 
L 79.753846 120.17465 
L 79.11 121.777837 
L 78.466154 118.882893 
L 77.822308 116.982098 
L 77.178462 101.345062 
L 75.890769 84.395937 
L 75.246923 87.528863 
L 74.603077 92.388048 
L 73.959231 96.377617 
L 73.315385 94.691219 
L 72.671538 90.091245 
L 71.383846 85.416267 
L 70.096154 92.305733 
L 69.452308 97.570596 
L 68.808462 93.717826 
L 68.164615 82.304332 
L 67.520769 74.001593 
L 66.233077 63.181522 
L 65.589231 65.798623 
L 64.945385 65.021465 
L 64.301538 58.285072 
L 63.657692 50.276451 
L 63.013846 44.443636 
L 62.37 47.67468 
L 61.726154 46.304806 
L 61.082308 45.789689 
L 60.438462 45.721289 
L 59.794615 49.880206 
L 59.150769 52.486693 
L 58.506923 58.656551 
L 57.863077 55.331399 
L 55.931538 69.651394 
L 55.287692 77.845401 
L 54.643846 80.292211 
L 54 75.99225 
L 54 75.99225 
" style="fill:none;stroke:#800080;stroke-linecap:square;stroke-width:1.5;"/>
   </g>
   <g id="line2d_14">
    <path clip-path="url(#p53670c936c)" d="M 104.22 219.487969 
" style="fill:none;stroke:#ff0000;stroke-linecap:square;stroke-width:1.5;"/>
    <defs>
     <path d="M 0 1.5 
C 0.397805 1.5 0.77937 1.341951 1.06066 1.06066 
C 1.341951 0.77937 1.5 0.397805 1.5 0 
C 1.5 -0.397805 1.341951 -0.77937 1.06066 -1.06066 
C 0.77937 -1.341951 0.397805 -1.5 0 -1.5 
C -0.397805 -1.5 -0.77937 -1.341951 -1.06066 -1.06066 
C -1.341951 -0.77937 -1.5 -0.397805 -1.5 0 
C -1.5 0.397805 -1.341951 0.77937 -1.06066 1.06066 
C -0.77937 1.341951 -0.397805 1.5 0 1.5 
z
" id="m385ffc6209" style="stroke:#ff0000;"/>
    </defs>
    <g clip-path="url(#p53670c936c)">
     <use style="fill:#ff0000;stroke:#ff0000;" x="104.22" xlink:href="#m385ffc6209" y="219.487969"/>
    </g>
   </g>
   <g id="patch_3">
    <path d="M 54 252 
L 54 34.56 
" style="fill:none;stroke:#000000;stroke-linecap:square;stroke-linejoin:miter;stroke-width:0.8;"/>
   </g>
   <g id="patch_4">
    <path d="M 388.8 252 
L 388.8 34.56 
" style="fill:none;stroke:#000000;stroke-linecap:square;stroke-linejoin:miter;stroke-width:0.8;"/>
   </g>
   <g id="patch_5">
    <path d="M 54 252 
L 388.8 252 
" style="fill:none;stroke:#000000;stroke-linecap:square;stroke-linejoin:miter;stroke-width:0.8;"/>
   </g>
   <g id="patch_6">
    <path d="M 54 34.56 
L 388.8 34.56 
" style="fill:none;stroke:#000000;stroke-linecap:square;stroke-linejoin:miter;stroke-width:0.8;"/>
   </g>
   <g id="text_14">
    <!-- 229 nm, -3.23 mDeg -->
    <g transform="translate(111.592038 221.393169)scale(0.1 -0.1)">
     <defs>
      <path d="M 10.984375 1.515625 
L 10.984375 10.5 
Q 14.703125 8.734375 18.5 7.8125 
Q 22.3125 6.890625 25.984375 6.890625 
Q 35.75 6.890625 40.890625 13.453125 
Q 46.046875 20.015625 46.78125 33.40625 
Q 43.953125 29.203125 39.59375 26.953125 
Q 35.25 24.703125 29.984375 24.703125 
Q 19.046875 24.703125 12.671875 31.3125 
Q 6.296875 37.9375 6.296875 49.421875 
Q 6.296875 60.640625 12.9375 67.421875 
Q 19.578125 74.21875 30.609375 74.21875 
Q 43.265625 74.21875 49.921875 64.515625 
Q 56.59375 54.828125 56.59375 36.375 
Q 56.59375 19.140625 48.40625 8.859375 
Q 40.234375 -1.421875 26.421875 -1.421875 
Q 22.703125 -1.421875 18.890625 -0.6875 
Q 15.09375 0.046875 10.984375 1.515625 
z
M 30.609375 32.421875 
Q 37.25 32.421875 41.125 36.953125 
Q 45.015625 41.5 45.015625 49.421875 
Q 45.015625 57.28125 41.125 61.84375 
Q 37.25 66.40625 30.609375 66.40625 
Q 23.96875 66.40625 20.09375 61.84375 
Q 16.21875 57.28125 16.21875 49.421875 
Q 16.21875 41.5 20.09375 36.953125 
Q 23.96875 32.421875 30.609375 32.421875 
z
" id="DejaVuSans-57"/>
      <path d="M 11.71875 12.40625 
L 22.015625 12.40625 
L 22.015625 4 
L 14.015625 -11.625 
L 7.71875 -11.625 
L 11.71875 4 
z
" id="DejaVuSans-44"/>
      <path d="M 4.890625 31.390625 
L 31.203125 31.390625 
L 31.203125 23.390625 
L 4.890625 23.390625 
z
" id="DejaVuSans-45"/>
      <path d="M 10.6875 12.40625 
L 21 12.40625 
L 21 0 
L 10.6875 0 
z
" id="DejaVuSans-46"/>
     </defs>
     <use xlink:href="#DejaVuSans-50"/>
     <use x="63.623047" xlink:href="#DejaVuSans-50"/>
     <use x="127.246094" xlink:href="#DejaVuSans-57"/>
     <use x="190.869141" xlink:href="#DejaVuSans-32"/>
     <use x="222.65625" xlink:href="#DejaVuSans-110"/>
     <use x="286.035156" xlink:href="#DejaVuSans-109"/>
     <use x="383.447266" xlink:href="#DejaVuSans-44"/>
     <use x="415.234375" xlink:href="#DejaVuSans-32"/>
     <use x="447.021484" xlink:href="#DejaVuSans-45"/>
     <use x="483.105469" xlink:href="#DejaVuSans-51"/>
     <use x="546.728516" xlink:href="#DejaVuSans-46"/>
     <use x="578.515625" xlink:href="#DejaVuSans-50"/>
     <use x="642.138672" xlink:href="#DejaVuSans-51"/>
     <use x="705.761719" xlink:href="#DejaVuSans-32"/>
     <use x="737.548828" xlink:href="#DejaVuSans-109"/>
     <use x="834.960938" xlink:href="#DejaVuSans-68"/>
     <use x="911.962891" xlink:href="#DejaVuSans-101"/>
     <use x="973.486328" xlink:href="#DejaVuSans-103"/>
    </g>
   </g>
   <g id="text_15">
    <!-- S-4ClMBA -->
    <g transform="translate(192.354375 28.56)scale(0.12 -0.12)">
     <defs>
      <path d="M 53.515625 70.515625 
L 53.515625 60.890625 
Q 47.90625 63.578125 42.921875 64.890625 
Q 37.9375 66.21875 33.296875 66.21875 
Q 25.25 66.21875 20.875 63.09375 
Q 16.5 59.96875 16.5 54.203125 
Q 16.5 49.359375 19.40625 46.890625 
Q 22.3125 44.4375 30.421875 42.921875 
L 36.375 41.703125 
Q 47.40625 39.59375 52.65625 34.296875 
Q 57.90625 29 57.90625 20.125 
Q 57.90625 9.515625 50.796875 4.046875 
Q 43.703125 -1.421875 29.984375 -1.421875 
Q 24.8125 -1.421875 18.96875 -0.25 
Q 13.140625 0.921875 6.890625 3.21875 
L 6.890625 13.375 
Q 12.890625 10.015625 18.65625 8.296875 
Q 24.421875 6.59375 29.984375 6.59375 
Q 38.421875 6.59375 43.015625 9.90625 
Q 47.609375 13.234375 47.609375 19.390625 
Q 47.609375 24.75 44.3125 27.78125 
Q 41.015625 30.8125 33.5 32.328125 
L 27.484375 33.5 
Q 16.453125 35.6875 11.515625 40.375 
Q 6.59375 45.0625 6.59375 53.421875 
Q 6.59375 63.09375 13.40625 68.65625 
Q 20.21875 74.21875 32.171875 74.21875 
Q 37.3125 74.21875 42.625 73.28125 
Q 47.953125 72.359375 53.515625 70.515625 
z
" id="DejaVuSans-83"/>
      <path d="M 9.8125 72.90625 
L 24.515625 72.90625 
L 43.109375 23.296875 
L 61.8125 72.90625 
L 76.515625 72.90625 
L 76.515625 0 
L 66.890625 0 
L 66.890625 64.015625 
L 48.09375 14.015625 
L 38.1875 14.015625 
L 19.390625 64.015625 
L 19.390625 0 
L 9.8125 0 
z
" id="DejaVuSans-77"/>
      <path d="M 19.671875 34.8125 
L 19.671875 8.109375 
L 35.5 8.109375 
Q 43.453125 8.109375 47.28125 11.40625 
Q 51.125 14.703125 51.125 21.484375 
Q 51.125 28.328125 47.28125 31.5625 
Q 43.453125 34.8125 35.5 34.8125 
z
M 19.671875 64.796875 
L 19.671875 42.828125 
L 34.28125 42.828125 
Q 41.5 42.828125 45.03125 45.53125 
Q 48.578125 48.25 48.578125 53.8125 
Q 48.578125 59.328125 45.03125 62.0625 
Q 41.5 64.796875 34.28125 64.796875 
z
M 9.8125 72.90625 
L 35.015625 72.90625 
Q 46.296875 72.90625 52.390625 68.21875 
Q 58.5 63.53125 58.5 54.890625 
Q 58.5 48.1875 55.375 44.234375 
Q 52.25 40.28125 46.1875 39.3125 
Q 53.46875 37.75 57.5 32.78125 
Q 61.53125 27.828125 61.53125 20.40625 
Q 61.53125 10.640625 54.890625 5.3125 
Q 48.25 0 35.984375 0 
L 9.8125 0 
z
" id="DejaVuSans-66"/>
      <path d="M 34.1875 63.1875 
L 20.796875 26.90625 
L 47.609375 26.90625 
z
M 28.609375 72.90625 
L 39.796875 72.90625 
L 67.578125 0 
L 57.328125 0 
L 50.6875 18.703125 
L 17.828125 18.703125 
L 11.1875 0 
L 0.78125 0 
z
" id="DejaVuSans-65"/>
     </defs>
     <use xlink:href="#DejaVuSans-83"/>
     <use x="63.476562" xlink:href="#DejaVuSans-45"/>
     <use x="99.560547" xlink:href="#DejaVuSans-52"/>
     <use x="163.183594" xlink:href="#DejaVuSans-67"/>
     <use x="233.007812" xlink:href="#DejaVuSans-108"/>
     <use x="260.791016" xlink:href="#DejaVuSans-77"/>
     <use x="347.070312" xlink:href="#DejaVuSans-66"/>
     <use x="415.673828" xlink:href="#DejaVuSans-65"/>
    </g>
   </g>
  </g>
 </g>
 <defs>
  <clipPath id="p53670c936c">
   <rect height="217.44" width="334.8" x="54" y="34.56"/>
  </clipPath>
 </defs>
</svg>
