<?xml version="1.0" encoding="utf-8" standalone="no"?>
<!DOCTYPE svg PUBLIC "-//W3C//DTD SVG 1.1//EN"
  "http://www.w3.org/Graphics/SVG/1.1/DTD/svg11.dtd">
<!-- Created with matplotlib (https://matplotlib.org/) -->
<svg height="288pt" version="1.1" viewBox="0 0 432 288" width="432pt" xmlns="http://www.w3.org/2000/svg" xmlns:xlink="http://www.w3.org/1999/xlink">
 <metadata>
  <rdf:RDF xmlns:cc="http://creativecommons.org/ns#" xmlns:dc="http://purl.org/dc/elements/1.1/" xmlns:rdf="http://www.w3.org/1999/02/22-rdf-syntax-ns#">
   <cc:Work>
    <dc:type rdf:resource="http://purl.org/dc/dcmitype/StillImage"/>
    <dc:date>2021-08-06T16:49:08.107189</dc:date>
    <dc:format>image/svg+xml</dc:format>
    <dc:creator>
     <cc:Agent>
      <dc:title>Matplotlib v3.3.4, https://matplotlib.org/</dc:title>
     </cc:Agent>
    </dc:creator>
   </cc:Work>
  </rdf:RDF>
 </metadata>
 <defs>
  <style type="text/css">*{stroke-linecap:butt;stroke-linejoin:round;}</style>
 </defs>
 <g id="figure_1">
  <g id="patch_1">
   <path d="M 0 288 
L 432 288 
L 432 0 
L 0 0 
z
" style="fill:#ffffff;"/>
  </g>
  <g id="axes_1">
   <g id="patch_2">
    <path d="M 54 252 
L 388.8 252 
L 388.8 34.56 
L 54 34.56 
z
" style="fill:#ffffff;"/>
   </g>
   <g id="matplotlib.axis_1">
    <g id="xtick_1">
     <g id="line2d_1">
      <defs>
       <path d="M 0 0 
L 0 3.5 
" id="mda23e7a984" style="stroke:#000000;stroke-width:0.8;"/>
      </defs>
      <g>
       <use style="stroke:#000000;stroke-width:0.8;" x="66.876923" xlink:href="#mda23e7a984" y="252"/>
      </g>
     </g>
     <g id="text_1">
      <!-- 200 -->
      <g transform="translate(57.333173 266.598437)scale(0.1 -0.1)">
       <defs>
        <path d="M 19.1875 8.296875 
L 53.609375 8.296875 
L 53.609375 0 
L 7.328125 0 
L 7.328125 8.296875 
Q 12.9375 14.109375 22.625 23.890625 
Q 32.328125 33.6875 34.8125 36.53125 
Q 39.546875 41.84375 41.421875 45.53125 
Q 43.3125 49.21875 43.3125 52.78125 
Q 43.3125 58.59375 39.234375 62.25 
Q 35.15625 65.921875 28.609375 65.921875 
Q 23.96875 65.921875 18.8125 64.3125 
Q 13.671875 62.703125 7.8125 59.421875 
L 7.8125 69.390625 
Q 13.765625 71.78125 18.9375 73 
Q 24.125 74.21875 28.421875 74.21875 
Q 39.75 74.21875 46.484375 68.546875 
Q 53.21875 62.890625 53.21875 53.421875 
Q 53.21875 48.921875 51.53125 44.890625 
Q 49.859375 40.875 45.40625 35.40625 
Q 44.1875 33.984375 37.640625 27.21875 
Q 31.109375 20.453125 19.1875 8.296875 
z
" id="DejaVuSans-50"/>
        <path d="M 31.78125 66.40625 
Q 24.171875 66.40625 20.328125 58.90625 
Q 16.5 51.421875 16.5 36.375 
Q 16.5 21.390625 20.328125 13.890625 
Q 24.171875 6.390625 31.78125 6.390625 
Q 39.453125 6.390625 43.28125 13.890625 
Q 47.125 21.390625 47.125 36.375 
Q 47.125 51.421875 43.28125 58.90625 
Q 39.453125 66.40625 31.78125 66.40625 
z
M 31.78125 74.21875 
Q 44.046875 74.21875 50.515625 64.515625 
Q 56.984375 54.828125 56.984375 36.375 
Q 56.984375 17.96875 50.515625 8.265625 
Q 44.046875 -1.421875 31.78125 -1.421875 
Q 19.53125 -1.421875 13.0625 8.265625 
Q 6.59375 17.96875 6.59375 36.375 
Q 6.59375 54.828125 13.0625 64.515625 
Q 19.53125 74.21875 31.78125 74.21875 
z
" id="DejaVuSans-48"/>
       </defs>
       <use xlink:href="#DejaVuSans-50"/>
       <use x="63.623047" xlink:href="#DejaVuSans-48"/>
       <use x="127.246094" xlink:href="#DejaVuSans-48"/>
      </g>
     </g>
    </g>
    <g id="xtick_2">
     <g id="line2d_2">
      <g>
       <use style="stroke:#000000;stroke-width:0.8;" x="131.261538" xlink:href="#mda23e7a984" y="252"/>
      </g>
     </g>
     <g id="text_2">
      <!-- 250 -->
      <g transform="translate(121.717788 266.598437)scale(0.1 -0.1)">
       <defs>
        <path d="M 10.796875 72.90625 
L 49.515625 72.90625 
L 49.515625 64.59375 
L 19.828125 64.59375 
L 19.828125 46.734375 
Q 21.96875 47.46875 24.109375 47.828125 
Q 26.265625 48.1875 28.421875 48.1875 
Q 40.625 48.1875 47.75 41.5 
Q 54.890625 34.8125 54.890625 23.390625 
Q 54.890625 11.625 47.5625 5.09375 
Q 40.234375 -1.421875 26.90625 -1.421875 
Q 22.3125 -1.421875 17.546875 -0.640625 
Q 12.796875 0.140625 7.71875 1.703125 
L 7.71875 11.625 
Q 12.109375 9.234375 16.796875 8.0625 
Q 21.484375 6.890625 26.703125 6.890625 
Q 35.15625 6.890625 40.078125 11.328125 
Q 45.015625 15.765625 45.015625 23.390625 
Q 45.015625 31 40.078125 35.4375 
Q 35.15625 39.890625 26.703125 39.890625 
Q 22.75 39.890625 18.8125 39.015625 
Q 14.890625 38.140625 10.796875 36.28125 
z
" id="DejaVuSans-53"/>
       </defs>
       <use xlink:href="#DejaVuSans-50"/>
       <use x="63.623047" xlink:href="#DejaVuSans-53"/>
       <use x="127.246094" xlink:href="#DejaVuSans-48"/>
      </g>
     </g>
    </g>
    <g id="xtick_3">
     <g id="line2d_3">
      <g>
       <use style="stroke:#000000;stroke-width:0.8;" x="195.646154" xlink:href="#mda23e7a984" y="252"/>
      </g>
     </g>
     <g id="text_3">
      <!-- 300 -->
      <g transform="translate(186.102404 266.598437)scale(0.1 -0.1)">
       <defs>
        <path d="M 40.578125 39.3125 
Q 47.65625 37.796875 51.625 33 
Q 55.609375 28.21875 55.609375 21.1875 
Q 55.609375 10.40625 48.1875 4.484375 
Q 40.765625 -1.421875 27.09375 -1.421875 
Q 22.515625 -1.421875 17.65625 -0.515625 
Q 12.796875 0.390625 7.625 2.203125 
L 7.625 11.71875 
Q 11.71875 9.328125 16.59375 8.109375 
Q 21.484375 6.890625 26.8125 6.890625 
Q 36.078125 6.890625 40.9375 10.546875 
Q 45.796875 14.203125 45.796875 21.1875 
Q 45.796875 27.640625 41.28125 31.265625 
Q 36.765625 34.90625 28.71875 34.90625 
L 20.21875 34.90625 
L 20.21875 43.015625 
L 29.109375 43.015625 
Q 36.375 43.015625 40.234375 45.921875 
Q 44.09375 48.828125 44.09375 54.296875 
Q 44.09375 59.90625 40.109375 62.90625 
Q 36.140625 65.921875 28.71875 65.921875 
Q 24.65625 65.921875 20.015625 65.03125 
Q 15.375 64.15625 9.8125 62.3125 
L 9.8125 71.09375 
Q 15.4375 72.65625 20.34375 73.4375 
Q 25.25 74.21875 29.59375 74.21875 
Q 40.828125 74.21875 47.359375 69.109375 
Q 53.90625 64.015625 53.90625 55.328125 
Q 53.90625 49.265625 50.4375 45.09375 
Q 46.96875 40.921875 40.578125 39.3125 
z
" id="DejaVuSans-51"/>
       </defs>
       <use xlink:href="#DejaVuSans-51"/>
       <use x="63.623047" xlink:href="#DejaVuSans-48"/>
       <use x="127.246094" xlink:href="#DejaVuSans-48"/>
      </g>
     </g>
    </g>
    <g id="xtick_4">
     <g id="line2d_4">
      <g>
       <use style="stroke:#000000;stroke-width:0.8;" x="260.030769" xlink:href="#mda23e7a984" y="252"/>
      </g>
     </g>
     <g id="text_4">
      <!-- 350 -->
      <g transform="translate(250.487019 266.598437)scale(0.1 -0.1)">
       <use xlink:href="#DejaVuSans-51"/>
       <use x="63.623047" xlink:href="#DejaVuSans-53"/>
       <use x="127.246094" xlink:href="#DejaVuSans-48"/>
      </g>
     </g>
    </g>
    <g id="xtick_5">
     <g id="line2d_5">
      <g>
       <use style="stroke:#000000;stroke-width:0.8;" x="324.415385" xlink:href="#mda23e7a984" y="252"/>
      </g>
     </g>
     <g id="text_5">
      <!-- 400 -->
      <g transform="translate(314.871635 266.598437)scale(0.1 -0.1)">
       <defs>
        <path d="M 37.796875 64.3125 
L 12.890625 25.390625 
L 37.796875 25.390625 
z
M 35.203125 72.90625 
L 47.609375 72.90625 
L 47.609375 25.390625 
L 58.015625 25.390625 
L 58.015625 17.1875 
L 47.609375 17.1875 
L 47.609375 0 
L 37.796875 0 
L 37.796875 17.1875 
L 4.890625 17.1875 
L 4.890625 26.703125 
z
" id="DejaVuSans-52"/>
       </defs>
       <use xlink:href="#DejaVuSans-52"/>
       <use x="63.623047" xlink:href="#DejaVuSans-48"/>
       <use x="127.246094" xlink:href="#DejaVuSans-48"/>
      </g>
     </g>
    </g>
    <g id="xtick_6">
     <g id="line2d_6">
      <g>
       <use style="stroke:#000000;stroke-width:0.8;" x="388.8" xlink:href="#mda23e7a984" y="252"/>
      </g>
     </g>
     <g id="text_6">
      <!-- 450 -->
      <g transform="translate(379.25625 266.598437)scale(0.1 -0.1)">
       <use xlink:href="#DejaVuSans-52"/>
       <use x="63.623047" xlink:href="#DejaVuSans-53"/>
       <use x="127.246094" xlink:href="#DejaVuSans-48"/>
      </g>
     </g>
    </g>
    <g id="text_7">
     <!-- Wavelength (nm) -->
     <g transform="translate(178.207812 280.276563)scale(0.1 -0.1)">
      <defs>
       <path d="M 3.328125 72.90625 
L 13.28125 72.90625 
L 28.609375 11.28125 
L 43.890625 72.90625 
L 54.984375 72.90625 
L 70.3125 11.28125 
L 85.59375 72.90625 
L 95.609375 72.90625 
L 77.296875 0 
L 64.890625 0 
L 49.515625 63.28125 
L 33.984375 0 
L 21.578125 0 
z
" id="DejaVuSans-87"/>
       <path d="M 34.28125 27.484375 
Q 23.390625 27.484375 19.1875 25 
Q 14.984375 22.515625 14.984375 16.5 
Q 14.984375 11.71875 18.140625 8.90625 
Q 21.296875 6.109375 26.703125 6.109375 
Q 34.1875 6.109375 38.703125 11.40625 
Q 43.21875 16.703125 43.21875 25.484375 
L 43.21875 27.484375 
z
M 52.203125 31.203125 
L 52.203125 0 
L 43.21875 0 
L 43.21875 8.296875 
Q 40.140625 3.328125 35.546875 0.953125 
Q 30.953125 -1.421875 24.3125 -1.421875 
Q 15.921875 -1.421875 10.953125 3.296875 
Q 6 8.015625 6 15.921875 
Q 6 25.140625 12.171875 29.828125 
Q 18.359375 34.515625 30.609375 34.515625 
L 43.21875 34.515625 
L 43.21875 35.40625 
Q 43.21875 41.609375 39.140625 45 
Q 35.0625 48.390625 27.6875 48.390625 
Q 23 48.390625 18.546875 47.265625 
Q 14.109375 46.140625 10.015625 43.890625 
L 10.015625 52.203125 
Q 14.9375 54.109375 19.578125 55.046875 
Q 24.21875 56 28.609375 56 
Q 40.484375 56 46.34375 49.84375 
Q 52.203125 43.703125 52.203125 31.203125 
z
" id="DejaVuSans-97"/>
       <path d="M 2.984375 54.6875 
L 12.5 54.6875 
L 29.59375 8.796875 
L 46.6875 54.6875 
L 56.203125 54.6875 
L 35.6875 0 
L 23.484375 0 
z
" id="DejaVuSans-118"/>
       <path d="M 56.203125 29.59375 
L 56.203125 25.203125 
L 14.890625 25.203125 
Q 15.484375 15.921875 20.484375 11.0625 
Q 25.484375 6.203125 34.421875 6.203125 
Q 39.59375 6.203125 44.453125 7.46875 
Q 49.3125 8.734375 54.109375 11.28125 
L 54.109375 2.78125 
Q 49.265625 0.734375 44.1875 -0.34375 
Q 39.109375 -1.421875 33.890625 -1.421875 
Q 20.796875 -1.421875 13.15625 6.1875 
Q 5.515625 13.8125 5.515625 26.8125 
Q 5.515625 40.234375 12.765625 48.109375 
Q 20.015625 56 32.328125 56 
Q 43.359375 56 49.78125 48.890625 
Q 56.203125 41.796875 56.203125 29.59375 
z
M 47.21875 32.234375 
Q 47.125 39.59375 43.09375 43.984375 
Q 39.0625 48.390625 32.421875 48.390625 
Q 24.90625 48.390625 20.390625 44.140625 
Q 15.875 39.890625 15.1875 32.171875 
z
" id="DejaVuSans-101"/>
       <path d="M 9.421875 75.984375 
L 18.40625 75.984375 
L 18.40625 0 
L 9.421875 0 
z
" id="DejaVuSans-108"/>
       <path d="M 54.890625 33.015625 
L 54.890625 0 
L 45.90625 0 
L 45.90625 32.71875 
Q 45.90625 40.484375 42.875 44.328125 
Q 39.84375 48.1875 33.796875 48.1875 
Q 26.515625 48.1875 22.3125 43.546875 
Q 18.109375 38.921875 18.109375 30.90625 
L 18.109375 0 
L 9.078125 0 
L 9.078125 54.6875 
L 18.109375 54.6875 
L 18.109375 46.1875 
Q 21.34375 51.125 25.703125 53.5625 
Q 30.078125 56 35.796875 56 
Q 45.21875 56 50.046875 50.171875 
Q 54.890625 44.34375 54.890625 33.015625 
z
" id="DejaVuSans-110"/>
       <path d="M 45.40625 27.984375 
Q 45.40625 37.75 41.375 43.109375 
Q 37.359375 48.484375 30.078125 48.484375 
Q 22.859375 48.484375 18.828125 43.109375 
Q 14.796875 37.75 14.796875 27.984375 
Q 14.796875 18.265625 18.828125 12.890625 
Q 22.859375 7.515625 30.078125 7.515625 
Q 37.359375 7.515625 41.375 12.890625 
Q 45.40625 18.265625 45.40625 27.984375 
z
M 54.390625 6.78125 
Q 54.390625 -7.171875 48.1875 -13.984375 
Q 42 -20.796875 29.203125 -20.796875 
Q 24.46875 -20.796875 20.265625 -20.09375 
Q 16.0625 -19.390625 12.109375 -17.921875 
L 12.109375 -9.1875 
Q 16.0625 -11.328125 19.921875 -12.34375 
Q 23.78125 -13.375 27.78125 -13.375 
Q 36.625 -13.375 41.015625 -8.765625 
Q 45.40625 -4.15625 45.40625 5.171875 
L 45.40625 9.625 
Q 42.625 4.78125 38.28125 2.390625 
Q 33.9375 0 27.875 0 
Q 17.828125 0 11.671875 7.65625 
Q 5.515625 15.328125 5.515625 27.984375 
Q 5.515625 40.671875 11.671875 48.328125 
Q 17.828125 56 27.875 56 
Q 33.9375 56 38.28125 53.609375 
Q 42.625 51.21875 45.40625 46.390625 
L 45.40625 54.6875 
L 54.390625 54.6875 
z
" id="DejaVuSans-103"/>
       <path d="M 18.3125 70.21875 
L 18.3125 54.6875 
L 36.8125 54.6875 
L 36.8125 47.703125 
L 18.3125 47.703125 
L 18.3125 18.015625 
Q 18.3125 11.328125 20.140625 9.421875 
Q 21.96875 7.515625 27.59375 7.515625 
L 36.8125 7.515625 
L 36.8125 0 
L 27.59375 0 
Q 17.1875 0 13.234375 3.875 
Q 9.28125 7.765625 9.28125 18.015625 
L 9.28125 47.703125 
L 2.6875 47.703125 
L 2.6875 54.6875 
L 9.28125 54.6875 
L 9.28125 70.21875 
z
" id="DejaVuSans-116"/>
       <path d="M 54.890625 33.015625 
L 54.890625 0 
L 45.90625 0 
L 45.90625 32.71875 
Q 45.90625 40.484375 42.875 44.328125 
Q 39.84375 48.1875 33.796875 48.1875 
Q 26.515625 48.1875 22.3125 43.546875 
Q 18.109375 38.921875 18.109375 30.90625 
L 18.109375 0 
L 9.078125 0 
L 9.078125 75.984375 
L 18.109375 75.984375 
L 18.109375 46.1875 
Q 21.34375 51.125 25.703125 53.5625 
Q 30.078125 56 35.796875 56 
Q 45.21875 56 50.046875 50.171875 
Q 54.890625 44.34375 54.890625 33.015625 
z
" id="DejaVuSans-104"/>
       <path id="DejaVuSans-32"/>
       <path d="M 31 75.875 
Q 24.46875 64.65625 21.28125 53.65625 
Q 18.109375 42.671875 18.109375 31.390625 
Q 18.109375 20.125 21.3125 9.0625 
Q 24.515625 -2 31 -13.1875 
L 23.1875 -13.1875 
Q 15.875 -1.703125 12.234375 9.375 
Q 8.59375 20.453125 8.59375 31.390625 
Q 8.59375 42.28125 12.203125 53.3125 
Q 15.828125 64.359375 23.1875 75.875 
z
" id="DejaVuSans-40"/>
       <path d="M 52 44.1875 
Q 55.375 50.25 60.0625 53.125 
Q 64.75 56 71.09375 56 
Q 79.640625 56 84.28125 50.015625 
Q 88.921875 44.046875 88.921875 33.015625 
L 88.921875 0 
L 79.890625 0 
L 79.890625 32.71875 
Q 79.890625 40.578125 77.09375 44.375 
Q 74.3125 48.1875 68.609375 48.1875 
Q 61.625 48.1875 57.5625 43.546875 
Q 53.515625 38.921875 53.515625 30.90625 
L 53.515625 0 
L 44.484375 0 
L 44.484375 32.71875 
Q 44.484375 40.625 41.703125 44.40625 
Q 38.921875 48.1875 33.109375 48.1875 
Q 26.21875 48.1875 22.15625 43.53125 
Q 18.109375 38.875 18.109375 30.90625 
L 18.109375 0 
L 9.078125 0 
L 9.078125 54.6875 
L 18.109375 54.6875 
L 18.109375 46.1875 
Q 21.1875 51.21875 25.484375 53.609375 
Q 29.78125 56 35.6875 56 
Q 41.65625 56 45.828125 52.96875 
Q 50 49.953125 52 44.1875 
z
" id="DejaVuSans-109"/>
       <path d="M 8.015625 75.875 
L 15.828125 75.875 
Q 23.140625 64.359375 26.78125 53.3125 
Q 30.421875 42.28125 30.421875 31.390625 
Q 30.421875 20.453125 26.78125 9.375 
Q 23.140625 -1.703125 15.828125 -13.1875 
L 8.015625 -13.1875 
Q 14.5 -2 17.703125 9.0625 
Q 20.90625 20.125 20.90625 31.390625 
Q 20.90625 42.671875 17.703125 53.65625 
Q 14.5 64.65625 8.015625 75.875 
z
" id="DejaVuSans-41"/>
      </defs>
      <use xlink:href="#DejaVuSans-87"/>
      <use x="92.501953" xlink:href="#DejaVuSans-97"/>
      <use x="153.78125" xlink:href="#DejaVuSans-118"/>
      <use x="212.960938" xlink:href="#DejaVuSans-101"/>
      <use x="274.484375" xlink:href="#DejaVuSans-108"/>
      <use x="302.267578" xlink:href="#DejaVuSans-101"/>
      <use x="363.791016" xlink:href="#DejaVuSans-110"/>
      <use x="427.169922" xlink:href="#DejaVuSans-103"/>
      <use x="490.646484" xlink:href="#DejaVuSans-116"/>
      <use x="529.855469" xlink:href="#DejaVuSans-104"/>
      <use x="593.234375" xlink:href="#DejaVuSans-32"/>
      <use x="625.021484" xlink:href="#DejaVuSans-40"/>
      <use x="664.035156" xlink:href="#DejaVuSans-110"/>
      <use x="727.414062" xlink:href="#DejaVuSans-109"/>
      <use x="824.826172" xlink:href="#DejaVuSans-41"/>
     </g>
    </g>
   </g>
   <g id="matplotlib.axis_2">
    <g id="ytick_1">
     <g id="line2d_7">
      <defs>
       <path d="M 0 0 
L -3.5 0 
" id="md3236ebc53" style="stroke:#000000;stroke-width:0.8;"/>
      </defs>
      <g>
       <use style="stroke:#000000;stroke-width:0.8;" x="54" xlink:href="#md3236ebc53" y="221.073434"/>
      </g>
     </g>
     <g id="text_8">
      <!-- −4 -->
      <g transform="translate(32.257812 224.872653)scale(0.1 -0.1)">
       <defs>
        <path d="M 10.59375 35.5 
L 73.1875 35.5 
L 73.1875 27.203125 
L 10.59375 27.203125 
z
" id="DejaVuSans-8722"/>
       </defs>
       <use xlink:href="#DejaVuSans-8722"/>
       <use x="83.789062" xlink:href="#DejaVuSans-52"/>
      </g>
     </g>
    </g>
    <g id="ytick_2">
     <g id="line2d_8">
      <g>
       <use style="stroke:#000000;stroke-width:0.8;" x="54" xlink:href="#md3236ebc53" y="182.176717"/>
      </g>
     </g>
     <g id="text_9">
      <!-- −2 -->
      <g transform="translate(32.257812 185.975936)scale(0.1 -0.1)">
       <use xlink:href="#DejaVuSans-8722"/>
       <use x="83.789062" xlink:href="#DejaVuSans-50"/>
      </g>
     </g>
    </g>
    <g id="ytick_3">
     <g id="line2d_9">
      <g>
       <use style="stroke:#000000;stroke-width:0.8;" x="54" xlink:href="#md3236ebc53" y="143.28"/>
      </g>
     </g>
     <g id="text_10">
      <!-- 0 -->
      <g transform="translate(40.6375 147.079219)scale(0.1 -0.1)">
       <use xlink:href="#DejaVuSans-48"/>
      </g>
     </g>
    </g>
    <g id="ytick_4">
     <g id="line2d_10">
      <g>
       <use style="stroke:#000000;stroke-width:0.8;" x="54" xlink:href="#md3236ebc53" y="104.383283"/>
      </g>
     </g>
     <g id="text_11">
      <!-- 2 -->
      <g transform="translate(40.6375 108.182502)scale(0.1 -0.1)">
       <use xlink:href="#DejaVuSans-50"/>
      </g>
     </g>
    </g>
    <g id="ytick_5">
     <g id="line2d_11">
      <g>
       <use style="stroke:#000000;stroke-width:0.8;" x="54" xlink:href="#md3236ebc53" y="65.486566"/>
      </g>
     </g>
     <g id="text_12">
      <!-- 4 -->
      <g transform="translate(40.6375 69.285785)scale(0.1 -0.1)">
       <use xlink:href="#DejaVuSans-52"/>
      </g>
     </g>
    </g>
    <g id="text_13">
     <!-- CD (mDeg) -->
     <g transform="translate(26.178125 171.083125)rotate(-90)scale(0.1 -0.1)">
      <defs>
       <path d="M 64.40625 67.28125 
L 64.40625 56.890625 
Q 59.421875 61.53125 53.78125 63.8125 
Q 48.140625 66.109375 41.796875 66.109375 
Q 29.296875 66.109375 22.65625 58.46875 
Q 16.015625 50.828125 16.015625 36.375 
Q 16.015625 21.96875 22.65625 14.328125 
Q 29.296875 6.6875 41.796875 6.6875 
Q 48.140625 6.6875 53.78125 8.984375 
Q 59.421875 11.28125 64.40625 15.921875 
L 64.40625 5.609375 
Q 59.234375 2.09375 53.4375 0.328125 
Q 47.65625 -1.421875 41.21875 -1.421875 
Q 24.65625 -1.421875 15.125 8.703125 
Q 5.609375 18.84375 5.609375 36.375 
Q 5.609375 53.953125 15.125 64.078125 
Q 24.65625 74.21875 41.21875 74.21875 
Q 47.75 74.21875 53.53125 72.484375 
Q 59.328125 70.75 64.40625 67.28125 
z
" id="DejaVuSans-67"/>
       <path d="M 19.671875 64.796875 
L 19.671875 8.109375 
L 31.59375 8.109375 
Q 46.6875 8.109375 53.6875 14.9375 
Q 60.6875 21.78125 60.6875 36.53125 
Q 60.6875 51.171875 53.6875 57.984375 
Q 46.6875 64.796875 31.59375 64.796875 
z
M 9.8125 72.90625 
L 30.078125 72.90625 
Q 51.265625 72.90625 61.171875 64.09375 
Q 71.09375 55.28125 71.09375 36.53125 
Q 71.09375 17.671875 61.125 8.828125 
Q 51.171875 0 30.078125 0 
L 9.8125 0 
z
" id="DejaVuSans-68"/>
      </defs>
      <use xlink:href="#DejaVuSans-67"/>
      <use x="69.824219" xlink:href="#DejaVuSans-68"/>
      <use x="146.826172" xlink:href="#DejaVuSans-32"/>
      <use x="178.613281" xlink:href="#DejaVuSans-40"/>
      <use x="217.626953" xlink:href="#DejaVuSans-109"/>
      <use x="315.039062" xlink:href="#DejaVuSans-68"/>
      <use x="392.041016" xlink:href="#DejaVuSans-101"/>
      <use x="453.564453" xlink:href="#DejaVuSans-103"/>
      <use x="517.041016" xlink:href="#DejaVuSans-41"/>
     </g>
    </g>
   </g>
   <g id="line2d_12">
    <path clip-path="url(#p23cca9948c)" d="M 54 143.28 
L 388.8 143.28 
" style="fill:none;stroke:#d1d1d1;stroke-linecap:square;stroke-width:1.5;"/>
   </g>
   <g id="line2d_13">
    <path clip-path="url(#p23cca9948c)" d="M 388.8 139.98854 
L 388.156154 141.835796 
L 387.512308 141.233313 
L 386.868462 142.428304 
L 386.224615 144.102961 
L 385.580769 144.043817 
L 384.936923 144.252735 
L 384.293077 143.713554 
L 383.005385 141.534288 
L 382.361538 143.118237 
L 381.717692 142.453843 
L 381.073846 141.286952 
L 380.43 138.721091 
L 379.786154 138.814346 
L 379.142308 138.165646 
L 378.498462 141.054641 
L 377.854615 141.389441 
L 377.210769 143.317352 
L 376.566923 144.722434 
L 375.923077 144.228389 
L 375.279231 144.843599 
L 374.635385 143.566727 
L 373.991538 144.714421 
L 373.347692 143.606522 
L 372.703846 143.882251 
L 372.06 143.154402 
L 371.416154 143.164314 
L 370.772308 142.843359 
L 370.128462 142.235232 
L 369.484615 140.82762 
L 368.840769 140.315778 
L 368.196923 141.120104 
L 367.553077 142.234697 
L 366.265385 140.265602 
L 365.621538 139.954214 
L 364.977692 141.06067 
L 364.333846 140.9729 
L 363.69 140.053537 
L 363.046154 139.635922 
L 362.402308 139.506435 
L 361.758462 139.639403 
L 360.470769 142.434 
L 359.826923 142.64286 
L 359.183077 141.243387 
L 358.539231 140.387271 
L 357.895385 139.218852 
L 357.251538 139.831398 
L 356.607692 142.631928 
L 355.963846 142.883392 
L 355.32 143.642698 
L 354.676154 144.018701 
L 354.032308 143.52989 
L 353.388462 144.696893 
L 352.744615 142.452608 
L 352.100769 141.679958 
L 351.456923 142.058186 
L 350.813077 141.575163 
L 350.169231 143.065127 
L 349.525385 145.083549 
L 348.881538 146.458776 
L 348.237692 145.932445 
L 347.593846 143.528941 
L 346.95 140.66546 
L 346.306154 141.662272 
L 345.662308 143.330993 
L 345.018462 143.761254 
L 344.374615 145.08895 
L 343.730769 142.864122 
L 343.086923 142.182389 
L 342.443077 141.120804 
L 341.799231 141.629122 
L 341.155385 140.876163 
L 340.511538 141.2528 
L 339.867692 141.132279 
L 338.58 144.196984 
L 337.936154 144.314233 
L 337.292308 145.657445 
L 336.648462 145.204666 
L 336.004615 144.949523 
L 334.716923 142.111889 
L 334.073077 139.652609 
L 333.429231 139.125072 
L 332.785385 140.403004 
L 332.141538 140.918036 
L 331.497692 142.519209 
L 330.853846 143.336364 
L 330.21 144.966953 
L 328.922308 144.365899 
L 328.278462 142.20336 
L 327.634615 142.282515 
L 326.990769 142.563338 
L 326.346923 145.116114 
L 325.703077 146.528576 
L 325.059231 146.590616 
L 323.771538 145.540483 
L 323.127692 144.055737 
L 322.483846 144.322117 
L 321.84 145.48453 
L 321.196154 145.358213 
L 320.552308 144.471743 
L 319.908462 143.972733 
L 319.264615 143.848203 
L 318.620769 146.113373 
L 317.976923 146.90498 
L 317.333077 147.514783 
L 316.689231 146.208203 
L 316.045385 145.322583 
L 315.401538 143.172316 
L 314.757692 141.60742 
L 314.113846 143.388722 
L 313.47 143.504903 
L 312.826154 146.043164 
L 312.182308 144.880438 
L 311.538462 145.733624 
L 310.894615 145.840376 
L 310.250769 146.450199 
L 309.606923 146.90356 
L 308.963077 148.05006 
L 308.319231 148.81652 
L 307.675385 150.318867 
L 307.031538 149.1888 
L 306.387692 147.29842 
L 305.743846 145.773124 
L 305.1 146.701608 
L 304.456154 146.173255 
L 303.812308 146.792743 
L 303.168462 145.944367 
L 302.524615 146.561308 
L 301.236923 147.418844 
L 300.593077 146.967876 
L 299.949231 146.95257 
L 299.305385 146.390804 
L 298.661538 147.115664 
L 298.017692 146.407588 
L 297.373846 146.168451 
L 296.73 144.601475 
L 296.086154 145.356812 
L 295.442308 144.09298 
L 294.798462 144.53508 
L 294.154615 144.399967 
L 293.510769 145.642509 
L 292.223077 149.213889 
L 291.579231 148.87574 
L 290.935385 148.224628 
L 290.291538 146.711624 
L 289.647692 145.793467 
L 289.003846 145.087941 
L 288.36 145.674151 
L 287.716154 145.897671 
L 287.072308 146.928707 
L 286.428462 147.517447 
L 285.140769 149.0069 
L 284.496923 150.570567 
L 283.853077 149.388049 
L 283.209231 150.437988 
L 282.565385 149.342578 
L 281.921538 149.174 
L 281.277692 147.72148 
L 280.633846 147.848983 
L 279.99 148.517968 
L 279.346154 149.358954 
L 278.702308 152.590863 
L 278.058462 153.670072 
L 277.414615 152.35015 
L 276.770769 151.529605 
L 276.126923 151.461322 
L 275.483077 152.410324 
L 274.839231 153.741408 
L 274.195385 151.024725 
L 273.551538 151.55905 
L 272.907692 153.032691 
L 272.263846 153.901001 
L 271.62 155.397786 
L 270.976154 155.54079 
L 270.332308 153.998418 
L 269.688462 154.233432 
L 269.044615 152.189546 
L 268.400769 150.935807 
L 267.756923 151.63412 
L 267.113077 150.844459 
L 266.469231 151.255286 
L 265.825385 150.293214 
L 265.181538 150.070706 
L 264.537692 151.360812 
L 263.893846 152.198492 
L 263.25 152.144601 
L 262.606154 150.545362 
L 261.962308 149.440131 
L 261.318462 149.350222 
L 260.030769 151.080425 
L 259.386923 150.009988 
L 258.743077 149.436592 
L 258.099231 149.368892 
L 257.455385 149.808814 
L 256.811538 150.403895 
L 256.167692 152.442705 
L 255.523846 152.405753 
L 254.88 150.894849 
L 254.236154 148.896336 
L 253.592308 148.28523 
L 252.948462 150.2246 
L 252.304615 150.476885 
L 251.660769 152.142228 
L 251.016923 151.995373 
L 249.729231 153.559858 
L 249.085385 152.264325 
L 248.441538 150.681423 
L 247.797692 148.762142 
L 247.153846 147.961298 
L 246.51 148.186335 
L 245.222308 150.448354 
L 244.578462 150.026558 
L 243.934615 150.170456 
L 243.290769 149.779408 
L 242.646923 149.121567 
L 242.003077 150.011874 
L 241.359231 151.205226 
L 240.715385 151.270883 
L 240.071538 150.645132 
L 239.427692 149.488324 
L 238.783846 150.043225 
L 238.14 147.749855 
L 237.496154 148.0416 
L 236.852308 147.525654 
L 236.208462 149.486594 
L 235.564615 149.88651 
L 234.920769 149.797301 
L 234.276923 149.119817 
L 233.633077 147.891595 
L 232.989231 147.224749 
L 232.345385 145.531653 
L 231.701538 146.409046 
L 231.057692 145.738914 
L 230.413846 146.422485 
L 229.77 146.337807 
L 229.126154 145.899285 
L 228.482308 145.912219 
L 227.838462 147.645145 
L 227.194615 148.523861 
L 225.906923 148.174646 
L 225.263077 147.33331 
L 224.619231 147.543975 
L 223.975385 146.313983 
L 223.331538 145.606549 
L 222.687692 143.814917 
L 222.043846 144.043788 
L 221.4 145.452479 
L 220.756154 145.007796 
L 220.112308 145.125284 
L 219.468462 144.197389 
L 218.824615 145.626094 
L 218.180769 144.992692 
L 217.536923 145.12836 
L 216.893077 144.118055 
L 216.249231 143.978105 
L 215.605385 145.551043 
L 214.961538 145.617946 
L 214.317692 145.990771 
L 213.673846 144.255524 
L 213.03 144.482475 
L 212.386154 144.858874 
L 211.742308 144.40142 
L 211.098462 146.024455 
L 210.454615 145.010219 
L 209.810769 145.883202 
L 209.166923 145.900433 
L 208.523077 144.733701 
L 207.879231 143.82934 
L 206.591538 145.25782 
L 205.947692 146.902043 
L 205.303846 146.57708 
L 204.66 145.926708 
L 204.016154 145.113284 
L 203.372308 145.182034 
L 202.728462 144.634563 
L 202.084615 144.440859 
L 201.440769 144.757204 
L 200.796923 145.79866 
L 200.153077 148.754693 
L 199.509231 150.726738 
L 198.865385 151.653841 
L 198.221538 152.150766 
L 197.577692 152.032053 
L 196.933846 150.116798 
L 196.29 150.758419 
L 195.646154 149.49871 
L 195.002308 150.494719 
L 194.358462 149.804594 
L 193.714615 150.303872 
L 193.070769 151.525365 
L 192.426923 152.089717 
L 191.783077 152.182 
L 191.139231 151.676459 
L 190.495385 152.07974 
L 189.851538 151.823858 
L 188.563846 153.800823 
L 187.92 153.631078 
L 187.276154 154.842769 
L 186.632308 155.774715 
L 185.988462 155.345217 
L 185.344615 154.466968 
L 184.700769 154.721567 
L 184.056923 153.358178 
L 183.413077 155.972893 
L 182.769231 155.188599 
L 182.125385 156.526685 
L 181.481538 156.157244 
L 180.837692 154.927058 
L 180.193846 155.44524 
L 179.55 155.26826 
L 178.906154 155.740777 
L 177.618462 154.950065 
L 176.974615 155.357236 
L 176.330769 155.589061 
L 175.686923 156.364953 
L 175.043077 156.053079 
L 174.399231 157.175833 
L 173.755385 155.63986 
L 173.111538 155.153709 
L 172.467692 154.267214 
L 171.823846 152.398227 
L 171.18 152.024371 
L 170.536154 150.864549 
L 169.892308 152.09351 
L 169.248462 152.583647 
L 168.604615 154.981436 
L 167.960769 152.683923 
L 167.316923 154.212934 
L 166.673077 152.813721 
L 166.029231 153.367747 
L 165.385385 153.085337 
L 164.741538 151.728989 
L 164.097692 151.660395 
L 163.453846 149.984024 
L 162.81 149.226763 
L 162.166154 148.668576 
L 161.522308 148.837505 
L 160.878462 149.17083 
L 160.234615 149.324414 
L 159.590769 147.349491 
L 158.946923 147.306724 
L 157.659231 148.107238 
L 157.015385 147.076728 
L 156.371538 146.717361 
L 155.727692 148.31096 
L 154.44 145.299868 
L 153.796154 144.608587 
L 153.152308 146.474335 
L 152.508462 147.831694 
L 151.864615 148.709846 
L 150.576923 151.14371 
L 149.933077 148.722643 
L 149.289231 147.470596 
L 148.001538 147.81738 
L 147.357692 149.011178 
L 146.713846 149.606648 
L 146.07 149.254536 
L 145.426154 147.468107 
L 144.782308 147.594463 
L 144.138462 148.817609 
L 143.494615 150.451602 
L 142.850769 151.525793 
L 142.206923 151.923337 
L 141.563077 149.70214 
L 140.919231 149.187419 
L 140.275385 147.407428 
L 139.631538 146.372289 
L 138.987692 145.865795 
L 138.343846 146.91309 
L 137.7 148.989591 
L 137.056154 149.357748 
L 135.768462 152.041486 
L 134.480769 156.426546 
L 133.836923 156.552493 
L 133.193077 158.134423 
L 132.549231 160.427209 
L 131.905385 161.138164 
L 130.617692 166.793649 
L 129.973846 168.836116 
L 128.686154 176.629462 
L 128.042308 178.262151 
L 127.398462 180.511743 
L 126.754615 185.755604 
L 126.110769 185.934918 
L 125.466923 184.168812 
L 124.823077 180.687362 
L 124.179231 178.724633 
L 123.535385 177.544313 
L 122.891538 178.65423 
L 122.247692 180.876594 
L 120.96 187.265769 
L 120.316154 186.328164 
L 119.672308 185.727793 
L 119.028462 183.78568 
L 118.384615 179.390934 
L 117.740769 176.527941 
L 117.096923 177.265423 
L 116.453077 178.438743 
L 115.809231 179.216677 
L 115.165385 179.598059 
L 113.877692 171.632012 
L 113.233846 170.331305 
L 112.59 172.180261 
L 111.302308 168.622378 
L 110.658462 163.438418 
L 110.014615 164.074379 
L 109.370769 163.989585 
L 108.726923 162.588233 
L 108.083077 162.747418 
L 107.439231 165.981097 
L 106.795385 164.028676 
L 106.151538 162.948708 
L 105.507692 157.653407 
L 104.863846 158.926943 
L 104.22 163.979082 
L 103.576154 158.695664 
L 102.932308 155.873551 
L 102.288462 146.175977 
L 101.644615 142.374541 
L 101.000769 139.970726 
L 100.356923 139.368235 
L 99.713077 138.493856 
L 99.069231 140.326494 
L 98.425385 143.356119 
L 97.781538 148.291317 
L 97.137692 148.048679 
L 96.493846 148.245555 
L 95.85 146.428767 
L 95.206154 146.325418 
L 94.562308 150.141517 
L 93.918462 146.556095 
L 93.274615 147.539579 
L 92.630769 147.177859 
L 91.986923 147.529816 
L 91.343077 147.180952 
L 90.055385 136.344813 
L 89.411538 134.979557 
L 88.767692 139.323698 
L 88.123846 137.139492 
L 87.48 130.029969 
L 86.836154 126.772797 
L 86.192308 120.543313 
L 85.548462 119.677278 
L 84.904615 120.535728 
L 84.260769 115.894961 
L 83.616923 117.371286 
L 82.973077 111.612238 
L 82.329231 116.044519 
L 81.685385 114.64307 
L 81.041538 117.523372 
L 80.397692 114.950937 
L 79.753846 111.905325 
L 79.11 110.215068 
L 78.466154 106.901456 
L 77.822308 109.840687 
L 77.178462 101.896227 
L 76.534615 97.70355 
L 75.890769 92.69832 
L 75.246923 98.126551 
L 74.603077 97.574996 
L 73.959231 102.546385 
L 73.315385 101.672376 
L 72.671538 99.309012 
L 72.027692 95.630355 
L 71.383846 86.690722 
L 70.74 85.081759 
L 70.096154 78.214544 
L 69.452308 87.562203 
L 68.808462 91.249223 
L 68.164615 92.148515 
L 67.520769 86.160171 
L 66.876923 86.769294 
L 66.233077 82.647214 
L 65.589231 86.129443 
L 64.945385 82.5243 
L 64.301538 77.149357 
L 63.657692 75.139175 
L 62.37 63.097918 
L 61.082308 63.953063 
L 60.438462 60.151492 
L 59.150769 44.443636 
L 58.506923 49.506433 
L 57.863077 47.127899 
L 57.219231 52.527736 
L 56.575385 56.318415 
L 55.287692 67.872101 
L 54.643846 69.246711 
L 54 75.756661 
L 54 75.756661 
" style="fill:none;stroke:#800080;stroke-linecap:square;stroke-width:1.5;"/>
   </g>
   <g id="line2d_14">
    <path clip-path="url(#p23cca9948c)" d="M 104.22 163.979082 
" style="fill:none;stroke:#ff0000;stroke-linecap:square;stroke-width:1.5;"/>
    <defs>
     <path d="M 0 1.5 
C 0.397805 1.5 0.77937 1.341951 1.06066 1.06066 
C 1.341951 0.77937 1.5 0.397805 1.5 0 
C 1.5 -0.397805 1.341951 -0.77937 1.06066 -1.06066 
C 0.77937 -1.341951 0.397805 -1.5 0 -1.5 
C -0.397805 -1.5 -0.77937 -1.341951 -1.06066 -1.06066 
C -1.341951 -0.77937 -1.5 -0.397805 -1.5 0 
C -1.5 0.397805 -1.341951 0.77937 -1.06066 1.06066 
C -0.77937 1.341951 -0.397805 1.5 0 1.5 
z
" id="m60601b3b65" style="stroke:#ff0000;"/>
    </defs>
    <g clip-path="url(#p23cca9948c)">
     <use style="fill:#ff0000;stroke:#ff0000;" x="104.22" xlink:href="#m60601b3b65" y="163.979082"/>
    </g>
   </g>
   <g id="patch_3">
    <path d="M 54 252 
L 54 34.56 
" style="fill:none;stroke:#000000;stroke-linecap:square;stroke-linejoin:miter;stroke-width:0.8;"/>
   </g>
   <g id="patch_4">
    <path d="M 388.8 252 
L 388.8 34.56 
" style="fill:none;stroke:#000000;stroke-linecap:square;stroke-linejoin:miter;stroke-width:0.8;"/>
   </g>
   <g id="patch_5">
    <path d="M 54 252 
L 388.8 252 
" style="fill:none;stroke:#000000;stroke-linecap:square;stroke-linejoin:miter;stroke-width:0.8;"/>
   </g>
   <g id="patch_6">
    <path d="M 54 34.56 
L 388.8 34.56 
" style="fill:none;stroke:#000000;stroke-linecap:square;stroke-linejoin:miter;stroke-width:0.8;"/>
   </g>
   <g id="text_14">
    <!-- 229 nm, -1.06 mDeg -->
    <g transform="translate(111.592038 164.49656)scale(0.1 -0.1)">
     <defs>
      <path d="M 10.984375 1.515625 
L 10.984375 10.5 
Q 14.703125 8.734375 18.5 7.8125 
Q 22.3125 6.890625 25.984375 6.890625 
Q 35.75 6.890625 40.890625 13.453125 
Q 46.046875 20.015625 46.78125 33.40625 
Q 43.953125 29.203125 39.59375 26.953125 
Q 35.25 24.703125 29.984375 24.703125 
Q 19.046875 24.703125 12.671875 31.3125 
Q 6.296875 37.9375 6.296875 49.421875 
Q 6.296875 60.640625 12.9375 67.421875 
Q 19.578125 74.21875 30.609375 74.21875 
Q 43.265625 74.21875 49.921875 64.515625 
Q 56.59375 54.828125 56.59375 36.375 
Q 56.59375 19.140625 48.40625 8.859375 
Q 40.234375 -1.421875 26.421875 -1.421875 
Q 22.703125 -1.421875 18.890625 -0.6875 
Q 15.09375 0.046875 10.984375 1.515625 
z
M 30.609375 32.421875 
Q 37.25 32.421875 41.125 36.953125 
Q 45.015625 41.5 45.015625 49.421875 
Q 45.015625 57.28125 41.125 61.84375 
Q 37.25 66.40625 30.609375 66.40625 
Q 23.96875 66.40625 20.09375 61.84375 
Q 16.21875 57.28125 16.21875 49.421875 
Q 16.21875 41.5 20.09375 36.953125 
Q 23.96875 32.421875 30.609375 32.421875 
z
" id="DejaVuSans-57"/>
      <path d="M 11.71875 12.40625 
L 22.015625 12.40625 
L 22.015625 4 
L 14.015625 -11.625 
L 7.71875 -11.625 
L 11.71875 4 
z
" id="DejaVuSans-44"/>
      <path d="M 4.890625 31.390625 
L 31.203125 31.390625 
L 31.203125 23.390625 
L 4.890625 23.390625 
z
" id="DejaVuSans-45"/>
      <path d="M 12.40625 8.296875 
L 28.515625 8.296875 
L 28.515625 63.921875 
L 10.984375 60.40625 
L 10.984375 69.390625 
L 28.421875 72.90625 
L 38.28125 72.90625 
L 38.28125 8.296875 
L 54.390625 8.296875 
L 54.390625 0 
L 12.40625 0 
z
" id="DejaVuSans-49"/>
      <path d="M 10.6875 12.40625 
L 21 12.40625 
L 21 0 
L 10.6875 0 
z
" id="DejaVuSans-46"/>
      <path d="M 33.015625 40.375 
Q 26.375 40.375 22.484375 35.828125 
Q 18.609375 31.296875 18.609375 23.390625 
Q 18.609375 15.53125 22.484375 10.953125 
Q 26.375 6.390625 33.015625 6.390625 
Q 39.65625 6.390625 43.53125 10.953125 
Q 47.40625 15.53125 47.40625 23.390625 
Q 47.40625 31.296875 43.53125 35.828125 
Q 39.65625 40.375 33.015625 40.375 
z
M 52.59375 71.296875 
L 52.59375 62.3125 
Q 48.875 64.0625 45.09375 64.984375 
Q 41.3125 65.921875 37.59375 65.921875 
Q 27.828125 65.921875 22.671875 59.328125 
Q 17.53125 52.734375 16.796875 39.40625 
Q 19.671875 43.65625 24.015625 45.921875 
Q 28.375 48.1875 33.59375 48.1875 
Q 44.578125 48.1875 50.953125 41.515625 
Q 57.328125 34.859375 57.328125 23.390625 
Q 57.328125 12.15625 50.6875 5.359375 
Q 44.046875 -1.421875 33.015625 -1.421875 
Q 20.359375 -1.421875 13.671875 8.265625 
Q 6.984375 17.96875 6.984375 36.375 
Q 6.984375 53.65625 15.1875 63.9375 
Q 23.390625 74.21875 37.203125 74.21875 
Q 40.921875 74.21875 44.703125 73.484375 
Q 48.484375 72.75 52.59375 71.296875 
z
" id="DejaVuSans-54"/>
     </defs>
     <use xlink:href="#DejaVuSans-50"/>
     <use x="63.623047" xlink:href="#DejaVuSans-50"/>
     <use x="127.246094" xlink:href="#DejaVuSans-57"/>
     <use x="190.869141" xlink:href="#DejaVuSans-32"/>
     <use x="222.65625" xlink:href="#DejaVuSans-110"/>
     <use x="286.035156" xlink:href="#DejaVuSans-109"/>
     <use x="383.447266" xlink:href="#DejaVuSans-44"/>
     <use x="415.234375" xlink:href="#DejaVuSans-32"/>
     <use x="447.021484" xlink:href="#DejaVuSans-45"/>
     <use x="483.105469" xlink:href="#DejaVuSans-49"/>
     <use x="546.728516" xlink:href="#DejaVuSans-46"/>
     <use x="578.515625" xlink:href="#DejaVuSans-48"/>
     <use x="642.138672" xlink:href="#DejaVuSans-54"/>
     <use x="705.761719" xlink:href="#DejaVuSans-32"/>
     <use x="737.548828" xlink:href="#DejaVuSans-109"/>
     <use x="834.960938" xlink:href="#DejaVuSans-68"/>
     <use x="911.962891" xlink:href="#DejaVuSans-101"/>
     <use x="973.486328" xlink:href="#DejaVuSans-103"/>
    </g>
   </g>
   <g id="text_15">
    <!-- S-MPPA -->
    <g transform="translate(199.291875 28.56)scale(0.12 -0.12)">
     <defs>
      <path d="M 53.515625 70.515625 
L 53.515625 60.890625 
Q 47.90625 63.578125 42.921875 64.890625 
Q 37.9375 66.21875 33.296875 66.21875 
Q 25.25 66.21875 20.875 63.09375 
Q 16.5 59.96875 16.5 54.203125 
Q 16.5 49.359375 19.40625 46.890625 
Q 22.3125 44.4375 30.421875 42.921875 
L 36.375 41.703125 
Q 47.40625 39.59375 52.65625 34.296875 
Q 57.90625 29 57.90625 20.125 
Q 57.90625 9.515625 50.796875 4.046875 
Q 43.703125 -1.421875 29.984375 -1.421875 
Q 24.8125 -1.421875 18.96875 -0.25 
Q 13.140625 0.921875 6.890625 3.21875 
L 6.890625 13.375 
Q 12.890625 10.015625 18.65625 8.296875 
Q 24.421875 6.59375 29.984375 6.59375 
Q 38.421875 6.59375 43.015625 9.90625 
Q 47.609375 13.234375 47.609375 19.390625 
Q 47.609375 24.75 44.3125 27.78125 
Q 41.015625 30.8125 33.5 32.328125 
L 27.484375 33.5 
Q 16.453125 35.6875 11.515625 40.375 
Q 6.59375 45.0625 6.59375 53.421875 
Q 6.59375 63.09375 13.40625 68.65625 
Q 20.21875 74.21875 32.171875 74.21875 
Q 37.3125 74.21875 42.625 73.28125 
Q 47.953125 72.359375 53.515625 70.515625 
z
" id="DejaVuSans-83"/>
      <path d="M 9.8125 72.90625 
L 24.515625 72.90625 
L 43.109375 23.296875 
L 61.8125 72.90625 
L 76.515625 72.90625 
L 76.515625 0 
L 66.890625 0 
L 66.890625 64.015625 
L 48.09375 14.015625 
L 38.1875 14.015625 
L 19.390625 64.015625 
L 19.390625 0 
L 9.8125 0 
z
" id="DejaVuSans-77"/>
      <path d="M 19.671875 64.796875 
L 19.671875 37.40625 
L 32.078125 37.40625 
Q 38.96875 37.40625 42.71875 40.96875 
Q 46.484375 44.53125 46.484375 51.125 
Q 46.484375 57.671875 42.71875 61.234375 
Q 38.96875 64.796875 32.078125 64.796875 
z
M 9.8125 72.90625 
L 32.078125 72.90625 
Q 44.34375 72.90625 50.609375 67.359375 
Q 56.890625 61.8125 56.890625 51.125 
Q 56.890625 40.328125 50.609375 34.8125 
Q 44.34375 29.296875 32.078125 29.296875 
L 19.671875 29.296875 
L 19.671875 0 
L 9.8125 0 
z
" id="DejaVuSans-80"/>
      <path d="M 34.1875 63.1875 
L 20.796875 26.90625 
L 47.609375 26.90625 
z
M 28.609375 72.90625 
L 39.796875 72.90625 
L 67.578125 0 
L 57.328125 0 
L 50.6875 18.703125 
L 17.828125 18.703125 
L 11.1875 0 
L 0.78125 0 
z
" id="DejaVuSans-65"/>
     </defs>
     <use xlink:href="#DejaVuSans-83"/>
     <use x="63.476562" xlink:href="#DejaVuSans-45"/>
     <use x="99.560547" xlink:href="#DejaVuSans-77"/>
     <use x="185.839844" xlink:href="#DejaVuSans-80"/>
     <use x="246.142578" xlink:href="#DejaVuSans-80"/>
     <use x="300.070312" xlink:href="#DejaVuSans-65"/>
    </g>
   </g>
  </g>
 </g>
 <defs>
  <clipPath id="p23cca9948c">
   <rect height="217.44" width="334.8" x="54" y="34.56"/>
  </clipPath>
 </defs>
</svg>
