<?xml version="1.0" encoding="utf-8" standalone="no"?>
<!DOCTYPE svg PUBLIC "-//W3C//DTD SVG 1.1//EN"
  "http://www.w3.org/Graphics/SVG/1.1/DTD/svg11.dtd">
<!-- Created with matplotlib (https://matplotlib.org/) -->
<svg height="288pt" version="1.1" viewBox="0 0 432 288" width="432pt" xmlns="http://www.w3.org/2000/svg" xmlns:xlink="http://www.w3.org/1999/xlink">
 <metadata>
  <rdf:RDF xmlns:cc="http://creativecommons.org/ns#" xmlns:dc="http://purl.org/dc/elements/1.1/" xmlns:rdf="http://www.w3.org/1999/02/22-rdf-syntax-ns#">
   <cc:Work>
    <dc:type rdf:resource="http://purl.org/dc/dcmitype/StillImage"/>
    <dc:date>2021-08-06T16:49:08.622893</dc:date>
    <dc:format>image/svg+xml</dc:format>
    <dc:creator>
     <cc:Agent>
      <dc:title>Matplotlib v3.3.4, https://matplotlib.org/</dc:title>
     </cc:Agent>
    </dc:creator>
   </cc:Work>
  </rdf:RDF>
 </metadata>
 <defs>
  <style type="text/css">*{stroke-linecap:butt;stroke-linejoin:round;}</style>
 </defs>
 <g id="figure_1">
  <g id="patch_1">
   <path d="M 0 288 
L 432 288 
L 432 0 
L 0 0 
z
" style="fill:#ffffff;"/>
  </g>
  <g id="axes_1">
   <g id="patch_2">
    <path d="M 54 252 
L 388.8 252 
L 388.8 34.56 
L 54 34.56 
z
" style="fill:#ffffff;"/>
   </g>
   <g id="matplotlib.axis_1">
    <g id="xtick_1">
     <g id="line2d_1">
      <defs>
       <path d="M 0 0 
L 0 3.5 
" id="me0d166ade0" style="stroke:#000000;stroke-width:0.8;"/>
      </defs>
      <g>
       <use style="stroke:#000000;stroke-width:0.8;" x="66.876923" xlink:href="#me0d166ade0" y="252"/>
      </g>
     </g>
     <g id="text_1">
      <!-- 200 -->
      <g transform="translate(57.333173 266.598437)scale(0.1 -0.1)">
       <defs>
        <path d="M 19.1875 8.296875 
L 53.609375 8.296875 
L 53.609375 0 
L 7.328125 0 
L 7.328125 8.296875 
Q 12.9375 14.109375 22.625 23.890625 
Q 32.328125 33.6875 34.8125 36.53125 
Q 39.546875 41.84375 41.421875 45.53125 
Q 43.3125 49.21875 43.3125 52.78125 
Q 43.3125 58.59375 39.234375 62.25 
Q 35.15625 65.921875 28.609375 65.921875 
Q 23.96875 65.921875 18.8125 64.3125 
Q 13.671875 62.703125 7.8125 59.421875 
L 7.8125 69.390625 
Q 13.765625 71.78125 18.9375 73 
Q 24.125 74.21875 28.421875 74.21875 
Q 39.75 74.21875 46.484375 68.546875 
Q 53.21875 62.890625 53.21875 53.421875 
Q 53.21875 48.921875 51.53125 44.890625 
Q 49.859375 40.875 45.40625 35.40625 
Q 44.1875 33.984375 37.640625 27.21875 
Q 31.109375 20.453125 19.1875 8.296875 
z
" id="DejaVuSans-50"/>
        <path d="M 31.78125 66.40625 
Q 24.171875 66.40625 20.328125 58.90625 
Q 16.5 51.421875 16.5 36.375 
Q 16.5 21.390625 20.328125 13.890625 
Q 24.171875 6.390625 31.78125 6.390625 
Q 39.453125 6.390625 43.28125 13.890625 
Q 47.125 21.390625 47.125 36.375 
Q 47.125 51.421875 43.28125 58.90625 
Q 39.453125 66.40625 31.78125 66.40625 
z
M 31.78125 74.21875 
Q 44.046875 74.21875 50.515625 64.515625 
Q 56.984375 54.828125 56.984375 36.375 
Q 56.984375 17.96875 50.515625 8.265625 
Q 44.046875 -1.421875 31.78125 -1.421875 
Q 19.53125 -1.421875 13.0625 8.265625 
Q 6.59375 17.96875 6.59375 36.375 
Q 6.59375 54.828125 13.0625 64.515625 
Q 19.53125 74.21875 31.78125 74.21875 
z
" id="DejaVuSans-48"/>
       </defs>
       <use xlink:href="#DejaVuSans-50"/>
       <use x="63.623047" xlink:href="#DejaVuSans-48"/>
       <use x="127.246094" xlink:href="#DejaVuSans-48"/>
      </g>
     </g>
    </g>
    <g id="xtick_2">
     <g id="line2d_2">
      <g>
       <use style="stroke:#000000;stroke-width:0.8;" x="131.261538" xlink:href="#me0d166ade0" y="252"/>
      </g>
     </g>
     <g id="text_2">
      <!-- 250 -->
      <g transform="translate(121.717788 266.598437)scale(0.1 -0.1)">
       <defs>
        <path d="M 10.796875 72.90625 
L 49.515625 72.90625 
L 49.515625 64.59375 
L 19.828125 64.59375 
L 19.828125 46.734375 
Q 21.96875 47.46875 24.109375 47.828125 
Q 26.265625 48.1875 28.421875 48.1875 
Q 40.625 48.1875 47.75 41.5 
Q 54.890625 34.8125 54.890625 23.390625 
Q 54.890625 11.625 47.5625 5.09375 
Q 40.234375 -1.421875 26.90625 -1.421875 
Q 22.3125 -1.421875 17.546875 -0.640625 
Q 12.796875 0.140625 7.71875 1.703125 
L 7.71875 11.625 
Q 12.109375 9.234375 16.796875 8.0625 
Q 21.484375 6.890625 26.703125 6.890625 
Q 35.15625 6.890625 40.078125 11.328125 
Q 45.015625 15.765625 45.015625 23.390625 
Q 45.015625 31 40.078125 35.4375 
Q 35.15625 39.890625 26.703125 39.890625 
Q 22.75 39.890625 18.8125 39.015625 
Q 14.890625 38.140625 10.796875 36.28125 
z
" id="DejaVuSans-53"/>
       </defs>
       <use xlink:href="#DejaVuSans-50"/>
       <use x="63.623047" xlink:href="#DejaVuSans-53"/>
       <use x="127.246094" xlink:href="#DejaVuSans-48"/>
      </g>
     </g>
    </g>
    <g id="xtick_3">
     <g id="line2d_3">
      <g>
       <use style="stroke:#000000;stroke-width:0.8;" x="195.646154" xlink:href="#me0d166ade0" y="252"/>
      </g>
     </g>
     <g id="text_3">
      <!-- 300 -->
      <g transform="translate(186.102404 266.598437)scale(0.1 -0.1)">
       <defs>
        <path d="M 40.578125 39.3125 
Q 47.65625 37.796875 51.625 33 
Q 55.609375 28.21875 55.609375 21.1875 
Q 55.609375 10.40625 48.1875 4.484375 
Q 40.765625 -1.421875 27.09375 -1.421875 
Q 22.515625 -1.421875 17.65625 -0.515625 
Q 12.796875 0.390625 7.625 2.203125 
L 7.625 11.71875 
Q 11.71875 9.328125 16.59375 8.109375 
Q 21.484375 6.890625 26.8125 6.890625 
Q 36.078125 6.890625 40.9375 10.546875 
Q 45.796875 14.203125 45.796875 21.1875 
Q 45.796875 27.640625 41.28125 31.265625 
Q 36.765625 34.90625 28.71875 34.90625 
L 20.21875 34.90625 
L 20.21875 43.015625 
L 29.109375 43.015625 
Q 36.375 43.015625 40.234375 45.921875 
Q 44.09375 48.828125 44.09375 54.296875 
Q 44.09375 59.90625 40.109375 62.90625 
Q 36.140625 65.921875 28.71875 65.921875 
Q 24.65625 65.921875 20.015625 65.03125 
Q 15.375 64.15625 9.8125 62.3125 
L 9.8125 71.09375 
Q 15.4375 72.65625 20.34375 73.4375 
Q 25.25 74.21875 29.59375 74.21875 
Q 40.828125 74.21875 47.359375 69.109375 
Q 53.90625 64.015625 53.90625 55.328125 
Q 53.90625 49.265625 50.4375 45.09375 
Q 46.96875 40.921875 40.578125 39.3125 
z
" id="DejaVuSans-51"/>
       </defs>
       <use xlink:href="#DejaVuSans-51"/>
       <use x="63.623047" xlink:href="#DejaVuSans-48"/>
       <use x="127.246094" xlink:href="#DejaVuSans-48"/>
      </g>
     </g>
    </g>
    <g id="xtick_4">
     <g id="line2d_4">
      <g>
       <use style="stroke:#000000;stroke-width:0.8;" x="260.030769" xlink:href="#me0d166ade0" y="252"/>
      </g>
     </g>
     <g id="text_4">
      <!-- 350 -->
      <g transform="translate(250.487019 266.598437)scale(0.1 -0.1)">
       <use xlink:href="#DejaVuSans-51"/>
       <use x="63.623047" xlink:href="#DejaVuSans-53"/>
       <use x="127.246094" xlink:href="#DejaVuSans-48"/>
      </g>
     </g>
    </g>
    <g id="xtick_5">
     <g id="line2d_5">
      <g>
       <use style="stroke:#000000;stroke-width:0.8;" x="324.415385" xlink:href="#me0d166ade0" y="252"/>
      </g>
     </g>
     <g id="text_5">
      <!-- 400 -->
      <g transform="translate(314.871635 266.598437)scale(0.1 -0.1)">
       <defs>
        <path d="M 37.796875 64.3125 
L 12.890625 25.390625 
L 37.796875 25.390625 
z
M 35.203125 72.90625 
L 47.609375 72.90625 
L 47.609375 25.390625 
L 58.015625 25.390625 
L 58.015625 17.1875 
L 47.609375 17.1875 
L 47.609375 0 
L 37.796875 0 
L 37.796875 17.1875 
L 4.890625 17.1875 
L 4.890625 26.703125 
z
" id="DejaVuSans-52"/>
       </defs>
       <use xlink:href="#DejaVuSans-52"/>
       <use x="63.623047" xlink:href="#DejaVuSans-48"/>
       <use x="127.246094" xlink:href="#DejaVuSans-48"/>
      </g>
     </g>
    </g>
    <g id="xtick_6">
     <g id="line2d_6">
      <g>
       <use style="stroke:#000000;stroke-width:0.8;" x="388.8" xlink:href="#me0d166ade0" y="252"/>
      </g>
     </g>
     <g id="text_6">
      <!-- 450 -->
      <g transform="translate(379.25625 266.598437)scale(0.1 -0.1)">
       <use xlink:href="#DejaVuSans-52"/>
       <use x="63.623047" xlink:href="#DejaVuSans-53"/>
       <use x="127.246094" xlink:href="#DejaVuSans-48"/>
      </g>
     </g>
    </g>
    <g id="text_7">
     <!-- Wavelength (nm) -->
     <g transform="translate(178.207812 280.276563)scale(0.1 -0.1)">
      <defs>
       <path d="M 3.328125 72.90625 
L 13.28125 72.90625 
L 28.609375 11.28125 
L 43.890625 72.90625 
L 54.984375 72.90625 
L 70.3125 11.28125 
L 85.59375 72.90625 
L 95.609375 72.90625 
L 77.296875 0 
L 64.890625 0 
L 49.515625 63.28125 
L 33.984375 0 
L 21.578125 0 
z
" id="DejaVuSans-87"/>
       <path d="M 34.28125 27.484375 
Q 23.390625 27.484375 19.1875 25 
Q 14.984375 22.515625 14.984375 16.5 
Q 14.984375 11.71875 18.140625 8.90625 
Q 21.296875 6.109375 26.703125 6.109375 
Q 34.1875 6.109375 38.703125 11.40625 
Q 43.21875 16.703125 43.21875 25.484375 
L 43.21875 27.484375 
z
M 52.203125 31.203125 
L 52.203125 0 
L 43.21875 0 
L 43.21875 8.296875 
Q 40.140625 3.328125 35.546875 0.953125 
Q 30.953125 -1.421875 24.3125 -1.421875 
Q 15.921875 -1.421875 10.953125 3.296875 
Q 6 8.015625 6 15.921875 
Q 6 25.140625 12.171875 29.828125 
Q 18.359375 34.515625 30.609375 34.515625 
L 43.21875 34.515625 
L 43.21875 35.40625 
Q 43.21875 41.609375 39.140625 45 
Q 35.0625 48.390625 27.6875 48.390625 
Q 23 48.390625 18.546875 47.265625 
Q 14.109375 46.140625 10.015625 43.890625 
L 10.015625 52.203125 
Q 14.9375 54.109375 19.578125 55.046875 
Q 24.21875 56 28.609375 56 
Q 40.484375 56 46.34375 49.84375 
Q 52.203125 43.703125 52.203125 31.203125 
z
" id="DejaVuSans-97"/>
       <path d="M 2.984375 54.6875 
L 12.5 54.6875 
L 29.59375 8.796875 
L 46.6875 54.6875 
L 56.203125 54.6875 
L 35.6875 0 
L 23.484375 0 
z
" id="DejaVuSans-118"/>
       <path d="M 56.203125 29.59375 
L 56.203125 25.203125 
L 14.890625 25.203125 
Q 15.484375 15.921875 20.484375 11.0625 
Q 25.484375 6.203125 34.421875 6.203125 
Q 39.59375 6.203125 44.453125 7.46875 
Q 49.3125 8.734375 54.109375 11.28125 
L 54.109375 2.78125 
Q 49.265625 0.734375 44.1875 -0.34375 
Q 39.109375 -1.421875 33.890625 -1.421875 
Q 20.796875 -1.421875 13.15625 6.1875 
Q 5.515625 13.8125 5.515625 26.8125 
Q 5.515625 40.234375 12.765625 48.109375 
Q 20.015625 56 32.328125 56 
Q 43.359375 56 49.78125 48.890625 
Q 56.203125 41.796875 56.203125 29.59375 
z
M 47.21875 32.234375 
Q 47.125 39.59375 43.09375 43.984375 
Q 39.0625 48.390625 32.421875 48.390625 
Q 24.90625 48.390625 20.390625 44.140625 
Q 15.875 39.890625 15.1875 32.171875 
z
" id="DejaVuSans-101"/>
       <path d="M 9.421875 75.984375 
L 18.40625 75.984375 
L 18.40625 0 
L 9.421875 0 
z
" id="DejaVuSans-108"/>
       <path d="M 54.890625 33.015625 
L 54.890625 0 
L 45.90625 0 
L 45.90625 32.71875 
Q 45.90625 40.484375 42.875 44.328125 
Q 39.84375 48.1875 33.796875 48.1875 
Q 26.515625 48.1875 22.3125 43.546875 
Q 18.109375 38.921875 18.109375 30.90625 
L 18.109375 0 
L 9.078125 0 
L 9.078125 54.6875 
L 18.109375 54.6875 
L 18.109375 46.1875 
Q 21.34375 51.125 25.703125 53.5625 
Q 30.078125 56 35.796875 56 
Q 45.21875 56 50.046875 50.171875 
Q 54.890625 44.34375 54.890625 33.015625 
z
" id="DejaVuSans-110"/>
       <path d="M 45.40625 27.984375 
Q 45.40625 37.75 41.375 43.109375 
Q 37.359375 48.484375 30.078125 48.484375 
Q 22.859375 48.484375 18.828125 43.109375 
Q 14.796875 37.75 14.796875 27.984375 
Q 14.796875 18.265625 18.828125 12.890625 
Q 22.859375 7.515625 30.078125 7.515625 
Q 37.359375 7.515625 41.375 12.890625 
Q 45.40625 18.265625 45.40625 27.984375 
z
M 54.390625 6.78125 
Q 54.390625 -7.171875 48.1875 -13.984375 
Q 42 -20.796875 29.203125 -20.796875 
Q 24.46875 -20.796875 20.265625 -20.09375 
Q 16.0625 -19.390625 12.109375 -17.921875 
L 12.109375 -9.1875 
Q 16.0625 -11.328125 19.921875 -12.34375 
Q 23.78125 -13.375 27.78125 -13.375 
Q 36.625 -13.375 41.015625 -8.765625 
Q 45.40625 -4.15625 45.40625 5.171875 
L 45.40625 9.625 
Q 42.625 4.78125 38.28125 2.390625 
Q 33.9375 0 27.875 0 
Q 17.828125 0 11.671875 7.65625 
Q 5.515625 15.328125 5.515625 27.984375 
Q 5.515625 40.671875 11.671875 48.328125 
Q 17.828125 56 27.875 56 
Q 33.9375 56 38.28125 53.609375 
Q 42.625 51.21875 45.40625 46.390625 
L 45.40625 54.6875 
L 54.390625 54.6875 
z
" id="DejaVuSans-103"/>
       <path d="M 18.3125 70.21875 
L 18.3125 54.6875 
L 36.8125 54.6875 
L 36.8125 47.703125 
L 18.3125 47.703125 
L 18.3125 18.015625 
Q 18.3125 11.328125 20.140625 9.421875 
Q 21.96875 7.515625 27.59375 7.515625 
L 36.8125 7.515625 
L 36.8125 0 
L 27.59375 0 
Q 17.1875 0 13.234375 3.875 
Q 9.28125 7.765625 9.28125 18.015625 
L 9.28125 47.703125 
L 2.6875 47.703125 
L 2.6875 54.6875 
L 9.28125 54.6875 
L 9.28125 70.21875 
z
" id="DejaVuSans-116"/>
       <path d="M 54.890625 33.015625 
L 54.890625 0 
L 45.90625 0 
L 45.90625 32.71875 
Q 45.90625 40.484375 42.875 44.328125 
Q 39.84375 48.1875 33.796875 48.1875 
Q 26.515625 48.1875 22.3125 43.546875 
Q 18.109375 38.921875 18.109375 30.90625 
L 18.109375 0 
L 9.078125 0 
L 9.078125 75.984375 
L 18.109375 75.984375 
L 18.109375 46.1875 
Q 21.34375 51.125 25.703125 53.5625 
Q 30.078125 56 35.796875 56 
Q 45.21875 56 50.046875 50.171875 
Q 54.890625 44.34375 54.890625 33.015625 
z
" id="DejaVuSans-104"/>
       <path id="DejaVuSans-32"/>
       <path d="M 31 75.875 
Q 24.46875 64.65625 21.28125 53.65625 
Q 18.109375 42.671875 18.109375 31.390625 
Q 18.109375 20.125 21.3125 9.0625 
Q 24.515625 -2 31 -13.1875 
L 23.1875 -13.1875 
Q 15.875 -1.703125 12.234375 9.375 
Q 8.59375 20.453125 8.59375 31.390625 
Q 8.59375 42.28125 12.203125 53.3125 
Q 15.828125 64.359375 23.1875 75.875 
z
" id="DejaVuSans-40"/>
       <path d="M 52 44.1875 
Q 55.375 50.25 60.0625 53.125 
Q 64.75 56 71.09375 56 
Q 79.640625 56 84.28125 50.015625 
Q 88.921875 44.046875 88.921875 33.015625 
L 88.921875 0 
L 79.890625 0 
L 79.890625 32.71875 
Q 79.890625 40.578125 77.09375 44.375 
Q 74.3125 48.1875 68.609375 48.1875 
Q 61.625 48.1875 57.5625 43.546875 
Q 53.515625 38.921875 53.515625 30.90625 
L 53.515625 0 
L 44.484375 0 
L 44.484375 32.71875 
Q 44.484375 40.625 41.703125 44.40625 
Q 38.921875 48.1875 33.109375 48.1875 
Q 26.21875 48.1875 22.15625 43.53125 
Q 18.109375 38.875 18.109375 30.90625 
L 18.109375 0 
L 9.078125 0 
L 9.078125 54.6875 
L 18.109375 54.6875 
L 18.109375 46.1875 
Q 21.1875 51.21875 25.484375 53.609375 
Q 29.78125 56 35.6875 56 
Q 41.65625 56 45.828125 52.96875 
Q 50 49.953125 52 44.1875 
z
" id="DejaVuSans-109"/>
       <path d="M 8.015625 75.875 
L 15.828125 75.875 
Q 23.140625 64.359375 26.78125 53.3125 
Q 30.421875 42.28125 30.421875 31.390625 
Q 30.421875 20.453125 26.78125 9.375 
Q 23.140625 -1.703125 15.828125 -13.1875 
L 8.015625 -13.1875 
Q 14.5 -2 17.703125 9.0625 
Q 20.90625 20.125 20.90625 31.390625 
Q 20.90625 42.671875 17.703125 53.65625 
Q 14.5 64.65625 8.015625 75.875 
z
" id="DejaVuSans-41"/>
      </defs>
      <use xlink:href="#DejaVuSans-87"/>
      <use x="92.501953" xlink:href="#DejaVuSans-97"/>
      <use x="153.78125" xlink:href="#DejaVuSans-118"/>
      <use x="212.960938" xlink:href="#DejaVuSans-101"/>
      <use x="274.484375" xlink:href="#DejaVuSans-108"/>
      <use x="302.267578" xlink:href="#DejaVuSans-101"/>
      <use x="363.791016" xlink:href="#DejaVuSans-110"/>
      <use x="427.169922" xlink:href="#DejaVuSans-103"/>
      <use x="490.646484" xlink:href="#DejaVuSans-116"/>
      <use x="529.855469" xlink:href="#DejaVuSans-104"/>
      <use x="593.234375" xlink:href="#DejaVuSans-32"/>
      <use x="625.021484" xlink:href="#DejaVuSans-40"/>
      <use x="664.035156" xlink:href="#DejaVuSans-110"/>
      <use x="727.414062" xlink:href="#DejaVuSans-109"/>
      <use x="824.826172" xlink:href="#DejaVuSans-41"/>
     </g>
    </g>
   </g>
   <g id="matplotlib.axis_2">
    <g id="ytick_1">
     <g id="line2d_7">
      <defs>
       <path d="M 0 0 
L -3.5 0 
" id="m07d781841b" style="stroke:#000000;stroke-width:0.8;"/>
      </defs>
      <g>
       <use style="stroke:#000000;stroke-width:0.8;" x="54" xlink:href="#m07d781841b" y="226.116495"/>
      </g>
     </g>
     <g id="text_8">
      <!-- −2 -->
      <g transform="translate(32.257812 229.915713)scale(0.1 -0.1)">
       <defs>
        <path d="M 10.59375 35.5 
L 73.1875 35.5 
L 73.1875 27.203125 
L 10.59375 27.203125 
z
" id="DejaVuSans-8722"/>
       </defs>
       <use xlink:href="#DejaVuSans-8722"/>
       <use x="83.789062" xlink:href="#DejaVuSans-50"/>
      </g>
     </g>
    </g>
    <g id="ytick_2">
     <g id="line2d_8">
      <g>
       <use style="stroke:#000000;stroke-width:0.8;" x="54" xlink:href="#m07d781841b" y="184.698247"/>
      </g>
     </g>
     <g id="text_9">
      <!-- −1 -->
      <g transform="translate(32.257812 188.497466)scale(0.1 -0.1)">
       <defs>
        <path d="M 12.40625 8.296875 
L 28.515625 8.296875 
L 28.515625 63.921875 
L 10.984375 60.40625 
L 10.984375 69.390625 
L 28.421875 72.90625 
L 38.28125 72.90625 
L 38.28125 8.296875 
L 54.390625 8.296875 
L 54.390625 0 
L 12.40625 0 
z
" id="DejaVuSans-49"/>
       </defs>
       <use xlink:href="#DejaVuSans-8722"/>
       <use x="83.789062" xlink:href="#DejaVuSans-49"/>
      </g>
     </g>
    </g>
    <g id="ytick_3">
     <g id="line2d_9">
      <g>
       <use style="stroke:#000000;stroke-width:0.8;" x="54" xlink:href="#m07d781841b" y="143.28"/>
      </g>
     </g>
     <g id="text_10">
      <!-- 0 -->
      <g transform="translate(40.6375 147.079219)scale(0.1 -0.1)">
       <use xlink:href="#DejaVuSans-48"/>
      </g>
     </g>
    </g>
    <g id="ytick_4">
     <g id="line2d_10">
      <g>
       <use style="stroke:#000000;stroke-width:0.8;" x="54" xlink:href="#m07d781841b" y="101.861753"/>
      </g>
     </g>
     <g id="text_11">
      <!-- 1 -->
      <g transform="translate(40.6375 105.660971)scale(0.1 -0.1)">
       <use xlink:href="#DejaVuSans-49"/>
      </g>
     </g>
    </g>
    <g id="ytick_5">
     <g id="line2d_11">
      <g>
       <use style="stroke:#000000;stroke-width:0.8;" x="54" xlink:href="#m07d781841b" y="60.443505"/>
      </g>
     </g>
     <g id="text_12">
      <!-- 2 -->
      <g transform="translate(40.6375 64.242724)scale(0.1 -0.1)">
       <use xlink:href="#DejaVuSans-50"/>
      </g>
     </g>
    </g>
    <g id="text_13">
     <!-- CD (mDeg) -->
     <g transform="translate(26.178125 171.083125)rotate(-90)scale(0.1 -0.1)">
      <defs>
       <path d="M 64.40625 67.28125 
L 64.40625 56.890625 
Q 59.421875 61.53125 53.78125 63.8125 
Q 48.140625 66.109375 41.796875 66.109375 
Q 29.296875 66.109375 22.65625 58.46875 
Q 16.015625 50.828125 16.015625 36.375 
Q 16.015625 21.96875 22.65625 14.328125 
Q 29.296875 6.6875 41.796875 6.6875 
Q 48.140625 6.6875 53.78125 8.984375 
Q 59.421875 11.28125 64.40625 15.921875 
L 64.40625 5.609375 
Q 59.234375 2.09375 53.4375 0.328125 
Q 47.65625 -1.421875 41.21875 -1.421875 
Q 24.65625 -1.421875 15.125 8.703125 
Q 5.609375 18.84375 5.609375 36.375 
Q 5.609375 53.953125 15.125 64.078125 
Q 24.65625 74.21875 41.21875 74.21875 
Q 47.75 74.21875 53.53125 72.484375 
Q 59.328125 70.75 64.40625 67.28125 
z
" id="DejaVuSans-67"/>
       <path d="M 19.671875 64.796875 
L 19.671875 8.109375 
L 31.59375 8.109375 
Q 46.6875 8.109375 53.6875 14.9375 
Q 60.6875 21.78125 60.6875 36.53125 
Q 60.6875 51.171875 53.6875 57.984375 
Q 46.6875 64.796875 31.59375 64.796875 
z
M 9.8125 72.90625 
L 30.078125 72.90625 
Q 51.265625 72.90625 61.171875 64.09375 
Q 71.09375 55.28125 71.09375 36.53125 
Q 71.09375 17.671875 61.125 8.828125 
Q 51.171875 0 30.078125 0 
L 9.8125 0 
z
" id="DejaVuSans-68"/>
      </defs>
      <use xlink:href="#DejaVuSans-67"/>
      <use x="69.824219" xlink:href="#DejaVuSans-68"/>
      <use x="146.826172" xlink:href="#DejaVuSans-32"/>
      <use x="178.613281" xlink:href="#DejaVuSans-40"/>
      <use x="217.626953" xlink:href="#DejaVuSans-109"/>
      <use x="315.039062" xlink:href="#DejaVuSans-68"/>
      <use x="392.041016" xlink:href="#DejaVuSans-101"/>
      <use x="453.564453" xlink:href="#DejaVuSans-103"/>
      <use x="517.041016" xlink:href="#DejaVuSans-41"/>
     </g>
    </g>
   </g>
   <g id="line2d_12">
    <path clip-path="url(#p2e59fa6d03)" d="M 54 143.28 
L 388.8 143.28 
" style="fill:none;stroke:#d1d1d1;stroke-linecap:square;stroke-width:1.5;"/>
   </g>
   <g id="line2d_13">
    <path clip-path="url(#p2e59fa6d03)" d="M 388.8 152.365838 
L 388.156154 153.328729 
L 387.512308 152.360164 
L 386.868462 148.481469 
L 386.224615 149.79128 
L 385.580769 148.0846 
L 384.936923 153.462055 
L 384.293077 151.077772 
L 383.649231 151.759558 
L 383.005385 149.695645 
L 382.361538 151.860246 
L 381.717692 150.211716 
L 381.073846 147.980267 
L 380.43 150.428914 
L 379.786154 157.116263 
L 379.142308 158.206929 
L 378.498462 156.335363 
L 377.854615 152.700787 
L 377.210769 149.79041 
L 376.566923 150.708735 
L 375.923077 148.632397 
L 375.279231 150.980232 
L 374.635385 146.832766 
L 373.991538 148.858044 
L 373.347692 147.873366 
L 372.703846 149.037675 
L 372.06 149.237021 
L 371.416154 148.530881 
L 370.772308 149.845952 
L 370.128462 152.751193 
L 369.484615 149.929368 
L 368.840769 149.147475 
L 368.196923 146.32951 
L 367.553077 152.300273 
L 366.265385 160.325431 
L 365.621538 156.14575 
L 364.333846 154.898647 
L 363.69 153.09335 
L 363.046154 152.021652 
L 362.402308 152.819368 
L 361.758462 157.240434 
L 361.114615 156.998966 
L 359.826923 151.245599 
L 359.183077 152.271487 
L 358.539231 150.011128 
L 357.895385 148.802999 
L 357.251538 147.338905 
L 356.607692 143.743565 
L 355.963846 146.772726 
L 355.32 150.828227 
L 354.676154 152.471537 
L 354.032308 154.971957 
L 353.388462 151.870849 
L 352.744615 153.553341 
L 352.100769 150.666447 
L 351.456923 150.520738 
L 350.813077 148.060577 
L 350.169231 147.292981 
L 349.525385 151.133107 
L 348.881538 153.505917 
L 348.237692 155.36833 
L 347.593846 151.844879 
L 346.95 150.367573 
L 346.306154 149.549066 
L 345.662308 145.790716 
L 345.018462 145.676663 
L 344.374615 144.450157 
L 343.730769 144.839252 
L 343.086923 148.897888 
L 341.799231 152.041243 
L 341.155385 151.629007 
L 340.511538 155.283547 
L 339.867692 155.977302 
L 339.223846 155.195408 
L 338.58 154.665379 
L 337.936154 147.676091 
L 337.292308 151.294638 
L 336.648462 150.350219 
L 334.716923 160.052858 
L 334.073077 157.482897 
L 333.429231 159.949229 
L 332.785385 158.340337 
L 332.141538 155.820865 
L 331.497692 154.929379 
L 330.853846 151.329222 
L 330.21 148.728073 
L 329.566154 147.41205 
L 328.922308 150.238473 
L 328.278462 150.916821 
L 327.634615 157.196158 
L 326.990769 154.78077 
L 326.346923 153.908958 
L 325.703077 152.394085 
L 325.059231 153.370976 
L 324.415385 152.14802 
L 323.771538 150.450244 
L 323.127692 147.009597 
L 322.483846 150.69573 
L 321.84 151.052631 
L 321.196154 150.588167 
L 320.552308 151.019662 
L 319.908462 149.210223 
L 319.264615 155.775844 
L 318.620769 160.19078 
L 317.976923 163.125056 
L 317.333077 163.994425 
L 316.689231 162.130687 
L 316.045385 158.759904 
L 315.401538 156.085155 
L 314.757692 152.029191 
L 314.113846 151.700827 
L 313.47 155.089792 
L 312.826154 154.582708 
L 312.182308 157.092944 
L 311.538462 154.366961 
L 310.894615 155.921719 
L 310.250769 158.418452 
L 309.606923 158.128235 
L 308.963077 154.918072 
L 308.319231 153.378597 
L 307.675385 150.888325 
L 307.031538 151.796503 
L 306.387692 155.916956 
L 305.743846 153.543897 
L 305.1 155.877733 
L 304.456154 159.251083 
L 303.812308 160.177154 
L 303.168462 163.177367 
L 302.524615 161.797187 
L 301.880769 157.543202 
L 301.236923 155.887673 
L 300.593077 156.76719 
L 299.949231 158.167251 
L 299.305385 162.764966 
L 298.661538 160.659014 
L 298.017692 159.510776 
L 297.373846 160.74098 
L 296.73 162.73589 
L 296.086154 163.28754 
L 295.442308 158.698895 
L 294.798462 158.724367 
L 294.154615 159.63648 
L 293.510769 159.944011 
L 292.223077 155.005257 
L 291.579231 154.819331 
L 290.935385 156.167329 
L 290.291538 156.718772 
L 289.647692 160.49098 
L 289.003846 162.050501 
L 288.36 159.509119 
L 287.716154 154.527249 
L 287.072308 152.622921 
L 286.428462 155.344597 
L 285.784615 159.83798 
L 285.140769 162.986264 
L 284.496923 160.242346 
L 283.853077 158.743254 
L 283.209231 158.232857 
L 282.565385 159.280987 
L 281.921538 162.360558 
L 281.277692 159.259781 
L 280.633846 161.286459 
L 279.99 158.995118 
L 279.346154 161.474373 
L 278.702308 158.977681 
L 278.058462 158.065279 
L 277.414615 158.479337 
L 276.770769 157.307242 
L 276.126923 160.540889 
L 275.483077 155.993414 
L 274.839231 157.604625 
L 274.195385 155.708291 
L 273.551538 155.725024 
L 272.907692 158.305712 
L 272.263846 159.773243 
L 271.62 157.446656 
L 270.976154 154.262048 
L 270.332308 149.371713 
L 269.688462 150.46561 
L 269.044615 147.891715 
L 268.400769 149.459685 
L 267.756923 153.946276 
L 267.113077 153.987114 
L 266.469231 155.58677 
L 265.825385 154.544107 
L 265.181538 154.284787 
L 264.537692 157.267232 
L 263.893846 156.790177 
L 263.25 160.000546 
L 262.606154 157.287071 
L 261.962308 158.916134 
L 261.318462 154.589045 
L 260.674615 153.447434 
L 260.030769 156.197523 
L 259.386923 154.332087 
L 258.743077 155.986828 
L 258.099231 153.612237 
L 257.455385 157.708046 
L 256.811538 157.219435 
L 256.167692 156.39691 
L 255.523846 153.047748 
L 254.88 152.509477 
L 254.236154 152.894956 
L 253.592308 152.764489 
L 252.948462 150.81079 
L 252.304615 146.766282 
L 251.660769 146.569603 
L 251.016923 147.219062 
L 250.373077 150.328682 
L 249.729231 149.791901 
L 249.085385 150.187238 
L 248.441538 153.345794 
L 247.797692 152.451284 
L 247.153846 147.466184 
L 246.51 143.376021 
L 245.866154 144.048967 
L 244.578462 147.547695 
L 243.934615 149.030592 
L 243.290769 147.829753 
L 242.646923 148.737185 
L 242.003077 152.552386 
L 241.359231 147.775744 
L 240.715385 146.750398 
L 240.071538 141.50901 
L 239.427692 138.530901 
L 238.14 142.7909 
L 237.496154 146.080064 
L 236.852308 147.752342 
L 236.208462 146.989269 
L 235.564615 147.204379 
L 234.920769 146.040563 
L 234.276923 146.162474 
L 233.633077 146.035846 
L 232.989231 144.004347 
L 232.345385 143.623151 
L 231.701538 141.869245 
L 231.057692 143.096617 
L 230.413846 144.649358 
L 229.77 145.025941 
L 229.126154 143.547143 
L 228.482308 141.442587 
L 227.838462 142.741753 
L 227.194615 142.138728 
L 225.906923 138.438745 
L 225.263077 142.259902 
L 224.619231 143.116651 
L 223.975385 141.235314 
L 223.331538 135.390984 
L 222.687692 135.090867 
L 221.4 139.699214 
L 220.756154 140.329082 
L 220.112308 138.434852 
L 219.468462 138.978674 
L 218.824615 137.962435 
L 218.180769 137.485629 
L 217.536923 137.394136 
L 216.893077 136.880715 
L 216.249231 136.797547 
L 215.605385 138.924209 
L 214.317692 141.087765 
L 213.673846 141.324723 
L 212.386154 137.589588 
L 211.742308 134.763 
L 211.098462 130.205419 
L 210.454615 128.070598 
L 209.810769 126.730469 
L 208.523077 127.109239 
L 207.879231 128.039203 
L 207.235385 128.590936 
L 206.591538 128.245052 
L 205.947692 129.447134 
L 205.303846 132.827277 
L 204.66 134.954145 
L 204.016154 134.958867 
L 203.372308 135.920847 
L 202.728462 134.491131 
L 202.084615 137.050199 
L 201.440769 131.946187 
L 200.796923 131.853493 
L 200.153077 130.445976 
L 199.509231 130.306894 
L 198.865385 130.472939 
L 198.221538 132.339121 
L 196.933846 136.410535 
L 196.29 137.759817 
L 195.646154 139.776741 
L 195.002308 142.742913 
L 194.358462 139.845015 
L 193.714615 139.571071 
L 193.070769 135.278533 
L 192.426923 135.390114 
L 191.783077 137.252402 
L 191.139231 135.930498 
L 190.495385 132.206956 
L 189.851538 130.779352 
L 189.207692 129.901782 
L 188.563846 133.294516 
L 187.92 133.990177 
L 187.276154 135.561337 
L 186.632308 135.278036 
L 185.988462 138.920357 
L 185.344615 136.701954 
L 184.700769 137.420436 
L 184.056923 134.582251 
L 183.413077 135.98898 
L 182.769231 136.326042 
L 182.125385 137.61183 
L 181.481538 137.826169 
L 180.837692 139.008163 
L 180.193846 139.271608 
L 179.55 139.202639 
L 178.906154 140.061135 
L 178.262308 144.52787 
L 177.618462 140.125599 
L 176.974615 144.378739 
L 176.330769 140.040956 
L 175.686923 140.403991 
L 175.043077 138.43829 
L 174.399231 139.855593 
L 173.755385 138.829609 
L 173.111538 142.988462 
L 172.467692 140.737748 
L 171.823846 140.91595 
L 171.18 140.827534 
L 170.536154 146.531138 
L 169.892308 145.992067 
L 169.248462 140.885677 
L 168.604615 136.846959 
L 167.960769 132.066755 
L 167.316923 132.881908 
L 166.673077 132.097322 
L 166.029231 131.517135 
L 165.385385 135.478128 
L 164.741538 136.702699 
L 164.097692 140.025872 
L 163.453846 139.782386 
L 162.81 137.186879 
L 162.166154 127.880737 
L 161.522308 122.76956 
L 160.878462 118.881546 
L 160.234615 117.246478 
L 159.590769 116.667037 
L 158.946923 119.845804 
L 158.303077 118.068589 
L 157.659231 112.374118 
L 157.015385 110.092263 
L 156.371538 110.734949 
L 155.727692 108.873489 
L 155.083846 113.240878 
L 154.44 110.234741 
L 153.796154 118.621522 
L 153.152308 117.485668 
L 152.508462 119.709869 
L 151.864615 122.924795 
L 151.220769 124.317235 
L 150.576923 126.492894 
L 149.933077 125.000719 
L 149.289231 122.529375 
L 147.357692 110.517172 
L 146.713846 114.690931 
L 146.07 113.540829 
L 145.426154 113.106186 
L 144.782308 113.501191 
L 144.138462 112.925809 
L 143.494615 115.652994 
L 142.850769 120.515537 
L 142.206923 119.465667 
L 141.563077 120.512389 
L 140.919231 115.863854 
L 140.275385 117.942801 
L 139.631538 117.98919 
L 138.987692 118.693093 
L 138.343846 118.513379 
L 137.7 114.283499 
L 137.056154 113.424733 
L 136.412308 117.531063 
L 135.768462 122.89282 
L 135.124615 130.948669 
L 134.480769 136.446569 
L 133.836923 138.067969 
L 133.193077 141.917845 
L 132.549231 139.302809 
L 131.905385 148.193902 
L 131.261538 145.528439 
L 130.617692 152.324834 
L 129.973846 157.459413 
L 129.33 165.205992 
L 128.686154 175.107231 
L 128.042308 180.091006 
L 127.398462 182.213732 
L 126.110769 192.788474 
L 125.466923 196.178557 
L 124.823077 192.24548 
L 124.179231 196.806044 
L 123.535385 202.711043 
L 122.247692 217.347838 
L 121.603846 216.429595 
L 120.96 211.139242 
L 120.316154 207.19374 
L 119.028462 210.340284 
L 118.384615 206.674769 
L 117.740769 207.368525 
L 117.096923 212.388831 
L 116.453077 221.629242 
L 115.809231 223.823166 
L 115.165385 221.939879 
L 114.521538 215.487744 
L 113.877692 230.806283 
L 113.233846 242.116364 
L 112.59 241.790816 
L 111.946154 236.26935 
L 111.302308 239.968828 
L 110.658462 240.730095 
L 110.014615 239.728187 
L 109.370769 235.539974 
L 108.726923 229.518175 
L 108.083077 225.5793 
L 107.439231 217.928107 
L 106.795385 216.563376 
L 106.151538 222.166436 
L 105.507692 221.212988 
L 104.22 211.9411 
L 102.932308 203.191909 
L 102.288462 201.199277 
L 101.644615 204.944729 
L 101.000769 220.895725 
L 100.356923 216.901763 
L 99.713077 235.189576 
L 99.069231 225.927627 
L 98.425385 218.507548 
L 97.781538 213.538187 
L 97.137692 206.205501 
L 96.493846 206.526078 
L 95.85 206.649504 
L 95.206154 209.550852 
L 94.562308 216.9817 
L 93.918462 214.895463 
L 93.274615 215.224738 
L 92.630769 212.197064 
L 91.986923 198.247813 
L 91.343077 213.679838 
L 90.699231 208.457825 
L 90.055385 214.699969 
L 89.411538 211.736079 
L 88.767692 207.465444 
L 88.123846 204.19713 
L 87.48 190.857555 
L 86.836154 186.330955 
L 86.192308 184.357914 
L 85.548462 192.845631 
L 84.904615 183.229805 
L 83.616923 160.382671 
L 82.973077 155.951457 
L 82.329231 165.589152 
L 81.685385 156.625249 
L 81.041538 159.830483 
L 80.397692 142.591741 
L 79.753846 136.067468 
L 79.11 131.094213 
L 78.466154 110.918639 
L 77.822308 101.321245 
L 77.178462 77.255586 
L 76.534615 72.857797 
L 75.890769 61.708004 
L 75.246923 59.741466 
L 74.603077 64.69923 
L 73.959231 74.356723 
L 73.315385 87.447374 
L 72.671538 75.446023 
L 71.383846 58.145207 
L 70.74 61.197317 
L 70.096154 58.127811 
L 69.452308 59.487158 
L 68.808462 55.582246 
L 68.164615 64.543083 
L 67.520769 59.367873 
L 66.876923 62.0116 
L 66.233077 60.768639 
L 65.589231 62.793162 
L 64.945385 77.1421 
L 64.301538 76.469054 
L 63.657692 79.360876 
L 63.013846 71.55395 
L 62.37 78.605407 
L 61.726154 78.455887 
L 61.082308 79.09787 
L 60.438462 72.745553 
L 59.150769 81.116181 
L 58.506923 89.864543 
L 57.863077 93.908207 
L 57.219231 97.134688 
L 56.575385 87.884751 
L 55.931538 82.808531 
L 55.287692 79.446611 
L 54.643846 79.514123 
L 54 81.334455 
L 54 81.334455 
" style="fill:none;stroke:#800080;stroke-linecap:square;stroke-width:1.5;"/>
   </g>
   <g id="line2d_14">
    <path clip-path="url(#p2e59fa6d03)" d="M 104.22 211.9411 
" style="fill:none;stroke:#ff0000;stroke-linecap:square;stroke-width:1.5;"/>
    <defs>
     <path d="M 0 1.5 
C 0.397805 1.5 0.77937 1.341951 1.06066 1.06066 
C 1.341951 0.77937 1.5 0.397805 1.5 0 
C 1.5 -0.397805 1.341951 -0.77937 1.06066 -1.06066 
C 0.77937 -1.341951 0.397805 -1.5 0 -1.5 
C -0.397805 -1.5 -0.77937 -1.341951 -1.06066 -1.06066 
C -1.341951 -0.77937 -1.5 -0.397805 -1.5 0 
C -1.5 0.397805 -1.341951 0.77937 -1.06066 1.06066 
C -0.77937 1.341951 -0.397805 1.5 0 1.5 
z
" id="md1015a42fb" style="stroke:#ff0000;"/>
    </defs>
    <g clip-path="url(#p2e59fa6d03)">
     <use style="fill:#ff0000;stroke:#ff0000;" x="104.22" xlink:href="#md1015a42fb" y="211.9411"/>
    </g>
   </g>
   <g id="patch_3">
    <path d="M 54 252 
L 54 34.56 
" style="fill:none;stroke:#000000;stroke-linecap:square;stroke-linejoin:miter;stroke-width:0.8;"/>
   </g>
   <g id="patch_4">
    <path d="M 388.8 252 
L 388.8 34.56 
" style="fill:none;stroke:#000000;stroke-linecap:square;stroke-linejoin:miter;stroke-width:0.8;"/>
   </g>
   <g id="patch_5">
    <path d="M 54 252 
L 388.8 252 
" style="fill:none;stroke:#000000;stroke-linecap:square;stroke-linejoin:miter;stroke-width:0.8;"/>
   </g>
   <g id="patch_6">
    <path d="M 54 34.56 
L 388.8 34.56 
" style="fill:none;stroke:#000000;stroke-linecap:square;stroke-linejoin:miter;stroke-width:0.8;"/>
   </g>
   <g id="text_14">
    <!-- 229 nm, -1.65 mDeg -->
    <g transform="translate(111.592038 213.657627)scale(0.1 -0.1)">
     <defs>
      <path d="M 10.984375 1.515625 
L 10.984375 10.5 
Q 14.703125 8.734375 18.5 7.8125 
Q 22.3125 6.890625 25.984375 6.890625 
Q 35.75 6.890625 40.890625 13.453125 
Q 46.046875 20.015625 46.78125 33.40625 
Q 43.953125 29.203125 39.59375 26.953125 
Q 35.25 24.703125 29.984375 24.703125 
Q 19.046875 24.703125 12.671875 31.3125 
Q 6.296875 37.9375 6.296875 49.421875 
Q 6.296875 60.640625 12.9375 67.421875 
Q 19.578125 74.21875 30.609375 74.21875 
Q 43.265625 74.21875 49.921875 64.515625 
Q 56.59375 54.828125 56.59375 36.375 
Q 56.59375 19.140625 48.40625 8.859375 
Q 40.234375 -1.421875 26.421875 -1.421875 
Q 22.703125 -1.421875 18.890625 -0.6875 
Q 15.09375 0.046875 10.984375 1.515625 
z
M 30.609375 32.421875 
Q 37.25 32.421875 41.125 36.953125 
Q 45.015625 41.5 45.015625 49.421875 
Q 45.015625 57.28125 41.125 61.84375 
Q 37.25 66.40625 30.609375 66.40625 
Q 23.96875 66.40625 20.09375 61.84375 
Q 16.21875 57.28125 16.21875 49.421875 
Q 16.21875 41.5 20.09375 36.953125 
Q 23.96875 32.421875 30.609375 32.421875 
z
" id="DejaVuSans-57"/>
      <path d="M 11.71875 12.40625 
L 22.015625 12.40625 
L 22.015625 4 
L 14.015625 -11.625 
L 7.71875 -11.625 
L 11.71875 4 
z
" id="DejaVuSans-44"/>
      <path d="M 4.890625 31.390625 
L 31.203125 31.390625 
L 31.203125 23.390625 
L 4.890625 23.390625 
z
" id="DejaVuSans-45"/>
      <path d="M 10.6875 12.40625 
L 21 12.40625 
L 21 0 
L 10.6875 0 
z
" id="DejaVuSans-46"/>
      <path d="M 33.015625 40.375 
Q 26.375 40.375 22.484375 35.828125 
Q 18.609375 31.296875 18.609375 23.390625 
Q 18.609375 15.53125 22.484375 10.953125 
Q 26.375 6.390625 33.015625 6.390625 
Q 39.65625 6.390625 43.53125 10.953125 
Q 47.40625 15.53125 47.40625 23.390625 
Q 47.40625 31.296875 43.53125 35.828125 
Q 39.65625 40.375 33.015625 40.375 
z
M 52.59375 71.296875 
L 52.59375 62.3125 
Q 48.875 64.0625 45.09375 64.984375 
Q 41.3125 65.921875 37.59375 65.921875 
Q 27.828125 65.921875 22.671875 59.328125 
Q 17.53125 52.734375 16.796875 39.40625 
Q 19.671875 43.65625 24.015625 45.921875 
Q 28.375 48.1875 33.59375 48.1875 
Q 44.578125 48.1875 50.953125 41.515625 
Q 57.328125 34.859375 57.328125 23.390625 
Q 57.328125 12.15625 50.6875 5.359375 
Q 44.046875 -1.421875 33.015625 -1.421875 
Q 20.359375 -1.421875 13.671875 8.265625 
Q 6.984375 17.96875 6.984375 36.375 
Q 6.984375 53.65625 15.1875 63.9375 
Q 23.390625 74.21875 37.203125 74.21875 
Q 40.921875 74.21875 44.703125 73.484375 
Q 48.484375 72.75 52.59375 71.296875 
z
" id="DejaVuSans-54"/>
     </defs>
     <use xlink:href="#DejaVuSans-50"/>
     <use x="63.623047" xlink:href="#DejaVuSans-50"/>
     <use x="127.246094" xlink:href="#DejaVuSans-57"/>
     <use x="190.869141" xlink:href="#DejaVuSans-32"/>
     <use x="222.65625" xlink:href="#DejaVuSans-110"/>
     <use x="286.035156" xlink:href="#DejaVuSans-109"/>
     <use x="383.447266" xlink:href="#DejaVuSans-44"/>
     <use x="415.234375" xlink:href="#DejaVuSans-32"/>
     <use x="447.021484" xlink:href="#DejaVuSans-45"/>
     <use x="483.105469" xlink:href="#DejaVuSans-49"/>
     <use x="546.728516" xlink:href="#DejaVuSans-46"/>
     <use x="578.515625" xlink:href="#DejaVuSans-54"/>
     <use x="642.138672" xlink:href="#DejaVuSans-53"/>
     <use x="705.761719" xlink:href="#DejaVuSans-32"/>
     <use x="737.548828" xlink:href="#DejaVuSans-109"/>
     <use x="834.960938" xlink:href="#DejaVuSans-68"/>
     <use x="911.962891" xlink:href="#DejaVuSans-101"/>
     <use x="973.486328" xlink:href="#DejaVuSans-103"/>
    </g>
   </g>
   <g id="text_15">
    <!-- S-TMA -->
    <g transform="translate(203.027813 28.56)scale(0.12 -0.12)">
     <defs>
      <path d="M 53.515625 70.515625 
L 53.515625 60.890625 
Q 47.90625 63.578125 42.921875 64.890625 
Q 37.9375 66.21875 33.296875 66.21875 
Q 25.25 66.21875 20.875 63.09375 
Q 16.5 59.96875 16.5 54.203125 
Q 16.5 49.359375 19.40625 46.890625 
Q 22.3125 44.4375 30.421875 42.921875 
L 36.375 41.703125 
Q 47.40625 39.59375 52.65625 34.296875 
Q 57.90625 29 57.90625 20.125 
Q 57.90625 9.515625 50.796875 4.046875 
Q 43.703125 -1.421875 29.984375 -1.421875 
Q 24.8125 -1.421875 18.96875 -0.25 
Q 13.140625 0.921875 6.890625 3.21875 
L 6.890625 13.375 
Q 12.890625 10.015625 18.65625 8.296875 
Q 24.421875 6.59375 29.984375 6.59375 
Q 38.421875 6.59375 43.015625 9.90625 
Q 47.609375 13.234375 47.609375 19.390625 
Q 47.609375 24.75 44.3125 27.78125 
Q 41.015625 30.8125 33.5 32.328125 
L 27.484375 33.5 
Q 16.453125 35.6875 11.515625 40.375 
Q 6.59375 45.0625 6.59375 53.421875 
Q 6.59375 63.09375 13.40625 68.65625 
Q 20.21875 74.21875 32.171875 74.21875 
Q 37.3125 74.21875 42.625 73.28125 
Q 47.953125 72.359375 53.515625 70.515625 
z
" id="DejaVuSans-83"/>
      <path d="M -0.296875 72.90625 
L 61.375 72.90625 
L 61.375 64.59375 
L 35.5 64.59375 
L 35.5 0 
L 25.59375 0 
L 25.59375 64.59375 
L -0.296875 64.59375 
z
" id="DejaVuSans-84"/>
      <path d="M 9.8125 72.90625 
L 24.515625 72.90625 
L 43.109375 23.296875 
L 61.8125 72.90625 
L 76.515625 72.90625 
L 76.515625 0 
L 66.890625 0 
L 66.890625 64.015625 
L 48.09375 14.015625 
L 38.1875 14.015625 
L 19.390625 64.015625 
L 19.390625 0 
L 9.8125 0 
z
" id="DejaVuSans-77"/>
      <path d="M 34.1875 63.1875 
L 20.796875 26.90625 
L 47.609375 26.90625 
z
M 28.609375 72.90625 
L 39.796875 72.90625 
L 67.578125 0 
L 57.328125 0 
L 50.6875 18.703125 
L 17.828125 18.703125 
L 11.1875 0 
L 0.78125 0 
z
" id="DejaVuSans-65"/>
     </defs>
     <use xlink:href="#DejaVuSans-83"/>
     <use x="63.476562" xlink:href="#DejaVuSans-45"/>
     <use x="90.435547" xlink:href="#DejaVuSans-84"/>
     <use x="151.519531" xlink:href="#DejaVuSans-77"/>
     <use x="237.798828" xlink:href="#DejaVuSans-65"/>
    </g>
   </g>
  </g>
 </g>
 <defs>
  <clipPath id="p2e59fa6d03">
   <rect height="217.44" width="334.8" x="54" y="34.56"/>
  </clipPath>
 </defs>
</svg>
